<?xml version="1.0" encoding="utf-8"?>
<!-- Generator: Adobe Illustrator 24.1.0, SVG Export Plug-In . SVG Version: 6.00 Build 0)  -->
<svg version="1.1" id="Camada_1" xmlns="http://www.w3.org/2000/svg" xmlns:xlink="http://www.w3.org/1999/xlink" x="0px" y="0px"
	 viewBox="0 0 1280 1280" style="enable-background:new 0 0 1280 1280;" xml:space="preserve">
<style type="text/css">
	.st0{fill:none;stroke:#FFFFFF;stroke-miterlimit:10;}
	.st1{fill:#FFFFFF;}
</style>
<g id="XMLID_573_">
</g>
<g id="XMLID_572_">
</g>
<g id="XMLID_571_">
</g>
<g id="XMLID_570_">
</g>
<g id="XMLID_569_">
</g>
<g id="XMLID_568_">
</g>
<g id="XMLID_567_">
</g>
<g id="XMLID_566_">
</g>
<g id="XMLID_565_">
</g>
<g id="XMLID_563_">
</g>
<g id="XMLID_556_">
</g>
<g id="XMLID_555_">
</g>
<g id="XMLID_554_">
</g>
<g id="XMLID_553_">
</g>
<g>
	<path class="st0" d="M504.2,916c-24.3,0-44-19.7-44-44s19.7-44,44-44h57.6l2.7-8H400.2c-37.5,0-68-30.5-68-68V432
		c0-37.5,30.5-68,68-68h480c37.5,0,68,30.5,68,68v320c0,37.5-30.5,68-68,68H716l2.7,8h57.6c24.3,0,44,19.7,44,44s-19.7,44-44,44
		H504.2z"/>
	<path class="st0" d="M504.2,906c-18.7,0-34-15.3-34-34s15.3-34,34-34H569l9.3-28H400.2c-32,0-58-26-58-58V432c0-32,26-58,58-58h480
		c32,0,58,26,58,58v320c0,32-26,58-58,58H702.1l9.3,28h64.8c18.7,0,34,15.3,34,34s-15.3,34-34,34H504.2z"/>
	<path class="st1" d="M880.2,384h-480c-26.5,0-48,21.5-48,48v320c0,26.5,21.5,48,48,48h192l-16,48h-72c-13.3,0-24,10.7-24,24
		s10.7,24,24,24h272c13.3,0,24-10.7,24-24s-10.7-24-24-24h-72l-16-48h192c26.5,0,48-21.5,48-48V432C928.2,405.5,906.7,384,880.2,384
		z M864.2,736h-448V448h448V736z"/>
	<path class="st1" d="M595,600.7h17l-8.5-24.4L595,600.7z M684.3,593.3c-6.1,0-11,4.9-11,11c0,6.1,4.9,11,11,11s11-4.9,11-11
		C695.3,598.3,690.4,593.3,684.3,593.3z M735.7,505.1H544.7c-12.2,0-22,9.9-22,22v132.3c0,12.2,9.9,22,22,22h191.1
		c12.2,0,22-9.9,22-22V527.2C757.8,515,747.9,505.1,735.7,505.1z M637.7,637.4h-7.8c-3.1,0-5.9-2-6.9-4.9l-3.4-9.8h-32.3l-3.4,9.8
		c-1,3-3.8,4.9-6.9,4.9h-7.8c-5.1,0-8.6-5-6.9-9.8l24.7-71c1.5-4.4,5.7-7.4,10.4-7.4h12.2c4.7,0,8.9,3,10.4,7.4l24.7,71
		C646.3,632.5,642.8,637.4,637.7,637.4z M717.4,630.1c0,4.1-3.3,7.3-7.3,7.3h-7.3c-2.2,0-4.2-1-5.5-2.6c-4,1.7-8.3,2.6-12.9,2.6
		c-18.2,0-33.1-14.8-33.1-33.1c0-18.2,14.8-33.1,33.1-33.1c3.9,0,7.6,0.8,11,2v-16.7c0-4.1,3.3-7.3,7.3-7.3h7.3
		c4.1,0,7.3,3.3,7.3,7.3V630.1z"/>
	<path class="st1" d="M831,504.8c0,13.6-11,24.7-24.7,24.7c-13.6,0-24.7-11-24.7-24.7c0-13.6,11-24.7,24.7-24.7
		C820,480.1,831,491.2,831,504.8z M806.3,509.7c-2.5,0-4.6,2-4.6,4.6c0,2.5,2,4.6,4.6,4.6c2.5,0,4.6-2,4.6-4.6
		C810.9,511.8,808.9,509.7,806.3,509.7z M802,493.3l0.7,13.5c0,0.6,0.6,1.1,1.2,1.1h4.8c0.6,0,1.2-0.5,1.2-1.1l0.7-13.5
		c0-0.7-0.5-1.3-1.2-1.3h-6.3C802.5,492,802,492.6,802,493.3L802,493.3z"/>
</g>
</svg>
