<?xml version="1.0" encoding="utf-8"?>
<!-- Generator: Adobe Illustrator 24.1.0, SVG Export Plug-In . SVG Version: 6.00 Build 0)  -->
<svg version="1.1" id="Camada_1" xmlns="http://www.w3.org/2000/svg" xmlns:xlink="http://www.w3.org/1999/xlink" x="0px" y="0px"
	 viewBox="0 0 1280 1280" style="enable-background:new 0 0 1280 1280;" xml:space="preserve">
<style type="text/css">
	.st0{fill:#FFFFFF;}
	.st1{fill:none;stroke:#FFFFFF;stroke-miterlimit:10;}
</style>
<path class="st0" d="M368.5,829.1l85.5-83.3c45.3,60.5,100.4,93.2,178.8,95.2c43.1,1,85.2-9.9,122-31.6c7.2,7.5,26.1,27.5,29.5,31.1
	c-45.5,29.2-98.3,43.9-152.7,42.7c-61.2-1.6-119.5-23.6-166.3-62.7c0.4-0.8-54,53-54.5,53.5c13.4,42.1-18.5,88.1-65.4,88.1
	c-37.9-0.1-67.1-30.7-67.1-68.5C278.4,845,325.1,813.5,368.5,829.1z"/>
<path class="st0" d="M869.8,472.5c27,44.2,41.8,95.2,40.5,146.9c-1.6,63.3-26.8,123.6-68.7,170.9c0.4,0.4,33.6,35.6,34,36
	c13.6-1.8,27.1,2.8,36.6,12.9c16,17,15.4,43.6-1.6,59.9c-17,16-43.6,15.4-59.9-1.6c-9.5-9.9-13.3-23.7-10.7-37.2
	c-35.2-37.6-62.7-66.7-62.7-66.7c60.3-48.2,89.4-112.4,91-175.4c1-40.8-10.2-80.8-29.8-116.1L869.8,472.5L869.8,472.5z"/>
<path class="st0" d="M425.3,325.9c9.5,9.9,13.3,23.7,10.7,37.2l64.8,67.9c-6.6,5.4-18.8,14.7-32.2,30.1
	c-35.9,40.3-55.9,91.5-57.5,145.4c-1,40.8,8.6,80.8,28.3,116.4l-31.1,30.4c-27.3-44.6-40.8-95.6-39.3-147.9
	c1.4-63,25.8-123.7,67.1-171.1L400.4,397c-13.6,1.8-27.1-2.8-36.6-12.9c-16-17-15.4-43.6,1.6-59.9
	C382.2,308.4,408.6,308.8,425.3,325.9z"/>
<path class="st1" d="M934,429.8c0.4,0,0.9,0,1.3,0c26.3-0.1,51-10.6,69.6-29.6c18.5-18.8,28.7-43.6,28.7-69.8
	c0-26.1-10.1-51-28.5-70c-18.8-19.5-43.7-30.2-70.1-30.2c-26.2,0-52.1,10.8-70.9,29.8c-19,19.1-29.4,44.2-29.3,70.6
	c0,3.1,0.1,6.1,0.4,9.2l-25.5,24c-20-13.8-41.5-25.1-64.2-33.7c-31.7-12-65-18.5-99.1-19.4c-2.4-0.1-4.9-0.1-7.3-0.1
	c-58.5,0-114.9,16.5-163.4,47.8l-7-7.4c-1-17.6-8.2-34.5-20.3-47.2l-0.1-0.2c-14.4-14.7-33.5-22.9-53.8-22.9c-19,0-37,7.2-50.9,20.2
	l-0.2,0.2c-29.4,28.2-30.6,75.3-2.7,105c12.1,12.9,28.7,21,46.2,22.9l7.1,7.4c-35.3,49.4-55.4,108.6-56.7,168.2
	c-1.7,58.3,13.5,115.5,43.9,165.4l0.9,1.4l-23.2,22.6c-4.3-0.6-8.7-0.9-13-0.9c-26,0-50.6,10.1-69.3,28.3
	c-19.3,18.9-30,44.5-30,72.1c0,26.8,10.1,51.9,28.4,70.7c18.6,19.1,43.7,29.7,70.6,29.8h0.1c32.3,0,61.9-15,81-41.2
	c14.5-19.8,21.2-44.2,19-68.2c5.9-5.9,14.6-14.4,22.5-22.2c19.9,13.6,41.3,24.8,63.8,33.3c31.7,12,65,18.5,99.1,19.3
	c2.4,0.1,4.9,0.1,7.2,0.1c58.3,0,114.8-16.5,163.5-47.8l0.7-0.4c1.7,1.8,3.4,3.6,5.2,5.5c0.9,17.7,8.1,34.6,20.3,47.3
	c14.2,14.8,33.3,23,53.8,23c19.1,0,37.2-7.2,51.2-20.3l0.1-0.1c29.4-28.2,30.6-75.3,2.7-105c-12.1-12.8-28.6-20.9-46-22.8l-5.5-5.8
	c36.2-49.7,56.8-109,58.2-168.4c1.4-56.8-14.2-113.6-45.2-164.4l-0.7-1.1l26.8-25.4C927,429.7,930.7,429.8,934,429.8z M836.4,617.5
	c-1.4,58-29.5,111.7-78.9,151.2l-8.8,7l-10.1,6c-30.2,17.8-64.9,27.3-100.4,27.3c-1.5,0-3.1,0-4.6-0.1c-65.9-1.7-112-26.3-154-82.4
	l-5.9-7.9l-6.2-11.2c-16.7-30.3-25.1-65-24.3-100c1.3-46.4,18.9-90.7,49.4-125l0.2-0.2c10.4-11.9,19.6-19.3,26.3-24.7l1.9-1.5
	l5.6-4.5l12.7-7.7c29.5-17.7,63.9-27.1,99.7-27.1c1.6,0,3.2,0,4.7,0.1c62,1.6,115.4,30,154.5,82.1l7.5,9.9l5,9
	C828.3,549.6,837.2,584.1,836.4,617.5z"/>
<path class="st1" d="M934,413.8c0.4,0,0.8,0,1.2,0c22,0,42.7-8.8,58.3-24.8c15.5-15.8,24.1-36.6,24.1-58.6c0-22-8.5-42.9-24-58.9
	c-15.7-16.3-36.5-25.3-58.6-25.3c-22,0-43.7,9.1-59.6,25.1c-16,16-24.7,37.1-24.6,59.3c0,5.2,0.5,10.3,1.3,15.2l-41.1,38.6
	c-21.7-16.6-45.7-29.8-71.2-39.5c-30-11.3-61.5-17.5-93.8-18.3c-2.3-0.1-4.6-0.1-6.9-0.1c-55.4,0-108.9,15.7-154.8,45.3l-11,7.1
	l-20.5-21.5c0.6-15.8-5-31.2-15.9-42.5l-0.1-0.1c-11.3-11.6-26.4-18-42.4-18c-14.9,0-29.1,5.6-39.9,15.9l-0.1,0.1
	c-23.1,22.1-24.1,59.1-2.1,82.4c10.8,11.5,26,18.1,41.8,18.3l20.8,21.7c-38.5,48.9-60.3,108.7-61.7,169.9
	c-1.6,55.2,12.8,109.4,41.6,156.6l7.5,12.3L364,811.1c-6-1.4-12.1-2-18.3-2c-21.8,0-42.5,8.4-58.1,23.8
	c-16.2,15.9-25.2,37.4-25.2,60.6c0,22.6,8.5,43.7,23.9,59.6c15.6,16,36.6,24.9,59.2,25h0.1c27.2,0,52-12.6,68.1-34.6
	c13.8-18.8,19.1-42.3,15-64.5c9.4-9.3,26.9-26.6,37.8-37.3c21.7,16.4,45.6,29.6,71.1,39.2c30,11.3,61.5,17.5,93.8,18.3
	c2.3,0.1,4.6,0.1,6.9,0.1c55.2,0,108.8-15.7,154.8-45.3l11.9-7.6c5.8,6.2,12,12.8,18.6,19.8c-0.7,15.8,5,31.3,15.9,42.7
	c11.2,11.6,26.2,18.1,42.3,18.1c15,0,29.2-5.7,40.1-15.9l0.1-0.1c23.1-22.1,24.1-59.1,2.1-82.4c-10.8-11.4-26-18.1-41.7-18.3
	c-3.3-3.5-17.1-18.2-19.1-20.3c39.4-49.2,61.7-109,63.2-169.9c1.3-53.7-13.5-107.5-42.9-155.6l-7.4-12.2l41.6-39.5
	C922.9,413.3,928.9,413.8,934,413.8z"/>
<path class="st0" d="M935.1,262.2c36.7,0,66.5,31.6,66.5,68.2s-29.8,67.4-66.5,67.4c-8.9,0.1-19.8-1.6-22.5-2.5l-88.9,84.3
	c-46.2-61.6-108.3-93.1-179.3-94.9c-43.1-1-85.2,9.6-121.8,31.6L493,385.2c45.5-29.4,98.3-43.9,152.7-42.7
	c61.2,1.6,119.5,23.6,166.3,63l58.1-54.5c-2.1-6.6-3.1-13.6-3.1-20.5C866.7,292.9,898.4,262.2,935.1,262.2z"/>
<g>
	
		<ellipse transform="matrix(0.9732 -0.2298 0.2298 0.9732 -109.3856 172.1526)" class="st0" cx="684.6" cy="555.8" rx="17" ry="17"/>
	<path class="st0" d="M664.2,412.7c-7.8-1-15.4-1.6-23.2-1.6v0c-102.6,0.3-188.4,74-201.6,176.3c-13.6,110.3,64.6,211,174.9,224.9
		c110.2,13.6,210.9-64.6,224.7-174.9C852.6,527.2,774.5,426.5,664.2,412.7z M667.5,635.3c-4,0-7.9-0.4-11.6-1.1l-8.5,9.6
		c-1.6,1.8-3.9,2.9-6.4,2.9h-13.2v14.2c0,4.7-3.8,8.5-8.5,8.5h-14.2v14.2c0,4.7-3.8,8.5-8.5,8.5h-39.7c-4.7,0-8.5-3.8-8.5-8.5v-27.7
		c0-2.3,0.9-4.4,2.5-6l57.4-57.4c-2-6.2-3.1-12.7-3.1-19.6c0-34.5,28-62.5,62.5-62.5c34.6,0,62.5,27.9,62.5,62.5
		C730,607.3,702,635.3,667.5,635.3z"/>
</g>
</svg>
