<?xml version="1.0" encoding="utf-8"?>
<!-- Generator: Adobe Illustrator 24.1.0, SVG Export Plug-In . SVG Version: 6.00 Build 0)  -->
<svg version="1.1" id="Camada_1" xmlns="http://www.w3.org/2000/svg" xmlns:xlink="http://www.w3.org/1999/xlink" x="0px" y="0px"
	 viewBox="0 0 1280 1280" style="enable-background:new 0 0 1280 1280;" xml:space="preserve">
<style type="text/css">
	.st0{fill:none;stroke:#FFFFFF;stroke-miterlimit:10;}
	.st1{fill:#FFFFFF;}
</style>
<g id="XMLID_573_">
</g>
<g id="XMLID_572_">
</g>
<g id="XMLID_571_">
</g>
<g id="XMLID_570_">
</g>
<g id="XMLID_569_">
</g>
<g id="XMLID_568_">
</g>
<g id="XMLID_567_">
</g>
<g id="XMLID_566_">
</g>
<g id="XMLID_565_">
</g>
<g id="XMLID_563_">
</g>
<g id="XMLID_556_">
</g>
<g id="XMLID_555_">
</g>
<g id="XMLID_554_">
</g>
<g id="XMLID_553_">
</g>
<g>
	<path class="st0" d="M-1804.5,1064.1c-26.5,0-48-21.5-48-48v-32c0-26.5,21.5-48,48-48h80V570.9c0-45.7,35.9-82.8,80-82.8h288
		c44.1,0,80,37.1,80,82.8v365.2h80c26.5,0,48,21.5,48,48v32c0,26.5-21.5,48-48,48H-1804.5z M-1404.5,776.1"/>
	<path class="st0" d="M-1804.5,1048.1c-17.6,0-32-14.4-32-32v-32c0-17.6,14.4-32,32-32h96V570.9c0-36.8,28.7-66.8,64-66.8h288
		c35.3,0,64,30,64,66.8v381.2h96c17.6,0,32,14.4,32,32v32c0,17.6-14.4,32-32,32H-1804.5z"/>
	<path class="st1" d="M-1196.5,968.1h-112V570.9c0-28-21.5-50.8-48-50.8h-288c-26.5,0-48,22.8-48,50.8v397.2h-112
		c-8.8,0-16,7.2-16,16v32c0,8.8,7.2,16,16,16h608c8.8,0,16-7.2,16-16v-32C-1180.5,975.3-1187.6,968.1-1196.5,968.1z M-1443,692.9
		c0,6.8-5.5,12.3-12.3,12.3h-90.3c-6.8,0-12.3-5.5-12.3-12.3v-49.3c0-6.8,5.5-12.3,12.3-12.3h6.2v-18.5c0-21.5,17.5-39,39-39
		c21.5,0,39,17.5,39,39v18.5h6.2c6.8,0,12.3,5.5,12.3,12.3V692.9z M-1404.5,808.1c-17.7,0-32-14.3-32-32c0-17.7,14.3-32,32-32
		c17.7,0,32,14.3,32,32C-1372.5,793.8-1386.8,808.1-1404.5,808.1z"/>
	<path class="st1" d="M-1500.5,594.4c-10.2,0-18.5,8.3-18.5,18.5v18.5h37v-18.5C-1482,602.7-1490.3,594.4-1500.5,594.4z"/>
</g>
<path class="st0" d="M498.1,891.5c-45.5,0-82.5-37-82.5-82.5V311c0-45.5,37-82.5,82.5-82.5h283c45.5,0,82.5,37,82.5,82.5v498
	c0,45.5-37,82.5-82.5,82.5H498.1z"/>
<path class="st0" d="M498.1,875.5c-36.7,0-66.5-29.8-66.5-66.5V311c0-36.7,29.8-66.5,66.5-66.5h283c36.7,0,66.5,29.8,66.5,66.5v498
	c0,36.7-29.8,66.5-66.5,66.5H498.1z"/>
<path class="st1" d="M781.1,260.5h-283c-27.8,0-50.5,22.7-50.5,50.5v498c0,27.8,22.7,50.5,50.5,50.5h283c27.8,0,50.5-22.7,50.5-50.5
	V311C831.6,283.2,808.9,260.5,781.1,260.5z M699,429.5c0,7.1-5.7,12.8-12.8,12.8h-94.1c-7.1,0-12.8-5.7-12.8-12.8v-42.8
	c0-7.1,5.7-12.8,12.8-12.8h6.4v-27.4c0-22.4,18-40.9,40.5-41c22.4-0.1,40.8,18.2,40.8,40.6v4.3c0,3.6-2.9,6.4-6.4,6.4h-8.6
	c-3.6,0-6.4-2.9-6.4-6.4v-4.3c0-10.7-8.7-19.3-19.4-19.2c-10.6,0.1-19.1,8.9-19.1,19.5v27.6h66.3c7.1,0,12.8,5.7,12.8,12.8V429.5z
	 M777.5,577c-9.7,0-17.5-7.8-17.5-17.5s7.8-17.5,17.5-17.5s17.5,7.8,17.5,17.5S787.2,577,777.5,577z"/>
<path class="st1" d="M639.1,391c-5.9,0-10.7,4.8-10.7,10.7v12.8c0,5.9,4.8,10.7,10.7,10.7c5.9,0,10.7-4.8,10.7-10.7v-12.8
	C649.8,395.8,645,391,639.1,391z"/>
</svg>
