<?xml version="1.0" encoding="utf-8"?>
<!-- Generator: Adobe Illustrator 24.1.0, SVG Export Plug-In . SVG Version: 6.00 Build 0)  -->
<svg version="1.1" id="Camada_1" xmlns="http://www.w3.org/2000/svg" xmlns:xlink="http://www.w3.org/1999/xlink" x="0px" y="0px"
	 viewBox="0 0 1280 1280" style="enable-background:new 0 0 1280 1280;" xml:space="preserve">
<style type="text/css">
	.st0{fill:#FFFFFF;}
	.st1{fill:none;stroke:#FFFFFF;stroke-miterlimit:10;}
</style>
<g id="XMLID_573_">
</g>
<g id="XMLID_572_">
</g>
<g id="XMLID_571_">
</g>
<g id="XMLID_570_">
</g>
<g id="XMLID_569_">
</g>
<g id="XMLID_568_">
</g>
<g id="XMLID_567_">
</g>
<g id="XMLID_566_">
</g>
<g id="XMLID_565_">
</g>
<g id="XMLID_563_">
</g>
<g id="XMLID_556_">
</g>
<g id="XMLID_555_">
</g>
<g id="XMLID_554_">
</g>
<g id="XMLID_553_">
</g>
<g>
	<g id="XMLID_2_">
		
			<image style="overflow:visible;opacity:0.5;" width="596" height="105" xlink:href="99EF7F4D.png"  transform="matrix(1 0 0 1 321.5 369.5)">
		</image>
		<g>
			<path class="st0" d="M906.8,371.2H331.7c-4.8,0-8.7,3.9-8.7,8.7v92.1h592.4v-92.1C915.4,375.1,911.5,371.2,906.8,371.2z
				 M377.1,439c-8.7,0-15.9-7.1-15.9-15.9c0-8.7,7.1-15.9,15.9-15.9c8.7,0,15.9,7.1,15.9,15.9C392.9,431.9,385.8,439,377.1,439z
				 M425.3,439c-8.7,0-15.9-7.1-15.9-15.9c0-8.7,7.1-15.9,15.9-15.9c8.7,0,15.9,7.1,15.9,15.9C441.1,431.9,434,439,425.3,439z
				 M473.5,439c-8.7,0-15.9-7.1-15.9-15.9c0-8.7,7.1-15.9,15.9-15.9c8.7,0,15.9,7.1,15.9,15.9C489.3,431.9,482.2,439,473.5,439z"/>
		</g>
	</g>
	<g>
		<path class="st0" d="M803.3,825.2c0-17.2,12.4-31.5,28.7-34.5v-25.4c0-42.4,34.2-77,76.2-77.1l0.3,0c2.4,0,4.9,0.1,7.2,0.4V492.8
			H322.8v348.5c0,4.8,3.9,8.7,8.7,8.7h471.8V825.2z M480.6,730.2l83.1-84.6v-2.5l-83.1-84.3h59.5l83.7,85.2l-83.7,86.2H480.6z
			 M612,784.3v-43.8h146v43.8H612z"/>
	</g>
	<path class="st1" d="M1000.2,778.9c0.5-2.6,0.8-5.2,0.8-7.9v-6.4c0-37-21.8-69-53.2-83.7V492.8l-4.4-10.7l4.2-10.1v-92.1
		c0-22.4-18.2-40.7-40.7-40.7H331.7c-22.4,0-40.7,18.2-40.7,40.7v92.1l4.2,10.1l-4.4,10.6v348.5c0,22.4,18.3,40.7,40.7,40.7h455.8
		v6.9c0,28.2,22.9,51.1,51.1,51.1h140.1c28.2,0,51.1-22.9,51.1-51.1v-63.7C1029.6,804.8,1017.5,787.1,1000.2,778.9z"/>
	<path class="st1" d="M978.5,790.1h-2.1c5.2-4.7,8.5-11.5,8.5-19v-6.4c0-35.1-23.7-64.7-56-73.7l2.7-2.5V492.8l-10.5-10.5l10.3-10.3
		v-92.1c0-13.6-11.1-24.7-24.7-24.7H331.7c-13.6,0-24.7,11.1-24.7,24.7v92.1l10.3,10.3l-10.5,10.5v348.5c0,13.6,11.1,24.7,24.7,24.7
		h471.8v22.9c0,19.4,15.7,35.1,35.1,35.1h140.1c19.4,0,35.1-15.7,35.1-35.1v-63.7C1013.6,805.8,997.8,790.1,978.5,790.1z"/>
	<path class="st0" d="M978.5,806.1h-98.7v-41c0-15.8,12.6-28.9,28.4-29c15.9-0.2,28.9,12.8,28.9,28.7v6.4c0,5.3,4.3,9.6,9.6,9.6
		h12.7c5.3,0,9.6-4.3,9.6-9.6v-6.4c0-33.4-27.3-60.6-60.7-60.5c-33.4,0.1-60.3,27.7-60.3,61.1v40.8h-9.6c-10.5,0-19.1,8.6-19.1,19.1
		v63.7c0,10.5,8.6,19.1,19.1,19.1h140.1c10.5,0,19.1-8.6,19.1-19.1v-63.7C997.6,814.7,989,806.1,978.5,806.1z M924.3,866.6
		c0,8.8-7.1,15.9-15.9,15.9s-15.9-7.1-15.9-15.9v-19.1c0-8.8,7.1-15.9,15.9-15.9s15.9,7.1,15.9,15.9V866.6z"/>
</g>
</svg>
