<?xml version="1.0" encoding="utf-8"?>
<!-- Generator: Adobe Illustrator 24.1.0, SVG Export Plug-In . SVG Version: 6.00 Build 0)  -->
<svg version="1.1" id="Camada_1" xmlns="http://www.w3.org/2000/svg" xmlns:xlink="http://www.w3.org/1999/xlink" x="0px" y="0px"
	 viewBox="0 0 1280 1280" style="enable-background:new 0 0 1280 1280;" xml:space="preserve">
<style type="text/css">
	.st0{fill:none;stroke:#FFFFFF;stroke-miterlimit:10;}
	.st1{fill:#FFFFFF;}
</style>
<g id="XMLID_573_">
</g>
<g id="XMLID_572_">
</g>
<g id="XMLID_571_">
</g>
<g id="XMLID_570_">
</g>
<g id="XMLID_569_">
</g>
<g id="XMLID_568_">
</g>
<g id="XMLID_567_">
</g>
<g id="XMLID_566_">
</g>
<g id="XMLID_565_">
</g>
<g id="XMLID_563_">
</g>
<g id="XMLID_556_">
</g>
<g id="XMLID_555_">
</g>
<g id="XMLID_554_">
</g>
<g id="XMLID_553_">
</g>
<path class="st0" d="M701.7,871.8l-11.3-4.7l-9.2-9.2l-9.2,9.2l-11.3,4.7h-40.9l-11.3-4.7l-9.2-9.2l-9.2,9.2l-11.3,4.7h-40.9
	l-11.3-4.7l-16-16l-4.7-11.3v-40.9l4.7-11.3l16-16l11.3-4.7h19.8c-24.6-7.8-48.1-19.1-70-33.7c-46.5-31.1-81.9-75.1-102.4-127.4
	l-1.1-5.9l0-11.7l1.1-5.9c20.3-51.3,55.1-94.8,100.7-126c45.8-31.3,99.1-47.8,154.3-47.8s108.6,16.5,154.3,47.8
	c45.6,31.2,80.4,74.7,100.7,126l1.1,5.9l0,11.7l-1.1,5.9c-27.6,70.5-84,126.9-154.6,154.6c-6,2.3-12,4.5-18.1,6.4h20.1l11.3,4.7
	l16,16l4.7,11.3v40.9l-4.7,11.3l-16,16l-11.3,4.7H701.7z"/>
<path class="st0" d="M701.7,855.8l-16-16v-40.9l16-16h40.9l16,16v40.9l-16,16H701.7z M619.8,855.8l-16-16v-40.9l16-16h40.9l16,16
	v40.9l-16,16H619.8z M537.9,855.8l-16-16v-40.9l16-16h40.9l16,16v40.9l-16,16H537.9z M640.3,763.6c-51.2,0-100.9-15.1-143.6-43.7
	c-43.8-29.3-77.1-70.7-96.4-119.9l0-11.7c19.1-48.3,51.9-89.3,94.8-118.6c43.1-29.5,93.3-45,145.3-45s102.2,15.6,145.3,45
	c42.9,29.3,75.7,70.4,94.8,118.6l0,11.7c-26,66.4-79.1,119.4-145.6,145.6C704.4,757.5,672.6,763.6,640.3,763.6
	C640.3,763.6,640.3,763.6,640.3,763.6z"/>
<path class="st1" d="M640.3,532.7c-33.9,0-61.4,27.5-61.4,61.4c0,33.9,27.5,61.4,61.4,61.4c33.9,0,61.4-27.5,61.4-61.4
	C701.7,560.2,674.2,532.7,640.3,532.7 M640.3,696.5c-56.5,0-102.4-45.8-102.4-102.4s45.8-102.4,102.4-102.4s102.4,45.8,102.4,102.4
	S696.8,696.5,640.3,696.5 M640.3,440.6c-99.5,0-188.8,61.4-225.2,153.5C464,718.6,604.5,779.6,728.9,730.7
	c62.4-24.6,112-73.9,136.6-136.6C829,502,739.8,440.6,640.3,440.6 M537.9,798.8h40.9v40.9h-40.9V798.8 M619.8,798.8h40.9v40.9h-40.9
	V798.8 M701.7,798.8h40.9v40.9h-40.9V798.8z"/>
</svg>
