<?xml version="1.0" encoding="utf-8"?>
<!-- Generator: Adobe Illustrator 24.1.0, SVG Export Plug-In . SVG Version: 6.00 Build 0)  -->
<svg version="1.1" id="Camada_1" xmlns="http://www.w3.org/2000/svg" xmlns:xlink="http://www.w3.org/1999/xlink" x="0px" y="0px"
	 viewBox="0 0 1280 1280" style="enable-background:new 0 0 1280 1280;" xml:space="preserve">
<style type="text/css">
	.st0{fill:#FFFFFF;}
	.st1{fill:none;stroke:#FFFFFF;stroke-miterlimit:10;}
</style>
<g id="XMLID_573_">
</g>
<g id="XMLID_572_">
</g>
<g id="XMLID_571_">
</g>
<g id="XMLID_570_">
</g>
<g id="XMLID_569_">
</g>
<g id="XMLID_568_">
</g>
<g id="XMLID_567_">
</g>
<g id="XMLID_566_">
</g>
<g id="XMLID_565_">
</g>
<g id="XMLID_563_">
</g>
<g id="XMLID_556_">
</g>
<g id="XMLID_555_">
</g>
<g id="XMLID_554_">
</g>
<g id="XMLID_553_">
</g>
<path class="st0" d="M881.8,446.4h-24c-6.6,0-12,5.4-12,12s5.4,12,12,12h24c6.6,0,12-5.4,12-12S888.4,446.4,881.8,446.4z"/>
<path class="st0" d="M821.7,386.4c-6.6,0-12,5.4-12,12v24c0,6.6,5.4,12,12,12s12-5.4,12-12v-24C833.6,391.8,828.3,386.4,821.7,386.4
	z"/>
<path class="st0" d="M855.5,441.3l17-17c4.7-4.7,4.7-12.3,0-17c-4.7-4.7-12.3-4.7-17,0l-17,17c-4.7,4.7-4.7,12.3,0,17
	C843.3,446,850.9,446,855.5,441.3z"/>
<path class="st0" d="M787.8,441.3c4.7,4.7,12.3,4.7,17,0c4.7-4.7,4.7-12.3,0-17l-17-17c-4.7-4.7-12.3-4.7-17,0
	c-4.7,4.7-4.7,12.3,0,17L787.8,441.3z"/>
<path class="st0" d="M855.7,475.4c-4.7-4.7-12.3-4.7-17,0c-4.7,4.7-4.7,12.3,0,17l17,17c4.7,4.7,12.3,4.7,17,0s4.7-12.3,0-17
	L855.7,475.4z"/>
<path class="st1" d="M925.8,458.4c0-14.6-7.1-27.5-18.1-35.6c0.4-2.3,0.5-4.6,0.5-6.9c0-11.8-4.6-22.8-12.9-31.1
	c-8.3-8.3-19.4-12.9-31.1-12.9c-2.3,0-4.6,0.2-6.9,0.5c-8-10.9-20.9-18-35.5-18c-14.6,0-27.5,7.1-35.5,18c-2.3-0.4-4.6-0.5-6.9-0.5
	c-11.8,0-22.8,4.6-31.1,12.9c-8.3,8.3-12.9,19.4-12.9,31.1c0,11.8,4.6,22.8,12.9,31.1l11.4,11.4l-2.4,2.4l-3.8-3.8
	c-10.6-10.7-24.6-16.5-39.7-16.5c-15,0-29,5.8-39.6,16.4l-2.5,2.5c-25-8.6-51.1-12.9-77.8-12.9c-64.1,0-124.4,25-169.7,70.3
	c-45.3,45.3-70.3,105.6-70.3,169.7c0,64.1,25,124.4,70.3,169.7c45.3,45.3,105.6,70.2,169.7,70.2c64.1,0,124.4-25,169.7-70.3
	c45.3-45.3,70.3-105.6,70.3-169.7c0-26.7-4.3-52.9-12.9-77.8l2.4-2.4c10.6-10.5,16.5-24.5,16.5-39.5c0-15-5.8-29.1-16.4-39.8
	l-3.9-3.9l2.3-2.3l11.2,11.2c8.3,8.3,19.4,12.9,31.1,12.9c11.8,0,22.8-4.6,31.1-12.9c8.3-8.3,12.9-19.4,12.9-31.1
	c0-2.3-0.2-4.7-0.5-6.9C918.6,486,925.8,473,925.8,458.4z"/>
<path class="st1" d="M909.8,458.4c0-13.4-9.4-24.6-22-27.4c2.9-4.5,4.4-9.7,4.4-15.1c0-7.5-2.9-14.5-8.2-19.8
	c-5.3-5.3-12.3-8.2-19.8-8.2c-5.4,0-10.6,1.5-15.1,4.4c-2.8-12.5-14-21.9-27.3-21.9c-13.3,0-24.5,9.4-27.3,21.9
	c-4.5-2.9-9.7-4.4-15.1-4.4c-7.5,0-14.5,2.9-19.8,8.2c-5.3,5.3-8.2,12.3-8.2,19.8c0,7.5,2.9,14.5,8.2,19.8l17,17
	c2,2,4.2,3.6,6.5,4.9l-25.9,25.9l-15.1-15.1c-7.5-7.6-17.6-11.8-28.3-11.8c-10.7,0-20.7,4.2-28.3,11.7l-9.8,9.8
	c-26.1-10.3-53.6-15.5-81.9-15.5c-59.8,0-116.1,23.3-158.4,65.6c-42.3,42.3-65.6,98.6-65.6,158.4c0,59.8,23.3,116.1,65.6,158.4
	c42.3,42.3,98.5,65.5,158.4,65.5c59.8,0,116.1-23.3,158.4-65.6c42.3-42.3,65.6-98.6,65.6-158.4c0-28.3-5.2-55.8-15.5-81.9l9.7-9.7
	c7.6-7.5,11.8-17.5,11.8-28.2c0-10.7-4.1-20.8-11.7-28.4l-15.2-15.2l25.7-25.7c1.3,2.3,2.8,4.4,4.7,6.3l17,17
	c5.3,5.3,12.3,8.2,19.8,8.2c7.5,0,14.5-2.9,19.8-8.2c5.3-5.3,8.2-12.3,8.2-19.8c0-5.5-1.6-10.7-4.4-15.1
	C900.3,483,909.8,471.8,909.8,458.4z"/>
<path class="st0" d="M800.8,549.6l-26.5-26.5l52-52l-17.1-17l-52,52l-26.5-26.5c-9.3-9.4-24.5-9.4-33.9,0L679.4,497
	c-26.1-11.8-55.1-18.4-85.6-18.4c-114.9,0-208,93.1-208,208c0,114.9,93.1,207.9,208,207.9s208-93.1,208-208
	c0-30.5-6.6-59.5-18.4-85.6l17.4-17.4C810.2,574.2,810.2,559,800.8,549.6z M633.1,725.1c-8.1,10.8-16.1,20.8-22.8,26.2
	c-8.2,6.6-14.7,6.6-21.3,6.6l7.4-29.4c-31.9-2.1-60.5-15.7-68.7-33.5c-0.9,4.7-2.2,9-4.1,12.3c-6.5,11.5-19.6,11.5-32.6,11.5
	c10.8,0,14.7-15.4,14.7-34.3c0-18.9-3.9-34.3-14.7-34.3c13,0,26.2,0,32.6,11.5c2,3.2,3.2,7.5,4.1,12.3c6.4-13.9,25.2-25.2,48.1-30.4
	l-16.3-32.5c19.6,0,39.2,0,52.2,6.6c11.1,5.5,17.4,15.7,23.1,26.6c28.6,6.9,52,22.3,52,40.4C687,702.7,662.5,718.6,633.1,725.1z"/>
<path class="st0" d="M637.4,677.8c0,5.4,4.4,9.8,9.8,9.8c5.3,0,9.7-4.2,9.8-9.5l-18.5-4.8C637.8,674.6,637.4,676.1,637.4,677.8z"/>
</svg>
