<?xml version="1.0" encoding="utf-8"?>
<!-- Generator: Adobe Illustrator 24.1.0, SVG Export Plug-In . SVG Version: 6.00 Build 0)  -->
<svg version="1.1" id="Camada_1" xmlns="http://www.w3.org/2000/svg" xmlns:xlink="http://www.w3.org/1999/xlink" x="0px" y="0px"
	 viewBox="0 0 1280 1280" style="enable-background:new 0 0 1280 1280;" xml:space="preserve">
<style type="text/css">
	.st0{fill:none;stroke:#FFFFFF;stroke-miterlimit:10;}
	.st1{fill:#FFFFFF;}
</style>
<g id="XMLID_573_">
</g>
<g id="XMLID_572_">
</g>
<g id="XMLID_571_">
</g>
<g id="XMLID_570_">
</g>
<g id="XMLID_569_">
</g>
<g id="XMLID_568_">
</g>
<g id="XMLID_567_">
</g>
<g id="XMLID_566_">
</g>
<g id="XMLID_565_">
</g>
<g id="XMLID_563_">
</g>
<g id="XMLID_556_">
</g>
<g id="XMLID_555_">
</g>
<g id="XMLID_554_">
</g>
<g id="XMLID_553_">
</g>
<path class="st0" d="M473.3,891.5c-17.5,0-33.2-9.7-41-25.3L420,841.4c-5.5-10.9-6.4-23.4-2.5-35c3.9-11.6,12-21,23-26.5l63.8-31
	l-63.8-31c-22.6-11.3-31.8-38.9-20.5-61.5l12.4-24.7c7.8-15.6,23.5-25.3,41-25.3c7,0,14,1.6,20.3,4.7l38.1,18.5
	c-9.9-8.7-18.5-18.6-25.5-29.2c-14.4-21.9-21.9-47-21.9-72.6c0-78.6,70.2-142.6,156.4-142.6S797,449.2,797,527.8
	c0,25.6-7.6,50.7-21.9,72.6c-7,10.6-15.6,20.5-25.5,29.2l38.1-18.5c6.3-3.1,13.3-4.7,20.3-4.7c17.5,0,33.2,9.7,41,25.3l12.4,24.7
	c5.5,10.9,6.4,23.3,2.5,35c-3.9,11.6-12,21-23,26.5l-63.8,31l63.8,31c22.6,11.3,31.8,38.9,20.5,61.5l-12.4,24.7
	c-7.8,15.6-23.5,25.3-41,25.3c-7,0-14-1.6-20.3-4.7l-147-71.5l-147,71.5C487.3,889.9,480.3,891.5,473.3,891.5z"/>
<path class="st0" d="M473.3,875.5c-11.4,0-21.6-6.3-26.7-16.5l-12.4-24.7c-3.6-7.1-4.1-15.2-1.6-22.8c2.5-7.6,7.8-13.7,15-17.2
	l93.2-45.3l-93.2-45.3c-14.7-7.4-20.7-25.3-13.3-40l12.4-24.7c5.1-10.2,15.3-16.5,26.7-16.5c4.6,0,9.1,1.1,13.2,3.1l70.7,34.4
	c-1.9-5.9-2.3-12.4-1-18.6l2.4-11.1c-15.8-10.3-29.2-23.4-39.1-38.5c-12.6-19.3-19.3-41.3-19.3-63.8c0-69.8,63-126.6,140.4-126.6
	S781,458,781,527.8c0,22.5-6.7,44.5-19.3,63.8c-9.9,15.1-23.3,28.2-39.1,38.5l2.4,11.1c1.3,6.3,0.9,12.7-1,18.6l70.7-34.4
	c4.1-2,8.7-3.1,13.2-3.1c11.4,0,21.6,6.3,26.7,16.5l12.4,24.7c3.6,7.1,4.1,15.2,1.6,22.7c-2.5,7.6-7.8,13.7-15,17.3l-93.2,45.3
	l93.2,45.3c14.7,7.4,20.7,25.3,13.3,40L834.6,859c-5.1,10.2-15.3,16.5-26.7,16.5c0,0,0,0,0,0c-4.6,0-9.1-1.1-13.2-3.1l-154.1-74.9
	l-154.1,74.9C482.5,874.4,477.9,875.5,473.3,875.5z M689,530c-6.4,0-11.6,5.2-11.6,11.6c0,6.4,5.2,11.6,11.6,11.6
	s11.6-5.2,11.6-11.6C700.6,535.2,695.4,530,689,530z M592.2,530c-6.4,0-11.6,5.2-11.6,11.6c0,6.4,5.2,11.6,11.6,11.6
	c6.4,0,11.6-5.2,11.6-11.6C603.9,535.2,598.7,530,592.2,530z"/>
<path class="st1" d="M826.5,808.6l-122.6-59.7l122.7-59.7c6.8-3.4,9.6-11.7,6.2-18.5L820.3,646c-3.4-6.8-11.7-9.6-18.5-6.2
	l-161.1,78.4l-161.1-78.4c-6.8-3.4-15.1-0.6-18.5,6.2l-12.4,24.7c-3.4,6.8-0.6,15.1,6.2,18.5l122.7,59.7l-122.6,59.7
	c-6.8,3.4-9.6,11.7-6.2,18.5l12.4,24.7c3.4,6.8,11.7,9.6,18.5,6.2l161.1-78.4L801.7,858c6.8,3.4,15.1,0.6,18.5-6.2l12.4-24.7
	C836.1,820.3,833.3,812,826.5,808.6z M576.7,622.2l-4.7,22.3c-2.3,10.9,4.7,21.5,14.2,21.5h108.9c9.5,0,16.5-10.6,14.2-21.5
	l-4.8-22.3c36.1-19.4,60.5-54.2,60.5-94.4c0-61.1-55.7-110.6-124.4-110.6s-124.4,49.5-124.4,110.6
	C516.2,568,540.6,602.8,576.7,622.2z M689,514c15.2,0,27.6,12.4,27.6,27.6c0,15.2-12.4,27.6-27.6,27.6c-15.2,0-27.6-12.4-27.6-27.6
	C661.4,526.4,673.7,514,689,514z M592.2,514c15.2,0,27.6,12.4,27.6,27.6c0,15.2-12.4,27.6-27.6,27.6c-15.2,0-27.6-12.4-27.6-27.6
	C564.6,526.4,577,514,592.2,514z"/>
</svg>
