<?xml version="1.0" encoding="utf-8"?>
<!-- Generator: Adobe Illustrator 24.1.0, SVG Export Plug-In . SVG Version: 6.00 Build 0)  -->
<svg version="1.1" id="Camada_1" xmlns="http://www.w3.org/2000/svg" xmlns:xlink="http://www.w3.org/1999/xlink" x="0px" y="0px"
	 viewBox="0 0 1280 1280" style="enable-background:new 0 0 1280 1280;" xml:space="preserve">
<style type="text/css">
	.st0{fill:none;stroke:#FFFFFF;stroke-miterlimit:10;}
	.st1{fill:#FFFFFF;}
</style>
<g id="XMLID_573_">
</g>
<g id="XMLID_572_">
</g>
<g id="XMLID_571_">
</g>
<g id="XMLID_570_">
</g>
<g id="XMLID_569_">
</g>
<g id="XMLID_568_">
</g>
<g id="XMLID_567_">
</g>
<g id="XMLID_566_">
</g>
<g id="XMLID_565_">
</g>
<g id="XMLID_563_">
</g>
<g id="XMLID_556_">
</g>
<g id="XMLID_555_">
</g>
<g id="XMLID_554_">
</g>
<g id="XMLID_553_">
</g>
<path class="st0" d="M532.4,842.9c-50.9,0-96.6-32.3-113.6-80.3c-22.1-62.6,10.8-131.6,73.4-153.7c13-4.6,26.5-6.9,40.1-6.9
	c3.9,0,7.8,0.2,11.6,0.6l-9.8-9.8l-4.7-11.3l0-11.9l-11.9,0l-11.3-4.7l-27.7-27.7l-4.7-11.3l0-22.6l4.7-11.3
	c43.2-43.2,100.5-66.9,161.6-66.9c61,0,118.4,23.8,161.6,66.9l4.7,11.3l0,22.6l-4.7,11.3l-27.7,27.7l-11.3,4.7h-11.9l0,11.9
	l-4.7,11.3l-27.7,27.7l-11.3,4.7h-22.6l-11.3-4.7l-0.1-0.1c-8.8-8.8-20.5-13.6-32.9-13.6c-12.5,0-24.2,4.9-33,13.7l-6.7,2.8
	c14.3,9.8,26.5,22.6,35.5,37.7h200.7l11.3,4.7l16,16l4.7,11.3v59l-4.7,11.3l-16,16l-11.3,4.7h-46.6v27l-4.7,11.3l-16,16l-11.3,4.7
	h-59l-11.3-4.7l-16-16l-4.7-11.3v-27h-31.1c-14.3,24.2-36.5,42.6-63.5,52.1C559.6,840.5,546.1,842.9,532.4,842.9z"/>
<path class="st0" d="M532.4,826.9c-44.2,0-83.7-28-98.5-69.7c-19.2-54.3,9.4-114.1,63.7-133.3c11.3-4,23-6,34.8-6
	c40.3,0,76.7,23.3,94,59h210.3l16,16v59l-16,16h-62.6v43l-16,16h-59l-16-16v-43h-56.7c-11.9,24.7-33,43.7-59.2,53
	C556,824.9,544.3,826.9,532.4,826.9z M684.5,609.1L684.5,609.1c-11.9-11.9-27.6-18.4-44.3-18.4c-16.7,0-32.5,6.5-44.3,18.4l-22.6,0
	l-27.7-27.7l0-22.6c25.3-25.3,58.9-39.2,94.6-39.2c0,0,0,0,0,0c35.7,0,69.4,13.9,94.6,39.2l0,22.6l-27.7,27.7H684.5z M740.1,553.5
	l-0.1-0.1c-26.7-26.6-62.1-41.3-99.8-41.3c-37.8,0-73.2,14.7-99.9,41.4l-22.6,0l-27.7-27.7l0-22.6c40.1-40.1,93.5-62.2,150.3-62.2
	c56.8,0,110.1,22.1,150.3,62.2l0,22.6l-27.7,27.7H740.1z"/>
<path class="st1" d="M501.2,514.5l27.7,27.7c61.4-61.4,160.9-61.5,222.4-0.1c0,0,0.1,0.1,0.1,0.1l27.7-27.7
	C702.4,437.7,578,437.7,501.2,514.5 M556.9,570.1l27.7,27.7c30.7-30.7,80.5-30.7,111.2-0.1c0,0,0,0,0.1,0.1l27.7-27.7
	C677.5,524.1,602.9,524.1,556.9,570.1 M615.8,692.9C599.6,646.9,549,622.7,503,639c-46.1,16.3-70.2,66.8-53.9,112.9
	c16.3,46.1,66.8,70.2,112.9,53.9c25.2-8.9,45-28.7,53.9-53.9h83.3v59h59v-59h78.6v-59 M532.1,751.9c-16.3,0-29.5-13.2-29.5-29.5
	s13.2-29.5,29.5-29.5c16.3,0,29.5,13.2,29.5,29.5S548.4,751.9,532.1,751.9z"/>
</svg>
