<?xml version="1.0" encoding="utf-8"?>
<!-- Generator: Adobe Illustrator 24.1.0, SVG Export Plug-In . SVG Version: 6.00 Build 0)  -->
<svg version="1.1" xmlns="http://www.w3.org/2000/svg" xmlns:xlink="http://www.w3.org/1999/xlink" x="0px" y="0px"
	 viewBox="0 0 1280 1280" style="enable-background:new 0 0 1280 1280;" xml:space="preserve">
<style type="text/css">
	.st0{fill:#FFFFFF;}
	.st1{fill:none;stroke:#FFFFFF;stroke-miterlimit:10;}
</style>
<g id="Camada_1">
	<g id="XMLID_573_">
	</g>
	<g id="XMLID_572_">
	</g>
	<g id="XMLID_571_">
	</g>
	<g id="XMLID_570_">
	</g>
	<g id="XMLID_569_">
	</g>
	<g id="XMLID_568_">
	</g>
	<g id="XMLID_567_">
	</g>
	<g id="XMLID_566_">
	</g>
	<g id="XMLID_565_">
	</g>
	<g id="XMLID_563_">
	</g>
	<g id="XMLID_556_">
	</g>
	<g id="XMLID_555_">
	</g>
	<g id="XMLID_554_">
	</g>
	<g id="XMLID_553_">
	</g>
</g>
<g id="Camada_2">
	<g>
		<path class="st0" d="M751.5,827.3c-13.4,0-24.3-10.9-24.3-24.3v-26.9c0-6.5,2.5-12.6,7.1-17.2l49.3-49.3
			c-0.9-4.6-1.3-9.4-1.3-14.1c0-20.6,8.2-39.4,21.5-53.1v-74c0-24.4-19.8-44.2-44.2-44.2h-22.1v-44.2c0-61-49.5-110.5-110.5-110.5
			c-61,0-110.5,49.5-110.5,110.5v44.2h-22.1c-24.3,0-44.2,19.7-44.2,44.2v220.9c0,24.4,19.8,44.2,44.2,44.2h265.1
			c8.3,0,16.1-2.3,22.7-6.3H751.5z M627.1,723.1c-24.4,0-44.2-19.8-44.2-44.2s19.8-44.2,44.2-44.2c24.3,0,44.2,19.7,44.2,44.2
			C671.2,703.3,651.5,723.1,627.1,723.1z M693.3,524.3H560.8v-44.2c0-36.6,29.7-66.3,66.3-66.3c36.6,0,66.3,29.7,66.3,66.3V524.3z"
			/>
		<path class="st1" d="M924.4,630.1C907,612.6,883.7,603,858.9,603c-8,0-15.7,1-23.1,2.9v-37.4c0-38.7-28.9-70.7-66.3-75.5v-12.8
			c0-78.6-63.9-142.5-142.5-142.5s-142.5,63.9-142.5,142.5v12.8c-37.3,4.9-66.3,36.9-66.3,75.5v220.9c0,42,34.2,76.2,76.2,76.2
			h265.1c13.8,0,27.4-3.8,39.2-10.9l5.6-14.2c10.2-4,18.5-12.1,22.8-22.3c10.2-4.1,18.3-12.3,22.3-22.6c4.1-1.8,8-4.4,11.3-7.5
			c50.2-1,90.7-42.2,90.7-92.6C951.5,670.8,941.9,647.5,924.4,630.1z"/>
		<path class="st1" d="M913.1,641.4c-14.4-14.4-33.7-22.4-54.2-22.4c-14.3,0-27.6,3.9-39.1,10.8v-61.3c0-33.2-27-60.2-60.2-60.2
			h-6.1v-28.2c0-69.7-56.7-126.5-126.5-126.5s-126.5,56.7-126.5,126.5v28.2h-6.1c-33.2,0-60.2,27-60.2,60.2v220.9
			c0,33.2,27,60.2,60.2,60.2h265.1c10.9,0,21.7-3,31-8.6l-3.8-13.7h3.2c12.7,0,23.1-9.7,24.2-22.1c11.7-1,21.1-10.4,22.1-22.1
			c5.8-0.7,11.1-3.5,15-7.9l2.7-3c1.6,0.1,3.3,0.2,4.9,0.2c42.2,0,76.6-34.4,76.6-76.6C935.5,675.1,927.6,655.8,913.1,641.4z"/>
		<path class="st0" d="M919.5,695.6c0,33.5-27.1,60.6-60.6,60.6c-3.9,0-7.6-0.4-11.3-1.1l-8.3,9.3c-1.6,1.8-3.8,2.8-6.2,2.8h-12.8
			V781c0,4.6-3.7,8.3-8.3,8.3h-13.8V803c0,4.6-3.7,8.3-8.3,8.3h-38.6c-4.6,0-8.3-3.7-8.3-8.3v-26.9c0-2.2,0.9-4.3,2.4-5.8l55.7-55.7
			c-2-6-3-12.4-3-19c0-33.5,27.1-60.6,60.6-60.6C892.5,635,919.5,662,919.5,695.6z M858.9,679c0,9.1,7.4,16.5,16.5,16.5
			S892,688.2,892,679s-7.4-16.5-16.5-16.5S858.9,669.9,858.9,679z"/>
	</g>
</g>
</svg>
