<?xml version="1.0" encoding="utf-8"?>
<!-- Generator: Adobe Illustrator 24.1.0, SVG Export Plug-In . SVG Version: 6.00 Build 0)  -->
<svg version="1.1" id="Camada_1" xmlns="http://www.w3.org/2000/svg" xmlns:xlink="http://www.w3.org/1999/xlink" x="0px" y="0px"
	 viewBox="0 0 1280 1280" style="enable-background:new 0 0 1280 1280;" xml:space="preserve">
<style type="text/css">
	.st0{fill:none;stroke:#FFFFFF;stroke-miterlimit:10;}
	.st1{fill:none;stroke:#000000;stroke-miterlimit:10;}
	.st2{fill:#FFFFFF;}
</style>
<g>
	<path class="st0" d="M1734.3,913c-44.1,0-80-35.9-80-80V481c0-44.1,35.9-80,80-80h416c44.1,0,80,35.9,80,80v352
		c0,44.1-35.9,80-80,80H1734.3z"/>
	<path class="st1" d="M1734.3,897c-35.3,0-64-28.7-64-64V481c0-35.3,28.7-64,64-64h416c35.3,0,64,28.7,64,64v352
		c0,35.3-28.7,64-64,64H1734.3z"/>
	<path class="st0" d="M1734.3,897c-35.3,0-64-28.7-64-64V481c0-35.3,28.7-64,64-64h416c35.3,0,64,28.7,64,64v352
		c0,35.3-28.7,64-64,64H1734.3z"/>
	<path class="st0" d="M1959,774.6c-3.8,0-7.6-0.9-11-2.4c-3.4,1.6-7.1,2.4-10.9,2.5l-19.4,0c-14.4,0-26.1-11.7-26.1-26.1v-8
		c-2.4-1.5-4.5-3.3-6.4-5.5l-4.4-5.3c-8.9-10.7-7.4-26.8,3.4-35.7L1928,658c5.6-4.6,12.8-7.2,20.1-7.2c4.1,0,8.2,0.8,12,2.4
		c3.3-1.6,7-2.4,10.7-2.4h9.6c14,0,25.4,11.4,25.4,25.4v12.9l5.9,4.9c10.8,8.9,12.4,24.9,3.5,35.7l-4.4,5.3c-1.8,2.2-4,4.1-6.4,5.5
		v8c0,14.4-11.7,26.1-26.1,26.1L1959,774.6z"/>
	<path class="st1" d="M1959.1,762.9c-4.4,0-8.4-2-11-5.1c-2.6,3.1-6.6,5.1-11,5.1l-19.3,0c-8,0-14.4-6.5-14.4-14.4v-16
		c-3.5-0.4-6.7-2.1-9-4.9l-4.4-5.3c-4.8-5.8-4-14.5,1.8-19.3l43.6-35.9c3.6-2.9,8.1-4.5,12.7-4.5c4.6,0,9.1,1.6,12.6,4.5
		c2.5-2.8,6.1-4.5,10.1-4.5h9.6c7.6,0,13.7,6.2,13.7,13.7v18.4l10.2,8.4c5.8,4.8,6.7,13.5,1.9,19.3l-4.4,5.3c-2.3,2.8-5.5,4.5-9,4.9
		v16c0,7.9-6.5,14.4-14.4,14.4L1959.1,762.9z"/>
	<path class="st0" d="M1959.1,762.9c-4.4,0-8.4-2-11-5.1c-2.6,3.1-6.6,5.1-11,5.1l-19.3,0c-8,0-14.4-6.5-14.4-14.4v-16
		c-3.5-0.4-6.7-2.1-9-4.9l-4.4-5.3c-4.8-5.8-4-14.5,1.8-19.3l43.6-35.9c3.6-2.9,8.1-4.5,12.7-4.5c4.6,0,9.1,1.6,12.6,4.5
		c2.5-2.8,6.1-4.5,10.1-4.5h9.6c7.6,0,13.7,6.2,13.7,13.7v18.4l10.2,8.4c5.8,4.8,6.7,13.5,1.9,19.3l-4.4,5.3c-2.3,2.8-5.5,4.5-9,4.9
		v16c0,7.9-6.5,14.4-14.4,14.4L1959.1,762.9z"/>
	<path class="st2" d="M1946.8,694.2l-31.8,26.2v28.2c0,1.5,1.2,2.8,2.8,2.8l19.3,0c1.5,0,2.7-1.2,2.7-2.8V732c0-1.5,1.2-2.8,2.8-2.8
		h11c1.5,0,2.8,1.2,2.8,2.8v16.5c0,1.5,1.2,2.8,2.7,2.8c0,0,0,0,0,0l19.3,0.1c1.5,0,2.8-1.2,2.8-2.8v-28.3l-31.8-26.1
		C1948.6,693.6,1947.5,693.6,1946.8,694.2L1946.8,694.2z M1996.9,712l-14.4-11.9v-23.9c0-1.1-0.9-2.1-2.1-2.1h-9.6
		c-1.1,0-2.1,0.9-2.1,2.1v12.5l-15.4-12.7c-3.1-2.5-7.5-2.5-10.5,0l-43.6,35.9c-0.9,0.7-1,2-0.3,2.9c0,0,0,0,0,0l4.4,5.3
		c0.7,0.9,2,1,2.9,0.3c0,0,0,0,0,0l40.5-33.4c0.8-0.6,1.9-0.6,2.6,0l40.5,33.4c0.9,0.7,2.2,0.6,2.9-0.3c0,0,0,0,0,0l4.4-5.3
		C1998,714,1997.8,712.7,1996.9,712C1996.9,712,1996.9,712,1996.9,712L1996.9,712z"/>
	<path class="st2" d="M2150.3,433h-416c-26.5,0-48,21.5-48,48v352c0,26.5,21.5,48,48,48h416c26.5,0,48-21.5,48-48V481
		C2198.3,454.5,2176.8,433,2150.3,433z M2100.3,492.1h0.3c27.4,0,49.6,22.1,49.6,49.6v0.3h-6.2v-0.3c0-24-19.3-43.3-43.7-43.3V492.1
		z M2100.3,504.6c20.7,0,37.4,16.8,37.4,37.4h-6.2c0-17.2-14-31.2-31.2-31.2V504.6z M2100.3,517.1c13.8,0,24.9,11.2,24.9,24.9h-6.2
		c0-10.3-8.4-18.7-18.7-18.7V517.1z M2100.3,529.5c6.9,0,12.5,5.6,12.5,12.5h-12.5V529.5z M2150.3,827c0,3.3-2.7,6-6,6h-404
		c-3.3,0-6-2.7-6-6V593h416V827z"/>
</g>
<g>
	<path class="st0" d="M714.7,883l-141.4,0l-110.8,0.3c-30.2,0-54.7-24.5-54.7-54.6v-85.5c-6.4,2.9-13.4,4.4-20.5,4.4
		c-15.2,0-29.4-6.7-39.1-18.4l-25.7-31.2c-8.6-10.4-12.6-23.5-11.3-37c1.3-13.4,7.7-25.6,18.1-34.2l255.3-210.3
		c15.5-12.8,35.1-19.8,55.2-19.8c20.1,0,39.7,7,55.2,19.8l28,23c3.7-24.2,24.7-42.8,50-42.8h56.5c27.9,0,50.6,22.7,50.6,50.6v121.6
		l70.4,58c10.4,8.6,16.9,20.7,18.2,34.1c1.3,13.4-2.7,26.6-11.3,37l-25.7,31.3l-0.1,0l0,0.1c-9.6,11.6-23.8,18.3-39,18.3
		c-7.1,0-14.2-1.5-20.6-4.4v85.5c0,30.1-24.5,54.6-54.6,54.6L714.7,883z"/>
	<path class="st0" d="M714.7,863.8l-141.5,0l-110.8,0.3c-19.5,0-35.4-15.9-35.4-35.4V704.9l-19.8,16.3c-5.6,4.6-12.7,7.2-19.9,7.2
		c-9.4,0-18.2-4.2-24.2-11.4l-25.7-31.2c-5.3-6.4-7.8-14.6-7-22.9c0.8-8.3,4.8-15.9,11.2-21.2l255.3-210.3
		c12.1-9.9,27.3-15.4,43-15.4c15.6,0,30.9,5.5,43,15.4l58.9,48.4v-32.5c0-17.3,14.1-31.3,31.3-31.3h56.5c17.3,0,31.3,14.1,31.3,31.3
		v130.6l77.3,63.8c6.5,5.3,10.5,12.8,11.3,21.2c0.8,8.3-1.7,16.5-7,22.9L916.7,717l-0.2-0.2l0,0l0.2,0.2c-6,7.2-14.8,11.4-24.1,11.4
		c-7.3,0-14.4-2.6-20-7.2l-19.9-16.4v123.9c0,19.5-15.9,35.4-35.4,35.4L714.7,863.8z"/>
	<path class="st2" d="M925.9,656.5C925.9,656.5,925.9,656.4,925.9,656.5L925.9,656.5l-84.4-69.5V447.2c0-6.7-5.4-12.1-12.1-12.1H773
		c-6.7,0-12.1,5.4-12.1,12.1v73.2l-90.3-74.3c-17.9-14.7-43.7-14.7-61.5,0L353.8,656.4c-5.2,4.3-5.9,11.9-1.6,17c0,0,0,0,0,0
		l25.7,31.3c4.2,5.2,11.9,5.9,17,1.7c0,0,0,0,0,0l51.3-42.2v164.6c0,8.9,7.2,16.1,16.1,16.1l110.9-0.3v0h141.5l102.6,0.3
		c8.9,0,16.1-7.2,16.1-16.1V664.1l51.3,42.3c5.1,4.3,12.8,3.5,17-1.6c0,0,0,0,0,0l25.7-31.3C931.8,668.3,931.1,660.7,925.9,656.5z
		 M639.9,787.6l-40.1-53.5c11.1-8.4,25.1-13.4,40.1-13.4c15,0,29,5,40.1,13.4L639.9,787.6z M700,707.4c-16.7-12.6-37.5-20-60.1-20
		c-22.6,0-43.4,7.5-60.1,20l-20-26.7c22.4-16.8,50.1-26.7,80.2-26.7c30.1,0,57.8,9.9,80.2,26.7L700,707.4z M740.1,653.9
		c-27.8-20.9-62.6-33.4-100.2-33.4c-37.6,0-72.4,12.5-100.2,33.4l-20-26.7c33.5-25.2,75.2-40.1,120.3-40.1s86.8,14.9,120.3,40.1
		L740.1,653.9z"/>
</g>
</svg>
