<?xml version="1.0" encoding="utf-8"?>
<!-- Generator: Adobe Illustrator 24.1.0, SVG Export Plug-In . SVG Version: 6.00 Build 0)  -->
<svg version="1.1" id="Camada_1" xmlns="http://www.w3.org/2000/svg" xmlns:xlink="http://www.w3.org/1999/xlink" x="0px" y="0px"
	 viewBox="0 0 1280 1280" style="enable-background:new 0 0 1280 1280;" xml:space="preserve">
<style type="text/css">
	.st0{fill:none;}
	.st1{fill:#FFFFFF;}
	.st2{fill:none;stroke:#FFFFFF;stroke-miterlimit:10;}
</style>
<g>
	<path class="st0" d="M764.9,761.5l-11.3-4.7l-16-16l-4.7-11.3v-29.2c0-33.8,27.5-61.2,61.2-61.2s61.2,27.5,61.2,61.2v29.2
		l-4.7,11.3l-16,16l-11.3,4.7H764.9z"/>
	<path class="st0" d="M764.9,745.5l-16-16v-29.2c0-24.9,20.3-45.2,45.2-45.2s45.2,20.3,45.2,45.2v29.2l-16,16H764.9z"/>
	<path class="st0" d="M794.1,671.1c-16.1,0-29.2,13.1-29.2,29.2v29.2h58.4v-29.2C823.3,684.2,810.2,671.1,794.1,671.1z"/>
	<rect x="608.3" y="433.9" class="st1" width="191.5" height="106.4"/>
	<path class="st1" d="M693.4,667.9h24.7c10.8-29.9,39.5-51.2,73-51.2c10.6,0,20.7,2.1,29.9,6v-61.1H693.4V667.9z"/>
	<rect x="544.4" y="561.5" class="st1" width="127.6" height="106.4"/>
	<rect x="416.8" y="689.2" class="st1" width="191.5" height="106.4"/>
	<path class="st1" d="M713.4,694.3c0-1.7,0.1-3.4,0.2-5.1h-84.1v106.4h54.7V743c0-17.4,12.6-32,29.2-34.9L713.4,694.3L713.4,694.3z"
		/>
	<rect x="416.8" y="433.9" class="st1" width="170.2" height="106.4"/>
	<rect x="395.5" y="561.5" class="st1" width="127.6" height="106.4"/>
	<path class="st2" d="M887.8,702.6v-2.3c0-30.2-14.4-57.1-36.6-74.2l1.8-3.4v-61.1l-4.7-11.3l-16-16l-0.6-0.2V433.9l-4.7-11.3
		l-16-16l-11.3-4.7H608.3l-10.6,4.4l-10.6-4.4H416.8l-11.3,4.7l-16,16l-4.7,11.3V534l-0.6,0.2l-16,16l-4.7,11.3v106.4l4.7,11.3
		l16,16l0.6,0.2v100.1l4.7,11.3l16,16l11.3,4.7h191.5l10.6-4.4l10.6,4.4h41.7c0.3,28.1,23.3,50.8,51.5,50.8h142.8
		c28.4,0,51.5-23.1,51.5-51.5V749C917,728.8,905.3,711,887.8,702.6z M629.5,657.2l-10.6,4.4l-10.6-4.4h-53.1v-84.9H587l10.6-4.4
		l10.6,4.4h53.1v84.9H629.5z"/>
	<path class="st2" d="M871.8,714.1v-13.8c0-31.3-18.6-58.3-45.4-70.6l10.6-7.1v-61.1l-16-16h-10.5l5.3-5.3V433.9l-16-16H608.3
		l-10.6,10.6L587,417.9H416.8l-16,16v106.4l5.3,5.3h-10.5l-16,16V668l16,16h10.6l-5.3,5.3v106.4l16,16h191.5l10.6-10.6l10.6,10.6
		h54.7l3-3v18.4c0,19.6,15.9,35.5,35.5,35.5h142.8c19.6,0,35.5-15.9,35.5-35.5V749C901,731.6,888.4,717.1,871.8,714.1z M807.3,713.5
		h-26.4v-13.2c0-7.3,5.9-13.2,13.2-13.2s13.2,5.9,13.2,13.2V713.5z"/>
	<path class="st1" d="M865.5,729.5h-9.7v-29.2c0-34-27.7-61.7-61.7-61.7s-61.7,27.7-61.7,61.7v29.2h-9.7c-10.8,0-19.5,8.7-19.5,19.5
		v77.9c0,10.8,8.7,19.5,19.5,19.5h142.8c10.8,0,19.5-8.7,19.5-19.5V749C885,738.3,876.3,729.5,865.5,729.5z M823.3,729.5h-58.4
		v-29.2c0-16.1,13.1-29.2,29.2-29.2c16.1,0,29.2,13.1,29.2,29.2V729.5z"/>
</g>
</svg>
