<?xml version="1.0" encoding="utf-8"?>
<!-- Generator: Adobe Illustrator 24.1.0, SVG Export Plug-In . SVG Version: 6.00 Build 0)  -->
<svg version="1.1" xmlns="http://www.w3.org/2000/svg" xmlns:xlink="http://www.w3.org/1999/xlink" x="0px" y="0px"
	 viewBox="0 0 1280 1280" style="enable-background:new 0 0 1280 1280;" xml:space="preserve">
<style type="text/css">
	.st0{fill:none;stroke:#FFFFFF;stroke-miterlimit:10;}
	.st1{fill:#FFFFFF;}
</style>
<g id="Camada_1">
	<g id="XMLID_573_">
	</g>
	<g id="XMLID_572_">
	</g>
	<g id="XMLID_571_">
	</g>
	<g id="XMLID_570_">
	</g>
	<g id="XMLID_569_">
	</g>
	<g id="XMLID_568_">
	</g>
	<g id="XMLID_567_">
	</g>
	<g id="XMLID_566_">
	</g>
	<g id="XMLID_565_">
	</g>
	<g id="XMLID_563_">
	</g>
	<g id="XMLID_556_">
	</g>
	<g id="XMLID_555_">
	</g>
	<g id="XMLID_554_">
	</g>
	<g id="XMLID_553_">
	</g>
</g>
<g id="Camada_2">
	<g>
		<path class="st0" d="M659.5,868.3l-3.9-0.5c-62.6-15.6-119.7-54.7-160.8-110C454.3,703.4,432,637.1,432,570.9V438l2.6-8.7
			l9.5-14.6l6.9-5.9l199.4-88.6l6.5-1.4h13l6.5,1.4l199.4,88.6l6.9,5.9l9.5,14.6l2.6,8.7v132.9c0,66.1-22.3,132.5-62.8,186.9
			c-41.1,55.3-98.3,94.3-160.8,110l-3.9,0.5H659.5z"/>
		<path class="st0" d="M659.5,852.3c-59-14.7-112.9-51.7-151.9-104C469.2,696.6,448,633.6,448,570.9V438l9.5-14.6l199.4-88.6h13
			l199.4,88.6l9.5,14.6v132.9c0,62.7-21.2,125.7-59.7,177.4c-38.9,52.3-92.9,89.3-151.9,104H659.5z"/>
		<path class="st1" d="M641.2,615.3h44.3v22.2h-44.3V615.3 M862.8,438v132.9c0,121.9-84.2,237.1-199.4,265.9
			C548.2,808,464,692.8,464,570.9V438l199.4-88.6L862.8,438 M774.1,548.8h-48.7c-4.4-13.3-13.3-24.4-24.4-33.2l26.6-26.6l-15.5-15.5
			l-31,31h-17.7c-4.4,0-11.1,0-15.5,2.2l-31-33.2l-17.7,17.7l26.6,26.6c-11.1,6.6-19.9,17.7-24.4,31h-48.7v22.2h44.3v22.2h-44.3
			v22.2h44.3v22.2h-44.3v22.2h48.7c8.9,26.6,33.2,44.3,62,44.3s53.2-17.7,62-44.3h48.7v-22.2h-44.3v-22.2h44.3v-22.2h-44.3v-22.2
			h44.3V548.8 M641.2,593.1h44.3v-22.2h-44.3V593.1z"/>
	</g>
</g>
</svg>
