<?xml version="1.0" encoding="utf-8"?>
<!-- Generator: Adobe Illustrator 24.1.0, SVG Export Plug-In . SVG Version: 6.00 Build 0)  -->
<svg version="1.1" id="Camada_1" xmlns="http://www.w3.org/2000/svg" xmlns:xlink="http://www.w3.org/1999/xlink" x="0px" y="0px"
	 viewBox="0 0 1280 1280" style="enable-background:new 0 0 1280 1280;" xml:space="preserve">
<style type="text/css">
	.st0{fill:none;stroke:#FFFFFF;stroke-miterlimit:10;}
	.st1{fill:#FFFFFF;}
</style>
<g id="XMLID_573_">
</g>
<g id="XMLID_572_">
</g>
<g id="XMLID_571_">
</g>
<g id="XMLID_570_">
</g>
<g id="XMLID_569_">
</g>
<g id="XMLID_568_">
</g>
<g id="XMLID_567_">
</g>
<g id="XMLID_566_">
</g>
<g id="XMLID_565_">
</g>
<g id="XMLID_563_">
</g>
<g id="XMLID_556_">
</g>
<g id="XMLID_555_">
</g>
<g id="XMLID_554_">
</g>
<g id="XMLID_553_">
</g>
<path class="st0" d="M686.1,921v-57.4h-64.6C606.4,898.2,572,921,533.6,921c-25.8,0-50-10-68-28c-18.1-18.1-28-42.2-28-68
	c0-25.8,10-50,28-68c18.1-18.1,42.2-28,68-28c38.4,0,72.8,22.8,87.9,57.4H840v77.4h-76.5V921H686.1z"/>
<path class="st1" d="M614.7,796.2c-11.7-33.5-43.6-57.4-81.1-57.4c-47.8,0-86.1,38.2-86.1,86.1c0,47.8,38.2,86.1,86.1,86.1
	c37.5,0,69.4-23.9,81.1-57.4h81.5V911h57.4v-57.4H830v-57.4H614.7z M533.6,853.6c-15.8,0-28.7-12.8-28.7-28.7
	c0-15.8,12.8-28.7,28.7-28.7c15.8,0,28.7,12.8,28.7,28.7C562.3,840.8,549.4,853.6,533.6,853.6z"/>
<path class="st0" d="M533.1,467l-41.2-41.2l7.1-7.1c78.6-78.6,206.5-78.6,285.1,0l7.1,7.1L750,467l-7.2-7.2
	C686.9,404,596,404.1,540.2,460L533.1,467z M520.4,426.1l12.9,12.9c61.6-54.6,154.9-54.6,216.5,0l12.9-12.9
	C693.9,364.5,589.2,364.5,520.4,426.1z"/>
<path class="st1" d="M506.1,425.9l27,27c59.8-59.9,156.9-59.9,216.8-0.1c0,0,0.1,0.1,0.1,0.1l27-27
	C702.2,351.1,580.9,351.1,506.1,425.9"/>
<path class="st0" d="M587.3,521.3l-41.2-41.2l7.1-7.1c48.7-48.6,127.9-48.6,176.6,0l7.1,7.1l-41,41l-7.3-6.9c-26-26-68.3-26-94.3,0
	L587.3,521.3z M641.5,474.6c19.8,0,38.6,6.6,53.8,18.7l12.9-12.9c-38.6-31.9-94.9-31.9-133.5,0l12.9,12.9
	C603,481.2,621.7,474.7,641.5,474.6C641.5,474.6,641.5,474.6,641.5,474.6z"/>
<path class="st1" d="M560.3,480.1l27,27c29.9-29.9,78.4-30,108.4-0.1c0,0,0,0,0.1,0.1l27-27C677.9,435.3,605.2,435.3,560.3,480.1"/>
<path class="st0" d="M776.5,727.8v-57.5h76.6v-97.5H630.9c-9.1-17.6-22.7-32-39.1-41.9l9.6-9.7c10.7-10.7,24.9-16.6,40.1-16.6
	c15.1,0,29.4,5.9,40.1,16.6l14.5,13.8l53.9-53.9l0,0l0.5-0.5l0.5-0.5l0,0l54.2-54.2l-14.1-14.1c-39.9-39.9-93-61.9-149.6-61.9
	s-109.7,22-149.6,61.9l-14.1,14.1l54.2,54.2l0,0l0.7,0.7l0.4,0.4l0,0l41.1,41.1c-11.8-4.5-24.6-6.9-37.7-6.9c-12,0-24,2.1-35.4,6.1
	c-55.2,19.5-84.3,80.3-64.7,135.6c11.3,31.9,36.9,56,68.1,65.9c-17.2,4.9-33,14-46,27c-20,20-31,46.6-31,75.1
	c0,28.5,11,55.1,31,75.1s46.6,31,75.1,31c39.9,0,76.2-22.3,94.2-57.4h48.3V931h97.4v-57.4H850v-97.4H627.8
	c-13-25.4-35.7-44.1-62.3-52.5c2.2-0.6,4.3-1.3,6.4-2c25.9-9.2,46.6-27.3,59-51.4H679v57.5H776.5z"/>
<path class="st0" d="M536.5,717.8c-40.7,0-77.1-25.8-90.7-64.2c-17.7-50,8.6-105.1,58.6-122.8c10.4-3.7,21.2-5.5,32.1-5.5
	c38.3,0,72.8,22.8,88.1,57.5h218.6v77.5h-76.6v57.5H689v-57.5h-64.4c-10.7,24.3-30.7,43-56,52C558.2,716,547.4,717.8,536.5,717.8z"
	/>
<path class="st1" d="M617.8,592.9c-15.9-44.9-65.1-68.4-110-52.6c-44.9,15.9-68.4,65.1-52.6,110c15.9,44.9,65.1,68.4,110,52.6
	c24.6-8.7,43.9-28,52.6-52.6H699v57.5h57.5v-57.5h76.6v-57.5H617.8z M536.2,650.3c-15.9,0-28.7-12.9-28.7-28.7s12.9-28.7,28.7-28.7
	c15.9,0,28.7,12.9,28.7,28.7S552,650.3,536.2,650.3z"/>
</svg>
