<?xml version="1.0" encoding="utf-8"?>
<!-- Generator: Adobe Illustrator 24.1.0, SVG Export Plug-In . SVG Version: 6.00 Build 0)  -->
<svg version="1.1" id="Camada_1" xmlns="http://www.w3.org/2000/svg" xmlns:xlink="http://www.w3.org/1999/xlink" x="0px" y="0px"
	 viewBox="0 0 1280 1280" style="enable-background:new 0 0 1280 1280;" xml:space="preserve">
<style type="text/css">
	.st0{fill:none;stroke:#FFFFFF;stroke-miterlimit:10;}
	.st1{fill:#FFFFFF;}
</style>
<g id="XMLID_573_">
</g>
<g id="XMLID_572_">
</g>
<g id="XMLID_571_">
</g>
<g id="XMLID_570_">
</g>
<g id="XMLID_569_">
</g>
<g id="XMLID_568_">
</g>
<g id="XMLID_567_">
</g>
<g id="XMLID_566_">
</g>
<g id="XMLID_565_">
</g>
<g id="XMLID_563_">
</g>
<g id="XMLID_556_">
</g>
<g id="XMLID_555_">
</g>
<g id="XMLID_554_">
</g>
<g id="XMLID_553_">
</g>
<g>
	
		<ellipse transform="matrix(0.7071 -0.7071 0.7071 0.7071 -278.783 850.548)" class="st0" cx="887.3" cy="761.8" rx="80.2" ry="80.2"/>
	<path class="st1" d="M887.1,799c-20.4,0-37-16.6-37-37c0-20.4,16.6-37,37-37c20.4,0,37,16.6,37,37C924.1,782.4,907.5,799,887.1,799
		z M887.1,761.9C887.1,761.9,887,762,887.1,761.9c-0.1,0.1,0,0.2,0,0.2C887.2,762.1,887.2,762,887.1,761.9
		C887.2,762,887.2,761.9,887.1,761.9z"/>
	<path class="st1" d="M754.5,767.6l0-11.7c10.6-26.7,28.7-49.4,52.4-65.6c21.4-14.6,45.9-23,71.4-24.6V484.5
		c0-26.1-21.4-47.5-47.5-47.5h-359c-26.1,0-47.5,21.4-47.5,47.5v269c0,26.1,21.4,47.5,47.5,47.5H773
		C765.4,790.9,759.2,779.7,754.5,767.6z M768.8,551.5l10.1,5.2l-1.5-11.3h6l-1.5,11.3l10.1-5.2l2,6.2l-11.2,2l8,8l-5.3,3.9
		l-5.2-10.1l-5.2,10.1l-5.3-3.9l8-8l-11.2-2L768.8,551.5z M768.8,645.5l10.1,5.2l-1.5-11.3h6l-1.5,11.3l10.1-5.2l2,6.2l-11.2,2l8,8
		l-5.3,3.9l-5.2-10.1l-5.2,10.1l-5.3-3.9l8-8l-11.2-2L768.8,645.5z M736.5,551.5l10.1,5.2l-1.5-11.3h6l-1.5,11.3l10.1-5.2l2,6.2
		l-11.2,2l8,8l-5.3,3.9l-5.2-10.1l-5.2,10.1l-5.3-3.9l8-8l-11.2-2L736.5,551.5z M532.9,661.6l-5.3,3.9l-5.2-10.1l-5.2,10.1l-5.3-3.9
		l8-8l-11.2-2l2-6.2l10.1,5.2l-1.5-11.3h6l-1.5,11.3l10.1-5.2l2,6.2l-11.2,2L532.9,661.6z M524.9,559.6l8,8l-5.3,3.9l-5.2-10.1
		l-5.2,10.1l-5.3-3.9l8-8l-11.2-2l2-6.2l10.1,5.2l-1.5-11.3h6l-1.5,11.3l10.1-5.2l2,6.2L524.9,559.6z M565.1,661.6l-5.3,3.9
		l-5.2-10.1l-5.2,10.1l-5.3-3.9l8-8l-11.2-2l2-6.2l10.1,5.2l-1.5-11.3h6l-1.5,11.3l10.1-5.2l2,6.2l-11.2,2L565.1,661.6z
		 M557.1,559.6l8,8l-5.3,3.9l-5.2-10.1l-5.2,10.1l-5.3-3.9l8-8l-11.2-2l2-6.2l10.1,5.2l-1.5-11.3h6l-1.5,11.3l10.1-5.2l2,6.2
		L557.1,559.6z M597.4,661.6l-5.3,3.9l-5.2-10.1l-5.2,10.1l-5.3-3.9l8-8l-11.2-2l2-6.2l10.1,5.2l-1.5-11.3h6l-1.5,11.3l10.1-5.2
		l2,6.2l-11.2,2L597.4,661.6z M589.4,559.6l8,8l-5.3,3.9l-5.2-10.1l-5.2,10.1l-5.3-3.9l8-8l-11.2-2l2-6.2l10.1,5.2l-1.5-11.3h6
		l-1.5,11.3l10.1-5.2l2,6.2L589.4,559.6z M629.6,661.6l-5.3,3.9l-5.2-10.1l-5.2,10.1l-5.3-3.9l8-8l-11.2-2l2-6.2l10.1,5.2l-1.5-11.3
		h6l-1.5,11.3l10.1-5.2l2,6.2l-11.2,2L629.6,661.6z M621.6,559.6l8,8l-5.3,3.9l-5.2-10.1l-5.2,10.1l-5.3-3.9l8-8l-11.2-2l2-6.2
		l10.1,5.2l-1.5-11.3h6l-1.5,11.3l10.1-5.2l2,6.2L621.6,559.6z M661.9,661.6l-5.3,3.9l-5.2-10.1l-5.2,10.1l-5.3-3.9l8-8l-11.2-2
		l2-6.2l10.1,5.2l-1.5-11.3h6l-1.5,11.3l10.1-5.2l2,6.2l-11.2,2L661.9,661.6z M653.9,559.6l8,8l-5.3,3.9l-5.2-10.1l-5.2,10.1
		l-5.3-3.9l8-8l-11.2-2l2-6.2l10.1,5.2l-1.5-11.3h6l-1.5,11.3l10.1-5.2l2,6.2L653.9,559.6z M694.1,661.6l-5.3,3.9l-5.2-10.1
		l-5.2,10.1l-5.3-3.9l8-8l-11.2-2l2-6.2l10.1,5.2l-1.5-11.3h6l-1.5,11.3l10.1-5.2l2,6.2l-11.2,2L694.1,661.6z M686.1,559.6l8,8
		l-5.3,3.9l-5.2-10.1l-5.2,10.1l-5.3-3.9l8-8l-11.2-2l2-6.2l10.1,5.2l-1.5-11.3h6l-1.5,11.3l10.1-5.2l2,6.2L686.1,559.6z
		 M726.4,661.6l-5.3,3.9l-5.2-10.1l-5.2,10.1l-5.3-3.9l8-8l-11.2-2l2-6.2l10.1,5.2l-1.5-11.3h6l-1.5,11.3l10.1-5.2l2,6.2l-11.2,2
		L726.4,661.6z M718.4,559.6l8,8l-5.3,3.9l-5.2-10.1l-5.2,10.1l-5.3-3.9l8-8l-11.2-2l2-6.2l10.1,5.2l-1.5-11.3h6l-1.5,11.3l10.1-5.2
		l2,6.2L718.4,559.6z M748.1,655.4l-5.2,10.1l-5.3-3.9l8-8l-11.2-2l2-6.2l10.1,5.2l-1.5-11.3h6l-1.5,11.3l10.1-5.2l2,6.2l-11.2,2
		l8,8l-5.3,3.9L748.1,655.4z"/>
	<path class="st0" d="M1036.1,755.9l-1.1-5.9c-11.7-29.7-31.9-54.9-58.3-72.9c-20.1-13.7-42.7-22.5-66.4-26V484.5
		c0-43.8-35.7-79.5-79.5-79.5h-359c-43.8,0-79.5,35.7-79.5,79.5v269c0,43.8,35.7,79.5,79.5,79.5H773l4.6-2.8
		c6.6,6.3,13.7,12,21.3,17.1c26.3,17.6,56.8,26.9,88.4,26.9h0c19.9,0,39.5-3.7,58.2-11.1c40.9-16.1,73.6-48.8,89.6-89.6l1.1-5.9
		L1036.1,755.9z"/>
	<path class="st0" d="M1020.1,755.9c-10.6-26.7-28.7-49.4-52.4-65.6c-21.9-15-47.1-23.4-73.3-24.7V484.5c0-35-28.5-63.5-63.5-63.5
		h-359c-35,0-63.5,28.5-63.5,63.5v269c0,35,28.5,63.5,63.5,63.5H773l4.9-9.8c8.6,10.2,18.6,19.3,29.9,26.8
		c23.6,15.8,51.1,24.2,79.5,24.2c0,0,0,0,0,0c17.9,0,35.5-3.3,52.3-10c36.8-14.5,66.2-43.8,80.6-80.6L1020.1,755.9z"/>
	<path class="st1" d="M887.3,681.4c-52.1,0-98.9,32.2-117.9,80.4c25.6,65.2,99.2,97.1,164.4,71.5c32.7-12.9,58.7-38.7,71.5-71.5
		C986.2,713.5,939.4,681.4,887.3,681.4z M887.3,815.4c-29.6,0-53.6-24-53.6-53.6s24-53.6,53.6-53.6c29.6,0,53.6,24,53.6,53.6
		S916.9,815.4,887.3,815.4z"/>
</g>
</svg>
