<?xml version="1.0" encoding="utf-8"?>
<!-- Generator: Adobe Illustrator 24.1.0, SVG Export Plug-In . SVG Version: 6.00 Build 0)  -->
<svg version="1.1" xmlns="http://www.w3.org/2000/svg" xmlns:xlink="http://www.w3.org/1999/xlink" x="0px" y="0px"
	 viewBox="0 0 1280 1280" style="enable-background:new 0 0 1280 1280;" xml:space="preserve">
<style type="text/css">
	.st0{fill:#FFFFFF;}
	.st1{fill:none;stroke:#FFFFFF;stroke-miterlimit:10;}
</style>
<g id="Camada_1">
	<g id="XMLID_573_">
	</g>
	<g id="XMLID_572_">
	</g>
	<g id="XMLID_571_">
	</g>
	<g id="XMLID_570_">
	</g>
	<g id="XMLID_569_">
	</g>
	<g id="XMLID_568_">
	</g>
	<g id="XMLID_567_">
	</g>
	<g id="XMLID_566_">
	</g>
	<g id="XMLID_565_">
	</g>
	<g id="XMLID_563_">
	</g>
	<g id="XMLID_556_">
	</g>
	<g id="XMLID_555_">
	</g>
	<g id="XMLID_554_">
	</g>
	<g id="XMLID_553_">
	</g>
</g>
<g id="Camada_2">
	<g>
		<g id="XMLID_443_">
			<g>
				
					<image style="overflow:visible;opacity:0.5;" width="659" height="115" xlink:href="D6052A46.png"  transform="matrix(1 0 0 1 269.8062 319.3087)">
				</image>
				<g>
					<path class="st0" d="M917.5,321.1H281.3c-5.3,0-9.6,4.3-9.6,9.6v101.9h655.3V330.7C927.1,325.4,922.8,321.1,917.5,321.1z
						 M331.5,396.1c-9.7,0-17.5-7.9-17.5-17.5c0-9.7,7.9-17.5,17.5-17.5s17.5,7.9,17.5,17.5C349.1,388.2,341.2,396.1,331.5,396.1z
						 M384.9,396.1c-9.7,0-17.5-7.9-17.5-17.5c0-9.7,7.9-17.5,17.5-17.5s17.5,7.9,17.5,17.5C402.4,388.2,394.5,396.1,384.9,396.1z
						 M438.2,396.1c-9.7,0-17.5-7.9-17.5-17.5c0-9.7,7.9-17.5,17.5-17.5s17.5,7.9,17.5,17.5C455.7,388.2,447.9,396.1,438.2,396.1z"
						/>
				</g>
			</g>
		</g>
		<g>
			<path class="st0" d="M829.9,686.3c0-20.6,16.8-37.4,37.4-37.4h59.8V456.1H271.7v385.2c0,5.3,4.3,9.6,9.6,9.6h548.5V686.3z
				 M446.1,718.5l91.8-93.5v-2.8L446.1,529h65.8l92.5,94.2l-92.5,95.3H446.1z M591.3,778.3v-48.4h161.3v48.4H591.3z"/>
		</g>
		<path class="st1" d="M867.2,950.3c-29.4,0-53.4-23.9-53.4-53.4v-14H281.3c-22.9,0-41.6-18.7-41.6-41.6V456.1l4.7-11.3l0.4-0.4
			l-0.4-0.4l-4.7-11.3V330.7c0-22.9,18.7-41.6,41.6-41.6h636.1c22.9,0,41.6,18.7,41.6,41.6v101.9l-4.7,11.3l-0.4,0.4l0.4,0.4
			l4.7,11.3V633h27.8c29.4,0,53.4,23.9,53.4,53.4v210.6c0,29.4-23.9,53.4-53.4,53.4H867.2z"/>
		<path class="st1" d="M986.9,649h-43.8V456.1l-11.7-11.7l11.7-11.7V330.7c0-14.1-11.5-25.6-25.6-25.6H281.3
			c-14.1,0-25.6,11.5-25.6,25.6v101.9l11.7,11.7l-11.7,11.7v385.2c0,14.1,11.5,25.6,25.6,25.6h548.5v30c0,20.6,16.8,37.4,37.4,37.4
			h119.7c20.6,0,37.4-16.8,37.4-37.4V686.3C1024.3,665.7,1007.5,649,986.9,649z"/>
		<path class="st0" d="M986.9,665H867.2c-11.7,0-21.4,9.6-21.4,21.4v210.6c0,11.7,9.6,21.4,21.4,21.4h119.7
			c11.7,0,21.4-9.6,21.4-21.4V686.3C1008.3,674.6,998.7,665,986.9,665z M985.4,798.8c-4.1,0-7.4-3.3-7.4-7.4c0-4.1,3.3-7.4,7.4-7.4
			c4.1,0,7.4,3.3,7.4,7.4C992.8,795.5,989.5,798.8,985.4,798.8z"/>
	</g>
</g>
</svg>
