<?xml version="1.0" encoding="utf-8"?>
<!-- Generator: Adobe Illustrator 24.1.0, SVG Export Plug-In . SVG Version: 6.00 Build 0)  -->
<svg version="1.1" id="Camada_1" xmlns="http://www.w3.org/2000/svg" xmlns:xlink="http://www.w3.org/1999/xlink" x="0px" y="0px"
	 viewBox="0 0 1280 1280" style="enable-background:new 0 0 1280 1280;" xml:space="preserve">
<style type="text/css">
	.st0{fill:none;stroke:#FFFFFF;stroke-miterlimit:10;}
	.st1{fill:#FFFFFF;}
</style>
<g>
	<path class="st0" d="M416,876c-35.3,0-64-28.7-64-64v-64c0-19.1,8.4-36.3,21.7-48c-13.3-11.7-21.7-28.9-21.7-48v-64
		c0-19.1,8.4-36.3,21.7-48c-13.3-11.7-21.7-28.9-21.7-48v-64c0-35.3,28.7-64,64-64h448c35.3,0,64,28.7,64,64v64
		c0,19.1-8.4,36.3-21.7,48c13.3,11.7,21.7,28.9,21.7,48v64c0,19.1-8.4,36.3-21.7,48c13.3,11.7,21.7,28.9,21.7,48v64
		c0,35.3-28.7,64-64,64H416z"/>
	<path class="st0" d="M416,860c-26.5,0-48-21.5-48-48v-64c0-26.5,21.5-48,48-48c-26.5,0-48-21.5-48-48v-64c0-26.5,21.5-48,48-48
		c-26.5,0-48-21.5-48-48v-64c0-26.5,21.5-48,48-48h448c26.5,0,48,21.5,48,48v64c0,26.5-21.5,48-48,48c26.5,0,48,21.5,48,48v64
		c0,26.5-21.5,48-48,48c26.5,0,48,21.5,48,48v64c0,26.5-21.5,48-48,48H416z M816,772c-4.4,0-8,3.6-8,8s3.6,8,8,8s8-3.6,8-8
		S820.4,772,816,772z M752,772c-4.4,0-8,3.6-8,8s3.6,8,8,8s8-3.6,8-8S756.4,772,752,772z M816,612c-4.4,0-8,3.6-8,8s3.6,8,8,8
		s8-3.6,8-8S820.4,612,816,612z M752,612c-4.4,0-8,3.6-8,8s3.6,8,8,8s8-3.6,8-8S756.4,612,752,612z M816,452c-4.4,0-8,3.6-8,8
		s3.6,8,8,8s8-3.6,8-8S820.4,452,816,452z M752,452c-4.4,0-8,3.6-8,8s3.6,8,8,8s8-3.6,8-8S756.4,452,752,452z"/>
	<path class="st1" d="M864,524H416c-17.7,0-32-14.3-32-32v-64c0-17.7,14.3-32,32-32h448c17.7,0,32,14.3,32,32v64
		C896,509.7,881.7,524,864,524z M816,436c-13.3,0-24,10.7-24,24s10.7,24,24,24s24-10.7,24-24S829.3,436,816,436z M752,436
		c-13.3,0-24,10.7-24,24s10.7,24,24,24s24-10.7,24-24S765.3,436,752,436z M864,684H416c-17.7,0-32-14.3-32-32v-64
		c0-17.7,14.3-32,32-32h448c17.7,0,32,14.3,32,32v64C896,669.7,881.7,684,864,684z M816,596c-13.3,0-24,10.7-24,24s10.7,24,24,24
		s24-10.7,24-24S829.3,596,816,596z M752,596c-13.3,0-24,10.7-24,24s10.7,24,24,24s24-10.7,24-24S765.3,596,752,596z M864,844H416
		c-17.7,0-32-14.3-32-32v-64c0-17.7,14.3-32,32-32h448c17.7,0,32,14.3,32,32v64C896,829.7,881.7,844,864,844z M816,756
		c-13.3,0-24,10.7-24,24s10.7,24,24,24s24-10.7,24-24S829.3,756,816,756z M752,756c-13.3,0-24,10.7-24,24s10.7,24,24,24
		s24-10.7,24-24S765.3,756,752,756z"/>
</g>
</svg>
