<?xml version="1.0" encoding="utf-8"?>
<!-- Generator: Adobe Illustrator 24.1.0, SVG Export Plug-In . SVG Version: 6.00 Build 0)  -->
<svg version="1.1" xmlns="http://www.w3.org/2000/svg" xmlns:xlink="http://www.w3.org/1999/xlink" x="0px" y="0px"
	 viewBox="0 0 1280 1280" style="enable-background:new 0 0 1280 1280;" xml:space="preserve">
<style type="text/css">
	.st0{fill:#FFFFFF;}
	.st1{fill:none;stroke:#FFFFFF;stroke-miterlimit:10;}
</style>
<g id="Camada_1">
	<g id="XMLID_573_">
	</g>
	<g id="XMLID_572_">
	</g>
	<g id="XMLID_571_">
	</g>
	<g id="XMLID_570_">
	</g>
	<g id="XMLID_569_">
	</g>
	<g id="XMLID_568_">
	</g>
	<g id="XMLID_567_">
	</g>
	<g id="XMLID_566_">
	</g>
	<g id="XMLID_565_">
	</g>
	<g id="XMLID_563_">
	</g>
	<g id="XMLID_556_">
	</g>
	<g id="XMLID_555_">
	</g>
	<g id="XMLID_554_">
	</g>
	<g id="XMLID_553_">
	</g>
</g>
<g id="Camada_2">
	<path class="st0" d="M527.5,648.6H324.7V417H685v69.8h51.5v-82.7c0-21.3-17.3-38.6-38.6-38.6h-386c-21.3,0-38.6,17.3-38.6,38.6
		v257.4c0,21.3,17.3,38.6,38.6,38.6h154.4l-12.9,38.6h-57.9c-10.7,0-19.3,8.6-19.3,19.3s8.6,19.3,19.3,19.3h132V648.6z"/>
	<path class="st0" d="M849.6,656H743.5v-16.2c0-7.5-9.1-11.3-14.4-6l-30.2,30.2c-3.3,3.3-3.3,8.6,0,11.9l30.2,30.2
		c5.3,5.3,14.4,1.6,14.4-6v-16.2h106.1c2.3,0,4.2-1.9,4.2-4.2v-19.7C853.8,657.9,851.9,656,849.6,656z"/>
	<path class="st1" d="M968.1,470.7H768.5v-66.7c0-38.9-31.7-70.6-70.6-70.6h-386c-38.9,0-70.6,31.7-70.6,70.6v257.4
		c0,38.9,31.7,70.6,70.6,70.6h39.4c-4.5,7.6-7,16.5-7,25.9c0,28.3,23,51.3,51.3,51.3h116.8c5.1,33.9,34.5,60.1,69.8,60.1h39.4
		c-4.5,7.6-7,16.5-7,25.9c0,28.3,23,51.3,51.3,51.3h218.8c28.3,0,51.3-23,51.3-51.3c0-9.4-2.6-18.3-7-25.9h39.4
		c38.9,0,70.6-31.7,70.6-70.6V541.3C1038.7,502.4,1007.1,470.7,968.1,470.7z"/>
	<path class="st1" d="M968.1,486.7H752.5v-82.7c0-30.1-24.5-54.6-54.6-54.6h-386c-30.1,0-54.6,24.5-54.6,54.6v257.4
		c0,30.1,24.5,54.6,54.6,54.6h132.2l-2.2,6.6h-46.4c-19.5,0-35.3,15.8-35.3,35.3s15.8,35.3,35.3,35.3h132v5.5
		c0,30.1,24.5,54.6,54.6,54.6h132.2l-2.2,6.6h-46.4c-19.5,0-35.3,15.8-35.3,35.3c0,19.5,15.8,35.3,35.3,35.3h218.8
		c19.5,0,35.3-15.8,35.3-35.3c0-19.5-15.8-35.3-35.3-35.3h-46.4l-2.2-6.6h132.2c30.1,0,54.6-24.5,54.6-54.6V541.3
		C1022.7,511.2,998.2,486.7,968.1,486.7z"/>
	<path class="st0" d="M968.1,502.7H587.4l5.1,5.1c9.5,9.5,9.5,25,0,34.6l-30.2,30.2c-4.6,4.6-10.7,7.2-17.2,7.2c0,0,0,0,0,0
		c-0.5,0-1,0-1.5-0.1v219c0,21.3,17.3,38.6,38.6,38.6h154.4l-12.9,38.6h-57.9c-10.7,0-19.3,8.6-19.3,19.3c0,10.7,8.6,19.3,19.3,19.3
		h218.8c10.7,0,19.3-8.6,19.3-19.3c0-10.7-8.6-19.3-19.3-19.3h-57.9l-12.9-38.6h154.4c21.3,0,38.6-17.3,38.6-38.6V541.3
		C1006.7,520,989.4,502.7,968.1,502.7z M955.3,785.8H595V554.2h360.3V785.8z"/>
	<path class="st0" d="M430.4,539.2h106.1v16.2c0,7.5,9.1,11.3,14.4,6l30.2-30.2c3.3-3.3,3.3-8.6,0-11.9l-30.2-30.2
		c-5.3-5.3-14.4-1.6-14.4,6V511H430.4c-2.3,0-4.2,1.9-4.2,4.2v19.7C426.2,537.3,428.1,539.2,430.4,539.2z"/>
</g>
</svg>
