<?xml version="1.0" encoding="utf-8"?>
<!-- Generator: Adobe Illustrator 24.1.0, SVG Export Plug-In . SVG Version: 6.00 Build 0)  -->
<svg version="1.1" id="Camada_1" xmlns="http://www.w3.org/2000/svg" xmlns:xlink="http://www.w3.org/1999/xlink" x="0px" y="0px"
	 viewBox="0 0 1280 1280" style="enable-background:new 0 0 1280 1280;" xml:space="preserve">
<style type="text/css">
	.st0{fill:#FFFFFF;}
	.st1{fill:none;stroke:#FFFFFF;stroke-miterlimit:10;}
</style>
<g id="XMLID_573_">
</g>
<g id="XMLID_572_">
</g>
<g id="XMLID_571_">
</g>
<g id="XMLID_570_">
</g>
<g id="XMLID_569_">
</g>
<g id="XMLID_568_">
</g>
<g id="XMLID_567_">
</g>
<g id="XMLID_566_">
</g>
<g id="XMLID_565_">
</g>
<g id="XMLID_563_">
</g>
<g id="XMLID_556_">
</g>
<g id="XMLID_555_">
</g>
<g id="XMLID_554_">
</g>
<g id="XMLID_553_">
</g>
<g>
	<path class="st0" d="M527.7,651.8c-5.9-6.7-8.6-15.6-7.4-24.4l8.3-61.9H375.4V406.4h247.5V452h35.4v-54.5
		c0-14.6-11.9-26.5-26.5-26.5H366.5c-14.6,0-26.5,11.9-26.5,26.5v176.8c0,14.6,11.9,26.5,26.5,26.5h106.1l-8.8,26.5H424
		c-7.3,0-13.3,5.9-13.3,13.3c0,7.3,5.9,13.3,13.3,13.3h105.7C529,653.2,528.3,652.5,527.7,651.8z"/>
	<path class="st0" d="M719.3,567.1h-71.4l26.4-80.4c2.5-9.4-4.6-18.7-14.4-18.7h-89.2c-7.4,0-13.7,5.5-14.7,12.9l-19.8,148.6
		c-1.2,8.9,5.8,16.8,14.7,16.8h73.5l-28.5,120.4c-2.2,9.4,5,18.3,14.4,18.3c5.2,0,10.2-2.7,12.9-7.4l109-188.2
		C737.9,579.5,730.8,567.1,719.3,567.1z"/>
	<path class="st1" d="M914.5,594.2H764.5c3.3-11.8,1.7-24.5-4.6-35.6c-8.5-14.7-23.6-23.5-40.6-23.5H692l12.6-38.4l0.1-0.5l0.3-0.9
		l0.1-0.5c3.7-14.2,0.7-29-8.2-40.6c-2-2.6-4.3-5-6.8-7.1v-49.6c0-32.3-26.2-58.5-58.5-58.5H366.5c-32.3,0-58.5,26.2-58.5,58.5
		v176.8c0,32.3,26.2,58.5,58.5,58.5h12.9c-0.4,2.5-0.7,5.1-0.7,7.8c0,25,20.3,45.3,45.3,45.3h105.7l12.3-8.4
		c2.9,0.6,5.9,0.9,8.9,0.9h33l-19.2,81c-3.3,14-0.1,28.5,8.8,39.8c4.7,5.9,10.6,10.5,17.3,13.6v16.7c0,32.3,26.2,58.5,58.5,58.5
		h12.9c-0.4,2.5-0.7,5.1-0.7,7.8c0,25,20.3,45.3,45.3,45.3H857c25,0,45.3-20.3,45.3-45.3c0-2.6-0.2-5.2-0.7-7.8h12.9
		c32.3,0,58.5-26.2,58.5-58.5V652.7C973,620.4,946.7,594.2,914.5,594.2z"/>
	<path class="st1" d="M914.5,610.2H738.5l7.4-12.8c5.6-9.6,5.7-21.2,0.1-30.9c-5.6-9.7-15.6-15.5-26.7-15.5h-49.4l19.5-59.4l0.3-0.9
		c2.5-9.3,0.5-19.1-5.4-26.7c-3.3-4.3-7.6-7.6-12.5-9.6l2.4-2.4v-54.5c0-23.4-19.1-42.5-42.5-42.5H366.5
		c-23.4,0-42.5,19.1-42.5,42.5v176.8c0,23.4,19.1,42.5,42.5,42.5h40.4c-7.4,5.3-12.2,14-12.2,23.8c0,16.1,13.1,29.3,29.3,29.3h105.7
		l4.9-12.2c4.9,3,10.5,4.7,16.4,4.7h53.3L580.3,763c-2.2,9.2-0.1,18.8,5.8,26.2c5.2,6.5,12.6,10.6,20.7,11.5v28.7
		c0,23.4,19.1,42.5,42.5,42.5h40.4c-7.4,5.3-12.2,14-12.2,23.8c0,16.1,13.1,29.3,29.3,29.3H857c16.1,0,29.3-13.1,29.3-29.3
		c0-9.8-4.8-18.5-12.2-23.8h40.4c23.4,0,42.5-19.1,42.5-42.5V652.7C957,629.3,937.9,610.2,914.5,610.2z"/>
	<path class="st0" d="M914.5,626.2H729.3l-20.5,35.4h196.8v159.1H658.2V749L637,785.6c-3.3,5.7-8.3,10.1-14.2,12.7v31.2
		c0,14.6,11.9,26.5,26.5,26.5h106.1l-8.8,26.5h-39.8c-7.3,0-13.3,5.9-13.3,13.3c0,7.3,5.9,13.3,13.3,13.3H857
		c7.3,0,13.3-5.9,13.3-13.3c0-7.3-5.9-13.3-13.3-13.3h-39.8l-8.8-26.5h106.1c14.6,0,26.5-11.9,26.5-26.5V652.7
		C941,638.1,929.1,626.2,914.5,626.2z"/>
</g>
</svg>
