<?xml version="1.0" encoding="utf-8"?>
<!-- Generator: Adobe Illustrator 24.1.0, SVG Export Plug-In . SVG Version: 6.00 Build 0)  -->
<svg version="1.1" id="Camada_1" xmlns="http://www.w3.org/2000/svg" xmlns:xlink="http://www.w3.org/1999/xlink" x="0px" y="0px"
	 viewBox="0 0 1280 1280" style="enable-background:new 0 0 1280 1280;" xml:space="preserve">
<style type="text/css">
	.st0{fill:#FFFFFF;}
	.st1{fill:none;stroke:#FFFFFF;stroke-miterlimit:10;}
</style>
<g>
	<path class="st0" d="M669.9,637.5c9.4,0,17.1-7.7,17.1-17.1c0-4.3-1.6-8.3-4.3-11.3l-29,16.7C656,632.6,662.4,637.5,669.9,637.5z"
		/>
	<path class="st0" d="M610.1,637.5c7.4,0,13.8-4.8,16.1-11.4l-29.1-16.8c-2.6,3-4.1,6.9-4.1,11.1C593,629.9,600.7,637.5,610.1,637.5
		z"/>
	<path class="st1" d="M383.2,946c-30.1,0-57.1-15.6-72.2-41.7c-15.1-26.1-15.1-57.3-0.1-83.4l256.8-445.2
		c15.1-26.1,42.1-41.7,72.2-41.7c30.2,0,57.2,15.6,72.2,41.7L969,820.9c15,26.1,15,57.2,0,83.3c-15.1,26.1-42.1,41.7-72.2,41.7
		H383.2z"/>
	<path class="st1" d="M383.2,930c-24.3,0-46.1-12.6-58.3-33.7c-12.2-21.1-12.2-46.3,0-67.4l256.8-445.2c12.2-21.1,34-33.7,58.3-33.7
		c24.4,0,46.2,12.6,58.4,33.7l256.8,445.2c12.2,21.1,12.1,46.2,0,67.3c-12.2,21.1-34,33.7-58.3,33.7H383.2z"/>
	<path class="st0" d="M941.3,836.9L941.3,836.9L684.5,391.7c-19.7-34.2-69.2-34.3-89,0L338.7,836.9c-19.7,34.2,5,77,44.5,77h513.6
		C936.2,914,961,871.2,941.3,836.9z M640,543.6c42.4,0,76.8,30.6,76.8,68.3c0,24.8-15.1,46.4-37.4,58.3l2.9,13.8
		c1.4,6.7-2.9,13.3-8.8,13.3h-67.3c-5.9,0-10.2-6.5-8.8-13.3l2.9-13.8c-22.3-12-37.4-33.5-37.4-58.3
		C563.2,574.2,597.6,543.6,640,543.6z M754.8,785.4c4.2,2.1,5.9,7.2,3.8,11.5l-7.6,15.3c-2.1,4.2-7.2,5.9-11.5,3.8L640,767.5
		l-99.5,48.4c-4.2,2.1-9.3,0.4-11.5-3.8l-7.6-15.3c-2.1-4.2-0.4-9.3,3.8-11.5l75.8-36.9l-75.8-36.9c-4.2-2.1-5.9-7.2-3.8-11.5
		l7.6-15.3c2.1-4.2,7.2-5.9,11.5-3.8l99.5,48.4l99.5-48.4c4.2-2.1,9.3-0.4,11.5,3.8l7.6,15.3c2.1,4.2,0.4,9.3-3.8,11.5L679,748.5
		L754.8,785.4z"/>
</g>
</svg>
