<?xml version="1.0" encoding="utf-8"?>
<!-- Generator: Adobe Illustrator 24.1.0, SVG Export Plug-In . SVG Version: 6.00 Build 0)  -->
<svg version="1.1" id="Camada_1" xmlns="http://www.w3.org/2000/svg" xmlns:xlink="http://www.w3.org/1999/xlink" x="0px" y="0px"
	 viewBox="0 0 1280 1280" style="enable-background:new 0 0 1280 1280;" xml:space="preserve">
<style type="text/css">
	.st0{fill:#FFFFFF;}
	.st1{fill:none;stroke:#FFFFFF;stroke-miterlimit:10;}
</style>
<g>
	
		<ellipse transform="matrix(0.3827 -0.9239 0.9239 0.3827 -153.1568 1268.0173)" class="st0" cx="872.3" cy="748.6" rx="10" ry="10"/>
	<path class="st0" d="M662.5,852V727.8H397.6v-288h448v50c23.3,0,45.1,6.2,64,17v-83c0-26.5-21.5-48-48-48h-480
		c-26.5,0-48,21.5-48,48v320c0,26.5,21.5,48,48,48h192l-16,48h-72c-13.3,0-24,10.7-24,24s10.7,24,24,24h191.3
		C668,878.5,662.5,865.9,662.5,852z"/>
	<path class="st1" d="M991,642.4v-23.2c0-43.4-19.1-82.4-49.4-109.1v-86.3c0-44.1-35.9-80-80-80h-480c-44.1,0-80,35.9-80,80v320
		c0,44.1,35.9,80,80,80h64.8c-10.4,10.2-16.8,24.3-16.8,40c0,30.9,25.1,56,56,56h228.7h37.6h225c37.4,0,67.8-30.4,67.8-67.8V708.7
		C1044.7,676.2,1021.7,648.9,991,642.4z"/>
	<path class="st1" d="M976.9,656.9H975v-37.7c0-41.2-19.3-77.9-49.4-101.6v-93.8c0-35.3-28.7-64-64-64h-480c-35.3,0-64,28.7-64,64
		v320c0,35.3,28.7,64,64,64h169.8l-5.3,16h-60.5c-22.1,0-40,17.9-40,40s17.9,40,40,40h228.7h0.1h262.5c28.6,0,51.8-23.2,51.8-51.8
		V708.7C1028.7,680.2,1005.5,656.9,976.9,656.9z"/>
	<path class="st0" d="M976.9,672.9H959v-53.7c0-62.5-50.9-113.4-113.4-113.4s-113.4,50.9-113.4,113.4v53.7h-17.9
		c-19.8,0-35.8,16-35.8,35.8V852c0,19.8,16,35.8,35.8,35.8h262.6c19.8,0,35.8-16,35.8-35.8V708.7
		C1012.7,689,996.7,672.9,976.9,672.9z M862.3,795.3c-2.3,0-4.6-0.2-6.8-0.6l-5,5.6c-0.9,1.1-2.3,1.7-3.7,1.7H839v8.3
		c0,2.8-2.2,5-5,5h-8.3v8.3c0,2.8-2.2,5-5,5h-23.3c-2.8,0-5-2.2-5-5v-16.3c0-1.3,0.5-2.6,1.5-3.5l33.7-33.7
		c-1.2-3.6-1.8-7.5-1.8-11.5c0-20.2,16.4-36.7,36.7-36.7c20.3,0,36.7,16.4,36.7,36.7C898.9,778.9,882.5,795.3,862.3,795.3z
		 M899.3,672.9H791.9v-53.7c0-29.6,24.1-53.7,53.7-53.7c29.6,0,53.7,24.1,53.7,53.7V672.9z"/>
	<path class="st0" d="M663.6,547.2c0-9.7-7.8-17.5-17.5-17.5c-9.7,0-17.5,7.8-17.5,17.5c0,8,5.3,14.7,12.6,16.8
		c-0.1,3.5-0.9,6.2-2.4,8.1c-3.4,4.2-10.8,4.9-18.6,5.6c-6.2,0.6-12.5,1.2-17.8,3.7v-31.5c7.1-2.2,12.2-8.9,12.2-16.7
		c0-9.7-7.8-17.5-17.5-17.5c-9.7,0-17.5,7.8-17.5,17.5c0,7.8,5.1,14.4,12.2,16.7v43.6c-7.1,2.3-12.2,8.9-12.2,16.7
		c0,9.7,7.8,17.5,17.5,17.5c9.7,0,17.5-7.8,17.5-17.5c0-7.4-4.6-13.8-11.2-16.3c0.7-1.1,1.7-2.1,3.3-2.9c3.5-1.8,8.8-2.3,14.4-2.8
		c9.2-0.9,19.7-1.8,25.8-9.5c3.1-3.8,4.6-8.7,4.7-14.8C658.6,561.4,663.6,554.9,663.6,547.2L663.6,547.2z M597.1,529.7
		c1.9,0,3.5,1.6,3.5,3.5c0,1.9-1.6,3.5-3.5,3.5c-1.9,0-3.5-1.6-3.5-3.5C593.6,531.3,595.2,529.7,597.1,529.7z M597.1,613.6
		c-1.9,0-3.5-1.6-3.5-3.5c0-1.9,1.6-3.5,3.5-3.5c1.9,0,3.5,1.6,3.5,3.5C600.6,612,599.1,613.6,597.1,613.6z M646.1,543.7
		c1.9,0,3.5,1.6,3.5,3.5c0,1.9-1.6,3.5-3.5,3.5c-1.9,0-3.5-1.6-3.5-3.5C642.6,545.2,644.2,543.7,646.1,543.7z"/>
</g>
</svg>
