<?xml version="1.0" encoding="utf-8"?>
<!-- Generator: Adobe Illustrator 24.1.0, SVG Export Plug-In . SVG Version: 6.00 Build 0)  -->
<svg version="1.1" id="Camada_1" xmlns="http://www.w3.org/2000/svg" xmlns:xlink="http://www.w3.org/1999/xlink" x="0px" y="0px"
	 viewBox="0 0 1280 1280" style="enable-background:new 0 0 1280 1280;" xml:space="preserve">
<style type="text/css">
	.st0{fill:#FFFFFF;}
	.st1{fill:none;stroke:#FFFFFF;stroke-miterlimit:10;}
</style>
<g id="XMLID_573_">
</g>
<g id="XMLID_572_">
</g>
<g id="XMLID_571_">
</g>
<g id="XMLID_570_">
</g>
<g id="XMLID_569_">
</g>
<g id="XMLID_568_">
</g>
<g id="XMLID_567_">
</g>
<g id="XMLID_566_">
</g>
<g id="XMLID_565_">
</g>
<g id="XMLID_563_">
</g>
<g id="XMLID_556_">
</g>
<g id="XMLID_555_">
</g>
<g id="XMLID_554_">
</g>
<g id="XMLID_553_">
</g>
<g>
	<path class="st0" d="M668.7,785.7c-4.5-4.5-7-10.5-7-16.9c0-6.4,2.5-12.4,7-16.9l11.2-11.2c4.5-4.5,10.5-7,16.9-7
		c6.4,0,12.4,2.5,16.9,7l23.3,23.3l24.7-24.7v-95.7c0-18.8-15.2-34-34-34h-17v-50.9c0-59.3-48.3-107.6-107.6-107.6
		s-107.6,48.3-107.6,107.6v50.9h-17c-18.8,0-34,15.2-34,34v135.9c0,18.8,15.2,34,34,34h217.7L668.7,785.7z M654.3,609.6H552.4v-50.9
		c0-28.1,22.9-50.9,50.9-50.9s50.9,22.9,50.9,50.9V609.6z"/>
	<path class="st1" d="M856.3,701l-11.2-11.2c-7.5-7.5-17.6-11.7-28.2-11.7c-8.4,0-16.4,2.6-23.1,7.3v-41.9
		c0-31.2-21.8-57.4-50.9-64.2v-20.7c0-77-62.6-139.6-139.6-139.6s-139.6,62.6-139.6,139.6v20.7c-29.2,6.8-50.9,33-50.9,64.2v135.9
		c0,36.4,29.6,66,66,66h217.7l5.6-3.8l6.8,6.8c7.5,7.5,17.6,11.7,28.2,11.7c10.7,0,20.7-4.2,28.2-11.7l91-91
		c7.5-7.5,11.7-17.6,11.7-28.2C868,718.5,863.8,708.5,856.3,701z"/>
	<path class="st1" d="M845,712.3l-11.2-11.2c-4.5-4.5-10.5-7-16.9-7c-6.4,0-12.4,2.5-16.9,7l-22.1,22.1v-79.7c0-27.6-22.4-50-50-50
		h-1v-34.9c0-68.1-55.4-123.6-123.6-123.6s-123.6,55.4-123.6,123.6v34.9h-1c-27.6,0-50,22.4-50,50v135.9c0,27.6,22.4,50,50,50h217.7
		l4.7-11.3l19,19c4.5,4.5,10.5,7,16.9,7c6.4,0,12.4-2.5,16.9-7l91-91c4.5-4.5,7-10.5,7-16.9C852,722.8,849.5,716.8,845,712.3z"/>
	<path class="st0" d="M731.5,825.8L680,774.4c-3.1-3.1-3.1-8.1,0-11.2l11.2-11.2c3.1-3.1,8.1-3.1,11.2,0l34.6,34.6l74.2-74.2
		c3.1-3.1,8.1-3.1,11.2,0l11.2,11.2c3.1,3.1,3.1,8.1,0,11.2l-91,91C739.6,828.9,734.6,828.9,731.5,825.8L731.5,825.8z"/>
</g>
</svg>
