<?xml version="1.0" encoding="utf-8"?>
<!-- Generator: Adobe Illustrator 24.1.0, SVG Export Plug-In . SVG Version: 6.00 Build 0)  -->
<svg version="1.1" id="Camada_1" xmlns="http://www.w3.org/2000/svg" xmlns:xlink="http://www.w3.org/1999/xlink" x="0px" y="0px"
	 viewBox="0 0 1280 1280" style="enable-background:new 0 0 1280 1280;" xml:space="preserve">
<style type="text/css">
	.st0{fill:#FFFFFF;}
	.st1{fill:none;stroke:#FFFFFF;stroke-miterlimit:10;}
</style>
<g>
	<path class="st0" d="M705.2,609.2h18.5c2.2,0,4-1.8,4-4v-99.6h15.2c7.1,0,10.6-8.5,5.6-13.5L720,463.8c-3.1-3.1-8.1-3.1-11.2,0
		l-28.4,28.4c-5,5-1.5,13.5,5.6,13.5h15.2v99.6C701.3,607.4,703,609.2,705.2,609.2z"/>
	<path class="st0" d="M685.3,523.9h-90.5V549c9.4,0.3,17.7,6,21.3,14.7c3.7,9,1.7,19.2-5.2,26.1l-9.2,9.2h83.6V523.9z"/>
	<path class="st0" d="M921.5,523.9H743.6V599h159.1v337.8H377.3V599h152.2l-9.2-9.2c-6.9-6.9-8.9-17.1-5.2-26.1
		c3.6-8.7,11.9-14.4,21.3-14.7v-25.1H358.5c-31.1,0-56.3,25.2-56.3,56.3v375.3c0,31.1,25.2,56.3,56.3,56.3h225.2l-18.8,56.3h-84.4
		c-15.6,0-28.1,12.5-28.1,28.1c0,15.6,12.5,28.1,28.1,28.1h319c15.6,0,28.1-12.5,28.1-28.1c0-15.6-12.5-28.1-28.1-28.1h-84.4
		l-18.8-56.3h225.2c31.1,0,56.3-25.2,56.3-56.3V580.2C977.8,549.1,952.6,523.9,921.5,523.9z"/>
	<path class="st0" d="M709.6,176.5c26.1,0,52.2,10.4,73.1,29.6l13.9-13.9c-24.4-24.4-55.7-36.6-87-36.6s-62.7,12.2-87,36.6
		l13.9,13.9C657.4,186.9,683.5,176.5,709.6,176.5z"/>
	<path class="st0" d="M518.2,468.9h18.2v-3.5c0-11,9-20,20-20h18.5c11,0,20,9,20,20v3.5h86.3l16.4-16.4c4.5-4.5,10.5-7,16.9-7
		c6.4,0,12.4,2.5,16.9,7l16.4,16.4h14c19.2,0,34.8-15.6,34.8-34.8v-69.6c0-19.2-15.6-34.8-34.8-34.8H727V260h-34.8v69.6H518.2
		c-19.2,0-34.8,15.6-34.8,34.8v69.6C483.3,453.3,498.9,468.9,518.2,468.9z M657.4,381.9h34.8v34.8h-34.8V381.9z M596.5,381.9h34.8
		v34.8h-34.8V381.9z M535.6,381.9h34.8v34.8h-34.8V381.9z"/>
	<path class="st0" d="M652.2,220l13.9,13.9c12.2-12.2,27.8-17.4,43.5-17.4c15.7,0,31.3,5.2,43.5,17.4l13.9-13.9
		c-15.7-15.7-36.6-24.4-57.4-24.4S667.9,204.3,652.2,220z"/>
	<path class="st1" d="M480.5,1156.4c-33.2,0-60.1-27-60.1-60.1c0-22.5,12.4-42.1,30.7-52.4h-92.6c-48.7,0-88.3-39.6-88.3-88.3V580.2
		c0-48.7,39.6-88.3,88.3-88.3h126.2c-19.9-11.6-33.4-33.2-33.4-57.8v-69.6c0-36.8,30-66.8,66.8-66.8h142.1v-24.4l-23.8-23.8
		l-0.9,0.8l-58.2-58.2l22.6-22.6c29.6-29.6,68.6-45.9,109.7-45.9s80,16.3,109.7,45.9l22.6,22.6l-58.2,58.2l-0.9-0.8L759,273.3v24.4
		h2.8c36.8,0,66.8,30,66.8,66.8v69.6c0,17.6-6.8,34.2-19.1,46.7c-4.3,4.4-9.1,8.1-14.3,11.1h126.2c48.7,0,88.3,39.6,88.3,88.3v375.3
		c0,48.7-39.6,88.3-88.3,88.3h-92.6c18.3,10.3,30.7,30,30.7,52.4c0,33.2-27,60.1-60.1,60.1H480.5z"/>
	<path class="st1" d="M921.5,507.9h-157c0.2-0.3,0.3-0.7,0.5-1c3-7.3,2.2-15.5-1.9-22c27.5-0.6,49.7-23.1,49.7-50.8v-69.6
		c0-28-22.8-50.8-50.8-50.8H743v-67.2l10.1,10.1l29.2-29.2l0.9,0.8l36.1-36.1L808,180.8c-26.6-26.6-61.5-41.2-98.3-41.2
		s-71.8,14.6-98.3,41.2L600,192.1l36.1,36.1l0.9-0.8l29.2,29.2l10.1-10.1v67.2H518.2c-28,0-50.8,22.8-50.8,50.8v69.6
		c0,28,22.8,50.8,50.8,50.8h18.2v23H358.5c-39.9,0-72.3,32.4-72.3,72.3v375.3c0,39.9,32.4,72.3,72.3,72.3h203l-8.1,24.3h-72.9
		c-24.3,0-44.1,19.8-44.1,44.1s19.8,44.1,44.1,44.1h319c24.3,0,44.1-19.8,44.1-44.1s-19.8-44.1-44.1-44.1h-72.9l-8.1-24.3h203
		c39.9,0,72.3-32.4,72.3-72.3V580.2C993.8,540.3,961.4,507.9,921.5,507.9z M673.4,397.9h2.8v2.8h-2.8V397.9z M612.5,397.9h2.8v2.8
		h-2.8V397.9z M551.6,397.9h2.8v2.8h-2.8V397.9z"/>
	<path class="st0" d="M574.8,461.4h-18.5c-2.2,0-4,1.8-4,4V565h-15.2c-7.1,0-10.6,8.5-5.6,13.5l28.4,28.4c3.1,3.1,8.1,3.1,11.2,0
		l28.4-28.4c5-5,1.5-13.5-5.6-13.5h-15.2v-99.6C578.7,463.2,577,461.4,574.8,461.4z"/>
</g>
</svg>
