<?xml version="1.0" encoding="utf-8"?>
<!-- Generator: Adobe Illustrator 24.1.0, SVG Export Plug-In . SVG Version: 6.00 Build 0)  -->
<svg version="1.1" xmlns="http://www.w3.org/2000/svg" xmlns:xlink="http://www.w3.org/1999/xlink" x="0px" y="0px"
	 viewBox="0 0 1280 1280" style="enable-background:new 0 0 1280 1280;" xml:space="preserve">
<style type="text/css">
	.st0{fill:#FFFFFF;}
	.st1{fill:none;stroke:#FFFFFF;stroke-miterlimit:10;}
</style>
<g id="Camada_1">
	<g id="XMLID_573_">
	</g>
	<g id="XMLID_572_">
	</g>
	<g id="XMLID_571_">
	</g>
	<g id="XMLID_570_">
	</g>
	<g id="XMLID_569_">
	</g>
	<g id="XMLID_568_">
	</g>
	<g id="XMLID_567_">
	</g>
	<g id="XMLID_566_">
	</g>
	<g id="XMLID_565_">
	</g>
	<g id="XMLID_563_">
	</g>
	<g id="XMLID_556_">
	</g>
	<g id="XMLID_555_">
	</g>
	<g id="XMLID_554_">
	</g>
	<g id="XMLID_553_">
	</g>
</g>
<g id="Camada_2">
	<g>
		<path class="st0" d="M707.8,547.3h21.5c2.5,0,4.6-2.1,4.6-4.6V426.7h17.7c8.2,0,12.3-9.9,6.5-15.7l-33-33c-3.6-3.6-9.4-3.6-13,0
			l-33,33c-5.8,5.8-1.7,15.7,6.5,15.7h17.7v115.9C703.2,545.2,705.3,547.3,707.8,547.3z"/>
		<path class="st0" d="M966.5,448.8H748.7v89.1h195.5v400.9H320.6V537.9h191.6L496,521.7c-6.7-6.7-8.7-16.8-5.1-25.6
			s12.2-14.5,21.7-14.5h3.4v-32.8H298.3c-36.9,0-66.8,29.9-66.8,66.8V961c0,36.9,29.9,66.8,66.8,66.8h267.2l-22.3,66.8H443.1
			c-18.5,0-33.4,14.9-33.4,33.4c0,18.5,14.9,33.4,33.4,33.4h378.6c18.5,0,33.4-14.9,33.4-33.4c0-18.5-14.9-33.4-33.4-33.4H721.5
			l-22.3-66.8h267.2c36.9,0,66.8-29.9,66.8-66.8V515.6C1033.3,478.7,1003.3,448.8,966.5,448.8z"/>
		<path class="st0" d="M689.4,448.8H575.3v32.8h3.4c9.5,0,18.1,5.7,21.7,14.5c3.7,8.8,1.7,18.9-5.1,25.6l-16.2,16.2h110.3V448.8z"/>
		<path class="st1" d="M443.1,1190c-34.2,0-62-27.8-62-62c0-34.2,27.8-62,62-62h79.6l3.2-9.7H298.3c-52.6,0-95.4-42.8-95.4-95.4
			V515.6c0-52.6,42.8-95.4,95.4-95.4h119.5c-23.1-23.7-36.8-55.9-36.8-90c0-47.4,26.2-90.9,67.4-113.3c3.1-33.1,17.8-63.9,41.9-87.3
			c26.3-25.5,60.9-39.6,97.5-39.6c40.7,0,79.5,18,106,48.6c8.9-2.7,18.2-4.1,27.6-4.1c52.6,0,95.4,42.8,95.4,95.4
			c0,1.7,0,3.5-0.1,5.2c40.5,19.4,67,60.7,67,106.2c0,22.5-6.4,44.4-18.5,63.3c-3.5,5.5-7.5,10.8-11.9,15.6h113.1
			c52.6,0,95.4,42.8,95.4,95.4V961c0,52.6-42.8,95.4-95.4,95.4H738.8l3.2,9.7h79.6c34.2,0,62,27.8,62,62c0,34.2-27.8,62-62,62H443.1
			z"/>
		<path class="st1" d="M966.5,434.5H811c34.7-16.8,58.5-52.4,58.5-93.1c0-43.9-27.9-82.6-68.1-97.2c0.8-4.7,1.2-9.4,1.2-14.2
			c0-44.7-36.4-81.1-81.1-81.1c-11.2,0-22.2,2.3-32.4,6.7c-23.5-31.9-61.2-51.3-101.3-51.3c-68,0-123.5,54.2-125.6,121.7
			c-40.4,18.5-66.9,59.1-66.9,104.2c0,46.3,27.6,86.2,67.2,104.3H298.3c-44.7,0-81.1,36.4-81.1,81.1V961c0,44.7,36.4,81.1,81.1,81.1
			h247.4l-12.7,38.2h-89.9c-26.3,0-47.7,21.4-47.7,47.7s21.4,47.7,47.7,47.7h378.6c26.3,0,47.7-21.4,47.7-47.7s-21.4-47.7-47.7-47.7
			h-89.9l-12.7-38.2h247.4c44.7,0,81.1-36.4,81.1-81.1V515.6C1047.5,470.9,1011.2,434.5,966.5,434.5z"/>
		<path class="st0" d="M509.9,430.5h5.7v-50.6c0-10.4,8.5-18.9,18.9-18.9h21.5c10.4,0,18.9,8.5,18.9,18.9v50.6h91.1
			c-0.8-1.2-1.5-2.5-2.1-3.9c-3.7-8.8-1.7-18.9,5.1-25.6l33-33c4.4-4.4,10.3-6.9,16.6-6.9c6.3,0,12.2,2.4,16.6,6.9l33,33
			c6.7,6.7,8.7,16.8,5.1,25.6c-0.6,1.3-1.2,2.6-2,3.8c46.8-2.7,83.8-41.5,83.8-89c0-43.1-30.6-79.1-71.3-87.3
			c2.9-7.4,4.5-15.6,4.5-24.1c0-36.9-29.9-66.8-66.8-66.8c-13.7,0-26.5,4.2-37.1,11.3c-19.3-33.4-55.3-55.8-96.6-55.8
			c-61.5,0-111.4,49.8-111.4,111.4c0,1.9,0.1,3.8,0.1,5.6c-39,13.7-67,50.9-67,94.6C409.6,385.6,454.5,430.5,509.9,430.5z"/>
		<path class="st0" d="M555.9,375.3h-21.5c-2.5,0-4.6,2.1-4.6,4.6v115.9h-17.7c-8.2,0-12.3,9.9-6.5,15.7l33,33c3.6,3.6,9.4,3.6,13,0
			l33-33c5.8-5.8,1.7-15.7-6.5-15.7h-17.7V379.9C560.5,377.3,558.5,375.3,555.9,375.3z"/>
	</g>
</g>
</svg>
