<?xml version="1.0" encoding="utf-8"?>
<!-- Generator: Adobe Illustrator 24.1.0, SVG Export Plug-In . SVG Version: 6.00 Build 0)  -->
<svg version="1.1" xmlns="http://www.w3.org/2000/svg" xmlns:xlink="http://www.w3.org/1999/xlink" x="0px" y="0px"
	 viewBox="0 0 1280 1280" style="enable-background:new 0 0 1280 1280;" xml:space="preserve">
<style type="text/css">
	.st0{fill:none;stroke:#FFFFFF;stroke-miterlimit:10;}
	.st1{fill:#FFFFFF;}
</style>
<g id="Camada_1">
	<g id="XMLID_573_">
	</g>
	<g id="XMLID_572_">
	</g>
	<g id="XMLID_571_">
	</g>
	<g id="XMLID_570_">
	</g>
	<g id="XMLID_569_">
	</g>
	<g id="XMLID_568_">
	</g>
	<g id="XMLID_567_">
	</g>
	<g id="XMLID_566_">
	</g>
	<g id="XMLID_565_">
	</g>
	<g id="XMLID_563_">
	</g>
	<g id="XMLID_556_">
	</g>
	<g id="XMLID_555_">
	</g>
	<g id="XMLID_554_">
	</g>
	<g id="XMLID_553_">
	</g>
</g>
<g id="Camada_2">
	<g>
		<path class="st0" d="M712,928c-27,0-52.8-10.6-72-29c-19.2,18.4-45,29-72,29c-35.8,0-68.6-18.3-87.5-48.3
			c-52.5-3.8-94.4-46.7-96.4-99.8c-29.9-20.7-48.1-55.2-48.1-92c0-30.2,12.8-59.6,34.6-80.5c-1.7-7.8-2.6-15.6-2.6-23.5
			c0-36.8,18.2-71.2,48.1-91.9c1.8-44,33.2-80.9,75.8-90c16.7-30.7,48.8-50.1,84.1-50.1c23.7,0,46.5,8.9,64,24.5
			c17.5-15.6,40.3-24.5,64-24.5c35.3,0,67.5,19.4,84.1,50.1c42.6,9.1,74,46,75.8,89.9c29.9,20.8,48.1,55.2,48.1,91.9
			c0,7.9-0.9,15.8-2.6,23.5c21.8,21,34.6,50.3,34.6,80.5c0,36.8-18.2,71.2-48.1,92c-2,53-43.9,96-96.4,99.8
			C780.6,909.7,747.8,928,712,928z"/>
		<path class="st0" d="M712,912c-29.7,0-56.1-14.8-72-37.5c-15.9,22.6-42.3,37.5-72,37.5c-33.3,0-63.2-18.8-78.1-48
			c-0.6,0-1.3,0-1.9,0c-48.5,0-88-39.5-88-88c0-1.6,0-3.2,0.1-4.8c-29.6-17-48.1-48.4-48.1-83.2c0-29.4,13.8-57,36.7-75.1
			c-3.1-9.5-4.7-19.2-4.7-28.9c0-34.8,18.5-66.2,48.2-83.2c-0.1-1.6-0.2-3.2-0.2-4.8c0-41,30.9-74.8,70.7-79.5
			c12.4-29.1,41.1-48.5,73.3-48.5c26.1,0,49.4,12.6,64,32c14.6-19.4,37.9-32,64-32c32.3,0,60.9,19.4,73.3,48.5
			C817.1,421.2,848,455,848,496c0,1.6-0.1,3.2-0.2,4.8c29.6,17,48.2,48.4,48.2,83.2c0,9.8-1.6,19.5-4.6,28.9
			C914.2,631,928,658.7,928,688c0,34.8-18.5,66.3-48.1,83.2c0.1,1.6,0.1,3.2,0.1,4.8c0,48.5-39.5,88-88,88c-0.6,0-1.3,0-1.9,0
			C775.2,893.2,745.3,912,712,912z"/>
		<path class="st1" d="M912,688c0-29.7-16.3-55.3-40.3-69.1c5.2-10.6,8.3-22.3,8.3-34.9c0-33.4-20.5-62-49.7-74
			c1-4.5,1.7-9.2,1.7-14c0-35.3-28.7-64-64-64c-0.8,0-1.5,0.2-2.2,0.2c-7.1-27.7-31.9-48.2-61.8-48.2c-35.3,0-64,28.6-64,64
			c0-35.3-28.7-64-64-64c-29.9,0-54.7,20.5-61.8,48.2c-0.8,0-1.4-0.2-2.2-0.2c-35.3,0-64,28.7-64,64c0,4.8,0.6,9.5,1.7,14
			c-29.2,12-49.7,40.6-49.7,74c0,12.6,3.2,24.3,8.3,34.9c-24,13.8-40.3,39.4-40.3,69.1c0,33.3,20.4,61.9,49.4,73.9
			c-0.9,4.6-1.4,9.3-1.4,14.1c0,39.8,32.2,72,72,72c4.1,0,8.1-0.5,12-1.2c9.6,28.5,36.2,49.2,68,49.2c39.8,0,72-32.2,72-72
			c0,39.8,32.2,72,72,72c31.8,0,58.4-20.7,68-49.2c3.9,0.7,7.9,1.2,12,1.2c39.8,0,72-32.2,72-72c0-4.8-0.5-9.5-1.4-14.1
			C891.6,749.9,912,721.3,912,688z M713.9,611.7l-83,143.4c-2.1,3.6-5.8,5.7-9.8,5.7c-7.2,0-12.7-6.7-11-13.9l21.7-91.7h-56
			c-6.8,0-12.1-6-11.2-12.8l15.1-113.2c0.8-5.6,5.6-9.8,11.2-9.8h67.9c7.4,0,12.8,7.1,10.9,14.2l-20.1,61.2h54.4
			C712.9,594.7,718.3,604.2,713.9,611.7z"/>
	</g>
</g>
</svg>
