<?xml version="1.0" encoding="utf-8"?>
<!-- Generator: Adobe Illustrator 24.1.0, SVG Export Plug-In . SVG Version: 6.00 Build 0)  -->
<svg version="1.1" id="Camada_1" xmlns="http://www.w3.org/2000/svg" xmlns:xlink="http://www.w3.org/1999/xlink" x="0px" y="0px"
	 viewBox="0 0 1280 1280" style="enable-background:new 0 0 1280 1280;" xml:space="preserve">
<style type="text/css">
	.st0{fill:none;stroke:#FFFFFF;stroke-miterlimit:10;}
	.st1{fill:#FFFFFF;}
</style>
<g id="XMLID_573_">
</g>
<g id="XMLID_572_">
</g>
<g id="XMLID_571_">
</g>
<g id="XMLID_570_">
</g>
<g id="XMLID_569_">
</g>
<g id="XMLID_568_">
</g>
<g id="XMLID_567_">
</g>
<g id="XMLID_566_">
</g>
<g id="XMLID_565_">
</g>
<g id="XMLID_563_">
</g>
<g id="XMLID_556_">
</g>
<g id="XMLID_555_">
</g>
<g id="XMLID_554_">
</g>
<g id="XMLID_553_">
</g>
<g>
	<path class="st0" d="M460.5,916.2c-35.7,0-64.8-29.1-64.8-64.8v-44.8c0-27.5,7.4-54.5,21.5-78.1c10.4-17.5,24.5-33,41-45.3
		l-19.2-44.9c-4.8-11.2-3.6-24,3.1-34.1c6.7-10.1,17.9-16.1,30-16.1h26.7c-3-9.2-5-18.5-6.1-28c-29.8-7.2-64.9-20-64.9-48
		c0-30.1,40.9-43.2,74.4-50.3c10.8-32.2,27.9-62,40.5-77.9c10-12.6,24.9-19.7,40.9-19.7c8,0,16,1.9,23.2,5.5l27.6,13.8
		c1.7,0.8,3.5,1.3,5.4,1.3c1.9,0,3.7-0.4,5.4-1.3l27.6-13.8c7.2-3.6,15.2-5.5,23.2-5.5c16,0,30.8,7.2,40.8,19.7
		c12.6,15.8,29.7,45.6,40.6,78c33.6,7.1,74.5,20.2,74.5,50.3c0,28-35.1,40.8-64.9,48c-1.1,9.5-3.1,18.8-6.1,28h27.7
		c11.9,0,23,5.8,29.7,15.6c6.7,9.7,8.2,22.2,4,33.3l-18.3,48c17.6,13.6,32.1,30.9,42.3,50.3c11.5,21.8,17.5,46.4,17.5,71.2v44.8
		c0,35.7-29.1,64.8-64.8,64.8H460.5z"/>
	<path class="st0" d="M460.5,906.2c-30.2,0-54.8-24.6-54.8-54.8v-44.8c0-25.7,6.9-51,20.1-73c11.1-18.7,26.5-34.7,44.8-46.9
		l-22.4-52.3c-3.4-8.1-2.6-17.3,2.2-24.6c4.8-7.3,12.9-11.6,21.7-11.6h41.2c-6.6-14.9-10.3-30.3-11.3-46.1
		c-43.2-9.5-64.2-22.6-64.2-39.9c0-18.3,23.6-32,72.1-41.7c10.2-32.9,27.9-64.3,40.6-80.3c8.1-10.2,20.1-16,33-16
		c6.5,0,13,1.5,18.8,4.4l27.6,13.8c3,1.5,6.4,2.3,9.8,2.3c3.4,0,6.8-0.8,9.8-2.3l27.6-13.8c5.8-2.9,12.3-4.4,18.8-4.4
		c12.9,0,24.9,5.8,33,15.9c12.7,15.9,30.4,47.3,40.6,80.4c48.6,9.7,72.2,23.3,72.2,41.7c0,17.3-21,30.3-64.2,39.9
		c-0.9,15.8-4.7,31.2-11.3,46.1h42.2c8.6,0,16.6,4.2,21.5,11.2c4.8,7,5.9,16,2.9,24l-21,55.1c38.9,27.2,61.9,70.7,61.9,118v44.8
		c0,30.2-24.6,54.8-54.8,54.8H460.5z"/>
	<path class="st1" d="M799.6,692.5l23.9-62.6c4-10.5-3.7-21.7-15-21.7H750c11-18.9,17.8-40.6,17.8-64v-0.3c39.2-7.8,64-19.1,64-31.7
		c0-13.3-27.3-25.1-70.1-33c-9.2-32.8-27-65.8-40.6-82.8c-9.5-11.9-25.9-15.6-39.5-8.8L654,401.4c-9,4.5-19.6,4.5-28.6,0l-27.6-13.8
		c-13.6-6.8-30-3.1-39.5,8.8c-13.5,17-31.4,50-40.6,82.8c-42.7,7.9-70,19.7-70,33c0,12.6,24.8,23.9,64,31.7v0.3
		c0,23.4,6.8,45.1,17.8,64H472c-11.5,0-19.2,11.7-14.7,22.3l25.8,60.2c-40.1,23.3-67.4,66.2-67.4,115.9v44.8
		c0,24.7,20.1,44.8,44.8,44.8h358.4c24.7,0,44.8-20.1,44.8-44.8v-44.8C863.7,758.2,837.9,716.2,799.6,692.5L799.6,692.5z
		 M591.7,864.2l-41.6-192l49.6,32l24,40L591.7,864.2z M687.7,864.2l-32-120l24-40l49.6-32L687.7,864.2z M729.4,565.7
		c-3.9,11.9-7,24.6-16.5,33.4c-10.1,9.3-48,22.4-64-25c-2.8-8.4-15.4-8.4-18.3,0c-17,50.2-56,32.4-64,25
		c-9.5-8.8-12.7-21.5-16.5-33.4c-0.8-2.5-6.3-5.7-6.3-5.8v-10.8c28.3,3.6,61,5.8,96,5.8s67.7-2.1,96-5.8v10.8
		C735.7,560,730.2,563.1,729.4,565.7z"/>
</g>
</svg>
