<?xml version="1.0" encoding="utf-8"?>
<!-- Generator: Adobe Illustrator 24.1.0, SVG Export Plug-In . SVG Version: 6.00 Build 0)  -->
<svg version="1.1" id="Camada_1" xmlns="http://www.w3.org/2000/svg" xmlns:xlink="http://www.w3.org/1999/xlink" x="0px" y="0px"
	 viewBox="0 0 1280 1280" style="enable-background:new 0 0 1280 1280;" xml:space="preserve">
<style type="text/css">
	.st0{fill:#FFFFFF;}
	.st1{fill:none;stroke:#FFFFFF;stroke-miterlimit:10;}
</style>
<g>
	<path class="st0" d="M476.1,742.1h247.9c0.4-0.7,0.8-1.4,1.1-2.1V534.6h-249V742.1z"/>
	<path class="st0" d="M766.5,687.9c35.1-31.3,79.9-48.4,127.4-48.4c44.9,0,87.4,15.3,121.6,43.5V534.6h-249V687.9z"/>
	<path class="st0" d="M758.2,967.1c-36.2-36.2-56.2-84.4-56.2-135.7c0-16.3,2-32.4,6-47.8h-66v207.5h145.5
		C777,984.1,767.2,976.1,758.2,967.1z"/>
	<rect x="584.6" y="269.6" class="st1" width="405.4" height="239.5"/>
	<rect x="600.6" y="285.6" class="st0" width="373.4" height="207.5"/>
	<rect x="211.1" y="767.6" class="st1" width="405.4" height="239.5"/>
	<rect x="227.1" y="783.6" class="st0" width="373.4" height="207.5"/>
	<rect x="169.6" y="518.6" class="st1" width="281" height="239.5"/>
	<rect x="185.6" y="534.6" class="st0" width="249" height="207.5"/>
	<rect x="211.1" y="269.6" class="st1" width="364" height="239.5"/>
	<rect x="227.1" y="285.6" class="st0" width="332" height="207.5"/>
	<path class="st1" d="M1167.5,1007.2l-84.3-84.3c-0.6-0.6-1.2-1.2-1.8-1.8c13.3-27.8,20.3-58.5,20.3-89.7
		c0-52.3-19.2-101.6-54.2-140V502.6H1006v-249H591.1h-22.5H195.1v249h-41.5v271.5h41.5v249H610h22.5h180.8
		c25.2,10.6,52.4,16.1,80.6,16.1c31.3,0,62-7,89.7-20.3c0.6,0.6,1.2,1.2,1.8,1.8l84.3,84.3c9.9,9.9,23,15.3,37,15.3
		c14,0,27.2-5.5,36.9-15.3l23.9-23.9C1187.8,1060.9,1187.8,1027.7,1167.5,1007.2z"/>
	<path class="st1" d="M1156.2,1018.5l-84.3-84.3c-3.3-3.3-7.2-5.9-11.4-7.7c16.5-28.8,25.1-61.2,25.1-95.1
		c0-50.3-19.2-97.7-54.2-133.6V518.6h-281v185.3c-3.3,3.7-6.4,7.5-9.4,11.4V518.6h-281v239.5h256.4c-1.3,3.1-2.5,6.3-3.6,9.5H626
		v239.5h190.6c24,10.6,50.2,16.1,77.3,16.1c33.9,0,66.3-8.6,95.1-25.1c1.8,4.2,4.4,8.1,7.7,11.4l84.3,84.3
		c6.9,6.9,16,10.6,25.7,10.6c9.7,0,18.8-3.8,25.6-10.6l23.9-23.9C1170.3,1055.8,1170.3,1032.7,1156.2,1018.5z"/>
	<path class="st0" d="M1144.9,1029.8l-84.3-84.3c-3.8-3.8-9-5.9-14.4-5.9h-13.8c23.3-29.8,37.2-67.4,37.2-108.2
		c0-97.1-78.7-175.8-175.8-175.8S718,734.3,718,831.4s78.7,175.8,175.8,175.8c40.8,0,78.4-13.9,108.2-37.2v13.8
		c0,5.4,2.1,10.6,5.9,14.4l84.3,84.3c7.9,7.9,20.8,7.9,28.7,0l23.9-23.9C1152.8,1050.6,1152.8,1037.8,1144.9,1029.8z M893.8,939.6
		c-59.8,0-108.2-48.4-108.2-108.2c0-59.8,48.4-108.2,108.2-108.2c59.8,0,108.2,48.4,108.2,108.2C1002,891.2,953.7,939.6,893.8,939.6
		z"/>
</g>
</svg>
