<?xml version="1.0" encoding="utf-8"?>
<!-- Generator: Adobe Illustrator 24.1.0, SVG Export Plug-In . SVG Version: 6.00 Build 0)  -->
<svg version="1.1" id="Camada_1" xmlns="http://www.w3.org/2000/svg" xmlns:xlink="http://www.w3.org/1999/xlink" x="0px" y="0px"
	 viewBox="0 0 1280 1280" style="enable-background:new 0 0 1280 1280;" xml:space="preserve">
<style type="text/css">
	.st0{fill:#FFFFFF;}
	.st1{fill:none;stroke:#FFFFFF;stroke-miterlimit:10;}
</style>
<path class="st0" d="M759.4,387.5l-1.6,7.5c-0.8,3.6,1.6,7.2,4.7,7.2h36.3c3.2,0,5.5-3.5,4.7-7.2l-1.6-7.5
	c12-6.5,20.2-18.1,20.2-31.5c0-20.4-18.6-36.9-41.5-36.9s-41.5,16.5-41.5,36.9C739.2,369.5,747.4,381.1,759.4,387.5z M803.7,354.6
	c1.4,1.6,2.3,3.8,2.3,6.1c0,5.1-4.1,9.2-9.2,9.2c-4.1,0-7.5-2.6-8.7-6.3L803.7,354.6z M757.6,354.7l15.7,9.1
	c-1.3,3.6-4.7,6.2-8.7,6.2c-5.1,0-9.2-4.1-9.2-9.2C755.4,358.4,756.2,356.3,757.6,354.7z"/>
<path class="st0" d="M842.7,449.7l-40.9-19.9l40.9-19.9c2.3-1.1,3.2-3.9,2.1-6.2l-4.1-8.2c-1.1-2.3-3.9-3.2-6.2-2.1l-53.7,26.1
	L727,393.4c-2.3-1.1-5-0.2-6.2,2.1l-4.1,8.2c-1.1,2.3-0.2,5,2.1,6.2l40.9,19.9l-40.9,19.9c-2.3,1.1-3.2,3.9-2.1,6.2l4.1,8.2
	c1.1,2.3,3.9,3.2,6.2,2.1l53.7-26.1l53.7,26.1c2.3,1.1,5,0.2,6.2-2.1l4.1-8.2C845.9,453.6,844.9,450.8,842.7,449.7z"/>
<path class="st1" d="M402.8,900V525.4l98.6,78.9v-78.9l98.6,78.9v-78.9l104.6,83.7l11.2-111.6c-10.1-2.6-18.7-9.4-23.5-19.1
	l-4.1-8.2c-4.4-8.7-5.1-18.7-2-28c1.5-4.6,4-8.8,7.1-12.4c-3.1-3.6-5.5-7.8-7.1-12.4c-3.1-9.3-2.4-19.2,2-27.9l4.1-8.2
	c3.5-7,9-12.6,15.7-16.1c-0.4-3-0.6-6-0.6-9c0-38,33-68.9,73.5-68.9c40.5,0,73.5,30.9,73.5,68.9c0,3-0.2,6.1-0.6,9
	c6.7,3.5,12.2,9,15.7,16.1l4.1,8.2c4.4,8.7,5.1,18.7,2,27.9c-1.6,4.6-4,8.9-7.1,12.4c9.4,10.9,11.9,26.7,5.1,40.4l-4.1,8.3
	c-5.1,10.2-14.4,17.2-25.2,19.5l17.1,171.4V900H402.8z"/>
<path class="st1" d="M849.8,435.4l-11.5-5.6l11.5-5.6c4.9-2.5,8.6-6.7,10.3-11.9c1.7-5.2,1.3-10.8-1.1-15.7l-4.1-8.2
	c-3.5-7-10.6-11.4-18.4-11.4c-1.1,0-2.1,0.1-3.2,0.3c3.2-6.6,4.9-13.8,4.9-21.1c0-29.2-25.8-52.9-57.5-52.9s-57.5,23.7-57.5,52.9
	c0,7.4,1.7,14.5,4.9,21.1c-1-0.2-2.1-0.3-3.2-0.3c-7.9,0-14.9,4.4-18.4,11.4l-4.1,8.2c-2.5,4.9-2.9,10.5-1.1,15.7
	c1.7,5.2,5.4,9.5,10.3,11.9l11.5,5.6l-11.5,5.6c-4.9,2.5-8.6,6.7-10.3,11.9c-1.7,5.2-1.3,10.8,1.1,15.7l4.1,8.2
	c3.5,7,10.6,11.4,18.4,11.4c2.9,0,5.9-0.6,8.5-1.9L717.6,640L616,558.7v78.9l-98.6-78.9v78.9l-98.6-78.9V884h426.4V670l-19-190.1
	l1.2,0.6c2.8,1.4,6,2.1,9.1,2.1c0,0,0,0,0,0c7.9,0,14.9-4.4,18.4-11.4l4.1-8.3C864.1,452.8,860,440.4,849.8,435.4z"/>
<path class="st0" d="M474.2,789.2v39.4h78.9v-39.4H474.2 M474.2,710.3v39.4h197.2v-39.4H474.2 M592.5,789.2v39.4h78.9v-39.4H592.5
	 M710.8,710.3v39.4h78.9v-39.4H710.8 M710.8,789.2v39.4h78.9v-39.4H710.8 M434.8,868V592l98.6,78.9V592l98.6,78.9V592l98.6,78.9
	l19.7-197.2h59.2l19.7,197.2V868H434.8z"/>
</svg>
