<?xml version="1.0" encoding="utf-8"?>
<!-- Generator: Adobe Illustrator 24.1.0, SVG Export Plug-In . SVG Version: 6.00 Build 0)  -->
<svg version="1.1" xmlns="http://www.w3.org/2000/svg" xmlns:xlink="http://www.w3.org/1999/xlink" x="0px" y="0px"
	 viewBox="0 0 1280 1280" style="enable-background:new 0 0 1280 1280;" xml:space="preserve">
<style type="text/css">
	.st0{fill:none;stroke:#FFFFFF;stroke-miterlimit:10;}
	.st1{fill:#FFFFFF;}
</style>
<g id="Camada_1">
	<g id="XMLID_573_">
	</g>
	<g id="XMLID_572_">
	</g>
	<g id="XMLID_571_">
	</g>
	<g id="XMLID_570_">
	</g>
	<g id="XMLID_569_">
	</g>
	<g id="XMLID_568_">
	</g>
	<g id="XMLID_567_">
	</g>
	<g id="XMLID_566_">
	</g>
	<g id="XMLID_565_">
	</g>
	<g id="XMLID_563_">
	</g>
	<g id="XMLID_556_">
	</g>
	<g id="XMLID_555_">
	</g>
	<g id="XMLID_554_">
	</g>
	<g id="XMLID_553_">
	</g>
</g>
<g id="Camada_2">
	<g>
		<path class="st0" d="M452.1,893.2c-35.3,0-64-28.7-64-64V748c0-93.1,11.8-162.1,37.3-217c30.4-65.7,79.7-110,150.6-135.5l202-75.6
			c4.7-1.7,9.4-2.6,14.3-2.6c18.8,0,35.2,12.6,39.9,30.6c7.5,28.6,4.5,54.9-8.8,78.1c7.5,4.4,14.5,9.5,21.2,15.1
			c20.3,17.3,36,39.6,45.2,64.6l69.7,163.8l0.3,0.7c9.2,23.5,3.6,50.3-14,68.4l-0.4,0.4l-0.9,0.8l-0.4,0.4l-44.7,39.2
			c-12,11.6-27.7,17.9-44.4,17.9h-50.3c-20.6,0-40.1-10-52-26.7l-30.8-42.8c-3.7,1.2-7.4,2.1-11.1,2.9l34.9,69.9
			c10,19.9,9,43.2-2.7,62.2c-11.7,19-32.1,30.4-54.5,30.4H452.1z"/>
		<path class="st0" d="M452.1,877.2c-26.5,0-48-21.5-48-48V748c0-90.7,11.4-157.5,35.8-210.3c28.5-61.6,74.8-103.2,141.6-127.2
			l202.1-75.7c2.8-1,5.7-1.6,8.7-1.6c11.5,0,21.6,7.7,24.4,18.6c6.4,24.6,3.9,47.1-7.5,66.6c-2.9,4.9-6.1,9.3-9.5,13.2
			c12.5,5.4,24.1,12.7,34.5,21.5c18.4,15.6,32.4,35.7,40.7,58.3l69.7,163.9l0.2,0.5c6.9,17.6,2.7,37.8-10.6,51.4l-0.9,0.8
			l-44.9,39.5c-9,8.8-20.9,13.7-33.5,13.7h-50.3c-15.5,0-30.1-7.5-39-20l-38-52.8c-13.5,5.8-27.5,8.8-41.8,8.8c-2.7,0-5.4-0.1-8-0.3
			l9.7,10.5l2.9-1.5l40.8,81.7c7.5,14.9,6.8,32.4-2,46.6c-8.8,14.3-24.1,22.8-40.9,22.8H452.1z"/>
		<path class="st1" d="M929.9,681.7L860,517.4c-14.9-41.2-50.4-71-93-79.2c18-10.6,46.3-35.9,34.2-82.3c-1.3-5-7.1-7.9-12-6.1
			L587,425.5C456,472.6,420.1,588.1,420.1,748v81.2c0,17.7,14.3,32,32,32h236.2c23.8,0,39.3-25,28.6-46.3l-40.8-81.7v-0.7
			c-45.6-3.5-84.6-30.7-104.3-69.6c-1.6-3.1-0.9-6.9,1.6-9.3l12.1-12.1c3.9-3.9,10.6-2.7,12.9,2.4c14.8,33.7,48.2,57.4,87.4,57.4
			c17.2,0,33-5.1,46.8-13.2l46,63.9c6,8.4,15.7,13.3,26,13.3h50.3c8.5,0,16.6-3.4,22.6-9.4l45.3-39.8
			C931.7,707,934.5,693.5,929.9,681.7L929.9,681.7z M748.1,573.2c-13.3,0-24-10.7-24-24c0-13.3,10.7-24,24-24s24,10.7,24,24
			C772.1,562.5,761.4,573.2,748.1,573.2z"/>
	</g>
</g>
</svg>
