<?xml version="1.0" encoding="utf-8"?>
<!-- Generator: Adobe Illustrator 24.1.0, SVG Export Plug-In . SVG Version: 6.00 Build 0)  -->
<svg version="1.1" xmlns="http://www.w3.org/2000/svg" xmlns:xlink="http://www.w3.org/1999/xlink" x="0px" y="0px"
	 viewBox="0 0 1280 1280" style="enable-background:new 0 0 1280 1280;" xml:space="preserve">
<style type="text/css">
	.st0{fill:#FFFFFF;}
	.st1{fill:none;stroke:#FFFFFF;stroke-miterlimit:10;}
</style>
<g id="Camada_1">
	<g id="XMLID_573_">
	</g>
	<g id="XMLID_572_">
	</g>
	<g id="XMLID_571_">
	</g>
	<g id="XMLID_570_">
	</g>
	<g id="XMLID_569_">
	</g>
	<g id="XMLID_568_">
	</g>
	<g id="XMLID_567_">
	</g>
	<g id="XMLID_566_">
	</g>
	<g id="XMLID_565_">
	</g>
	<g id="XMLID_563_">
	</g>
	<g id="XMLID_556_">
	</g>
	<g id="XMLID_555_">
	</g>
	<g id="XMLID_554_">
	</g>
	<g id="XMLID_553_">
	</g>
</g>
<g id="Camada_2">
	<g>
		<path class="st0" d="M581.3,672.5l-19.9-39.8l10.5-17c37.4,0,76.1,0,102.9,13.5c16.9,8.4,28.4,21.6,37.4,35.5
			c62.5-16.9,112.2-51.9,112.2-92.1c0-42.3-55-78.6-122.1-94.7c-13.3-25.5-28.3-49.4-54.3-62.3c-30.6-15.4-76.6-15.4-122.6-15.4
			l38.2,76.3c-53.8,12.2-98,38.6-112.9,71.3c-2.1-11-5.1-21.2-9.7-28.7c-15.2-26.9-46-26.9-76.6-26.9c25.3,0,34.5,36.1,34.5,80.5
			c0,44.4-9.2,80.5-34.5,80.5c30.6,0,61.4,0,76.6-26.9c4.6-7.6,7.6-17.7,9.7-28.7C467.3,633.4,519.3,662.1,581.3,672.5z
			 M710.5,546.4l43.3,11.3c-0.3,12.4-10.5,22.4-23,22.4c-12.7,0-23-10.3-23-23C707.8,553.3,708.8,549.6,710.5,546.4z"/>
		<path class="st1" d="M617.5,921.1l-11.4-14.6l-2.1-10.1l7.3-29c-37.3-6.3-70-20-92.9-38.9c-19.8,23.8-51.3,23.8-74.8,23.8
			l-11.7-11.7v-23.5l11.7-11.7c-1.6,0-2.8,0.7-3,1c2.3-2.2,7-15.3,7-41.6s-4.7-39.4-7-41.6c0.3,0.2,1.4,1,3,1l-11.7-11.7v-23.5
			l11.7-11.7c23.6,0,55.1,0,74.9,23.9c6.3-5.1,13.3-9.9,21-14.2c-33-9.9-61.4-24.7-82-43c-22.7,32.6-61.5,32.6-93.1,32.6l-11.7-11.7
			v-23.5l11.7-11.7c-0.1,0-0.3,0-0.3,0.1c2.4-1.1,11.3-14,11.3-57.1c0-43.1-8.9-56-11.3-57.1c0.1,0,0.2,0.1,0.3,0.1l-11.7-11.7
			v-23.5l11.7-11.7c31.6,0,70.4,0,93.1,32.6c18.4-16.3,43.4-30,72.3-39.7l-25.5-50.9l0.5-11.4l10.5-17l10-5.6
			c48,0,97.5,0,133.1,17.9c29.1,14.4,46.5,39.5,59.5,63.1c80.2,21.8,129.7,65.5,129.7,114.9c0,41.9-36.4,80.2-96.8,104
			c51.5,19.6,82.4,52.1,82.4,88.2c0,50.9-58.6,83.7-110.6,97.1c-13.7,17.9-28.1,35.6-41.7,46.4c-21.8,17.4-40.6,17.4-54.4,17.4
			L617.5,921.1z"/>
		<path class="st1" d="M720.6,679.2c-0.7-1.4-1.5-2.7-2.2-4.1c71.6-20.2,117.7-60.2,117.7-102.6c0-44.4-49.2-85.2-125.9-104.9
			c-12.6-23.5-28.7-48.7-56.9-62.7c-33.1-16.7-81.2-16.7-127.8-16.7l-10.5,17l31.6,63.3c-39.7,11.1-72,29.4-91.7,51.7
			c-1.2-2.6-2.4-5.1-3.8-7.3c-18.6-32.7-54.8-32.7-86.7-32.7v23.5c14,0,22.8,26.3,22.8,68.7c0,42.4-8.7,68.7-22.8,68.7v23.5
			c31.9,0,68.1,0,86.7-32.7c1.3-2.2,2.6-4.7,3.8-7.3c24.6,27.8,68.3,49.3,121.1,58.7c-25.1,8.6-45.8,20.9-59.7,35.6
			c-0.5-1-1-1.9-1.6-2.8c-15.5-27.2-45-27.2-71.1-27.2v23.5c9.4,0,15.7,21,15.7,52.4c0,31.3-6.3,52.4-15.7,52.4v23.5
			c26.1,0,55.6,0,71.1-27.2c0.5-0.9,1.1-1.8,1.6-2.8c22.9,24,63.1,41.6,109.7,47.1l-10.5,41.6l11.4,14.6c12.7,0,28.5,0,47.1-14.8
			c12.3-9.8,25.9-26.2,42.1-47.6c53.3-12.7,105.7-44,105.7-86.7C821.7,728.5,782.2,695.2,720.6,679.2z"/>
		<path class="st0" d="M712.7,689.3c-10.6-20.3-22.5-39.4-43.2-49.6c-24.4-12.3-61-12.3-97.6-12.3l30.4,60.8
			c-42.9,9.7-78,30.8-89.9,56.8c-1.6-8.8-4-16.9-7.7-22.9c-12.1-21.4-36.6-21.4-61-21.4c20.1,0,27.5,28.8,27.5,64.1
			c0,35.4-7.3,64.1-27.5,64.1c24.4,0,48.9,0,61-21.4c3.7-6,6-14.1,7.7-22.9c15.4,33.3,68.7,58.8,128.4,62.6l-13.9,55
			c12.3,0,24.4,0,39.7-12.3c12.6-10.1,27.5-28.8,42.7-48.9c55-12.1,100.7-41.8,100.7-76.2C810,731.1,766.2,702.1,712.7,689.3z
			 M735.5,770.8c-10.1,0-18.3-8.2-18.3-18.3c0-3.1,0.8-6,2.1-8.5l34.5,9C753.5,762.9,745.4,770.8,735.5,770.8z"/>
	</g>
</g>
</svg>
