<?xml version="1.0" encoding="utf-8"?>
<!-- Generator: Adobe Illustrator 24.1.0, SVG Export Plug-In . SVG Version: 6.00 Build 0)  -->
<svg version="1.1" id="Camada_1" xmlns="http://www.w3.org/2000/svg" xmlns:xlink="http://www.w3.org/1999/xlink" x="0px" y="0px"
	 viewBox="0 0 1280 1280" style="enable-background:new 0 0 1280 1280;" xml:space="preserve">
<style type="text/css">
	.st0{fill:#FFFFFF;}
	.st1{fill:none;stroke:#FFFFFF;stroke-miterlimit:10;}
</style>
<g>
	<g id="XMLID_444_">
		
			<image style="overflow:visible;opacity:0.5;" width="601" height="105" xlink:href="1782F07B.png"  transform="matrix(1 0 0 1 291.1808 355.572)">
		</image>
		<g>
			<path class="st0" d="M881.4,357.3H301.5c-4.8,0-8.8,3.9-8.8,8.8V459h597.4V366C890.2,361.2,886.3,357.3,881.4,357.3z
				 M347.3,425.6c-8.8,0-16-7.2-16-16c0-8.8,7.2-16,16-16c8.8,0,16,7.2,16,16C363.3,418.4,356.1,425.6,347.3,425.6z M395.9,425.6
				c-8.8,0-16-7.2-16-16c0-8.8,7.2-16,16-16s16,7.2,16,16C411.9,418.4,404.7,425.6,395.9,425.6z M444.5,425.6c-8.8,0-16-7.2-16-16
				c0-8.8,7.2-16,16-16c8.8,0,16,7.2,16,16C460.5,418.4,453.3,425.6,444.5,425.6z"/>
		</g>
	</g>
	<g>
		<path class="st0" d="M771.5,687.3l111.7-24.6l7-1.5V480.3H292.8v351.1c0,4.8,3.9,8.8,8.8,8.8h470V687.3z M451.7,719.5l83.7-85.3
			v-2.5l-83.7-84.9h59.9l84.3,85.9l-84.3,86.9H451.7z M584.1,774.1v-44.1h147.1v44.1H584.1z"/>
	</g>
	<path class="st1" d="M922.2,637.7V491v-42.6V366c0-22.5-18.3-40.8-40.8-40.8H301.5c-22.5,0-40.8,18.3-40.8,40.8v82.3V491v340.5
		c0,22.5,18.3,40.8,40.8,40.8h454v24.2l129.9,24.9l19,3.6v0l155.7,29.7V607.2L922.2,637.7z"/>
	<path class="st1" d="M906.2,657.6V475v-10.6V366c0-13.6-11.1-24.8-24.8-24.8H301.5c-13.6,0-24.8,11.1-24.8,24.8v98.3V475v356.5
		c0,13.6,11.1,24.8,24.8,24.8h470v27l116.9,22.4v0l155.7,29.7V627.1L906.2,657.6z"/>
	<path class="st0" d="M787.5,774.5v-74.3l84.9-18.7v91.7L787.5,774.5 M1028.2,647.1v123.9L886.6,773v-94.7L1028.2,647.1
		 M787.5,788.6l84.9,1.3v96.4L787.5,870V788.6 M1028.2,792.2V916l-141.6-27v-99L1028.2,792.2z"/>
</g>
</svg>
