<?xml version="1.0" encoding="utf-8"?>
<!-- Generator: Adobe Illustrator 24.1.0, SVG Export Plug-In . SVG Version: 6.00 Build 0)  -->
<svg version="1.1" id="Camada_1" xmlns="http://www.w3.org/2000/svg" xmlns:xlink="http://www.w3.org/1999/xlink" x="0px" y="0px"
	 viewBox="0 0 1280 1280" style="enable-background:new 0 0 1280 1280;" xml:space="preserve">
<style type="text/css">
	.st0{fill:#FFFFFF;}
	.st1{fill:none;stroke:#FFFFFF;stroke-miterlimit:10;}
</style>
<g>
	<path class="st0" d="M566.7,786.9l79.2-79.1l-11.1-11.1c-2.5,0.3-5.1,0.5-7.7,0.6l-0.3,0c-18.3,0-35.6-7.2-48.5-20.1
		c-1.5-1.5-3-3.1-4.4-4.8c-38.6-0.2-69.9-31.5-69.9-70.1c0-38.7,31.4-70.2,70.2-70.2c23,0,43.3,11,56.1,28.1
		c27.9,1.4,52.3,19.6,61.4,46.2c2.5,7.2,3.7,14.7,3.7,22.3l0,0.3c0,2.6-0.2,5.1-0.6,7.7l16.5,16.5l22.8-22.8l-11-8.7
		c0.8-6.4,1.4-12.8,1.4-19.4c0-6.6-0.6-13.2-1.4-20l42.3-32.7c3.8-3,4.8-8.4,2.4-12.8l-40.1-69.4c-2.4-4.4-7.8-6.2-12.2-4.4
		l-49.9,20c-10.4-7.8-21.2-14.6-33.9-19.6l-7.4-53.1c-0.8-4.8-5-8.4-10-8.4h-80.2c-5,0-9.2,3.6-10,8.4l-7.4,53.1
		c-12.6,5-23.5,11.8-33.9,19.6l-49.9-20c-4.4-1.8-9.8,0-12.2,4.4l-40.1,69.4c-2.6,4.4-1.4,9.8,2.4,12.8l42.3,32.7
		c-0.8,6.8-1.4,13.4-1.4,20c0,6.6,0.6,13,1.4,19.4L383,655c-3.8,3-5,8.4-2.4,12.8l40.1,69.4c2.4,4.4,7.8,6,12.2,4.4l49.9-20.2
		c10.4,8,21.2,14.8,33.9,19.8l7.4,53.1c0.8,4.8,5,8.4,10,8.4h24.5C559.6,796.9,562.2,791.4,566.7,786.9z"/>
	<path class="st1" d="M782.9,702.1L798,687h32.8l45.5-91l-58.9-58.9l-16.4,8.2c0.7-8-0.9-16.3-5.1-23.9l-0.2-0.4l-40.2-69.5
		c-7.4-13.1-21.4-21.3-36.5-21.3c-5.4,0-10.6,1-15.5,3l-34,13.6c-2.9-1.8-5.7-3.5-8.6-5l-5-36.1l-0.1-0.8
		c-3.4-20.4-20.9-35.2-41.6-35.2h-80.2c-20.7,0-38.2,14.8-41.6,35.2l-0.1,0.4l-5.1,36.5c-2.8,1.6-5.7,3.2-8.6,5l-33.9-13.6
		c-5-2-10.2-3-15.6-3c-15.1,0-29.1,8.2-36.5,21.3l-39.9,69c-10.5,17.9-6.1,41.2,10.2,54.1l28.8,22.3c-0.1,1.8-0.1,3.6-0.1,5.3
		c0,1.6,0,3.3,0.1,4.9l-28.8,22.7c-16.3,12.9-20.7,36.1-10.3,54l39.9,69.1c7.4,13.1,21.4,21.2,36.6,21.2c4.9,0,9.8-0.9,14.4-2.5
		l0.5-0.2l34.3-13.9c2.9,1.8,5.8,3.5,8.7,5.1l5,36.1l0.1,0.8c3.4,20.4,20.9,35.2,41.6,35.2h17.2c1.2,1.6,2.6,3.2,4.1,4.7l18.8,18.8
		c8.5,8.5,19.8,13.1,31.8,13.1s23.3-4.7,31.9-13.2l67.9-67.8l68,67.9c8.5,8.5,19.8,13.1,31.8,13.1c12,0,23.3-4.7,31.9-13.2
		l18.8-18.8c17.5-17.6,17.4-46.1,0-63.7L782.9,702.1z"/>
	<path class="st1" d="M760.3,702.1l31.1-31.1H821l35.9-71.8l-42.6-42.6l-71.8,35.9v24l-2.4-1.9c0.3-3.8,0.6-8,0.6-12.3
		c0-4.4-0.2-8.8-0.6-12.8l35.4-27.3c9.9-7.9,12.7-21.8,6.5-33l-0.1-0.2l-40.1-69.4c-4.6-8.2-13.2-13.2-22.6-13.2
		c-3.3,0-6.5,0.6-9.6,1.9l-41.7,16.8c-7.3-5-14.4-9.2-21.5-12.6l-6.2-44.3l-0.1-0.4c-2.1-12.6-13-21.8-25.8-21.8h-80.2
		c-12.8,0-23.7,9.2-25.8,21.8l0,0.2l-6.2,44.5c-7.1,3.4-14.1,7.5-21.5,12.6l-41.7-16.8c-3-1.2-6.3-1.9-9.6-1.9
		c-9.4,0-18,5.1-22.6,13.2l-40,69.2c-6.5,11.1-3.8,25.5,6.3,33.4l35.4,27.3c-0.3,4.1-0.6,8.4-0.6,12.8c0,4.3,0.2,8.5,0.6,12.3
		l-35.4,27.8c-10.1,8-12.8,22.3-6.3,33.4l40,69.2c4.5,8.1,13.2,13.1,22.7,13.1c3.1,0,6.1-0.5,9-1.6l0.3-0.1l41.9-17
		c7.3,5.1,14.3,9.3,21.5,12.7l6.2,44.3l0.1,0.4c2.1,12.6,13,21.8,25.8,21.8h26.3c1.4,3.4,3.5,6.6,6.3,9.4l18.7,18.7
		c5.5,5.5,12.8,8.5,20.6,8.5c7.8,0,15.1-3,20.6-8.5l79.3-79.1l79.3,79.1c5.5,5.5,12.8,8.5,20.6,8.5c7.8,0,15.1-3,20.6-8.5L845,828
		c11.3-11.3,11.3-29.8,0-41.1L760.3,702.1z"/>
	<path class="st0" d="M833.6,816.8l-18.7,18.7c-5.1,5.1-13.4,5.1-18.6,0L640,679.4c-4.3,1.2-8.7,1.9-13.2,2
		c-29.1,0-52.6-23.6-52.6-52.7c0-5.8,1-11.6,2.9-17.1l33.4,33.4l7-7l18.7-18.7l7-7l-33.4-33.4c27.5-9.4,57.4,5.2,66.9,32.7
		c1.9,5.5,2.9,11.3,2.9,17.1c-0.1,4.5-0.7,8.9-2,13.2l156.1,156.4C838.7,803.3,838.7,811.6,833.6,816.8 M578,798.2
		c-5.1,5.1-5.1,13.4,0,18.6l18.7,18.7c5.1,5.1,13.4,5.1,18.6,0l72-71.9L650,726.3 M811.1,576l-52.6,26.3v26.3l-28.6,28.6l26.3,26.3
		l28.6-28.6h26.3l26.3-52.6L811.1,576z"/>
</g>
</svg>
