<?xml version="1.0" encoding="utf-8"?>
<!-- Generator: Adobe Illustrator 24.1.0, SVG Export Plug-In . SVG Version: 6.00 Build 0)  -->
<svg version="1.1" id="Camada_1" xmlns="http://www.w3.org/2000/svg" xmlns:xlink="http://www.w3.org/1999/xlink" x="0px" y="0px"
	 viewBox="0 0 1280 1280" style="enable-background:new 0 0 1280 1280;" xml:space="preserve">
<style type="text/css">
	.st0{fill:#9E6951;}
	.st1{fill:#723F2B;}
	.st2{fill:#512518;}
	.st3{fill:#FFFFFF;}
</style>
<g>
	<g id="Grupo_535_17_" transform="translate(9 9)">
		<g transform="matrix(1, 0, 0, 1, -9, -9)">
			<g id="folder_2_2_30_">
				<path class="st0" d="M510.4,141.8H141.1C73.3,141.6,18.2,196.3,18,264.1c0,0.3,0,0.6,0,0.9v738.6c0,68,55.1,123.1,123.1,123.1
					h984.8c68,0,123.1-55.1,123.1-123.1l0,0V388c0-68-55.1-123.1-123-123.1c0,0,0,0-0.1,0H633.5L510.4,141.8z"/>
			</g>
		</g>
	</g>
</g>
<path class="st1" d="M92.9,152.2c-43,18.9-73.2,61.9-73.3,111.9c0,0.3,0,0.6,0,0.9v738.6c0,68,55.1,123.1,123.1,123.1h925.5"/>
<g>
	<line class="st2" x1="152.6" y1="693.6" x2="1113.6" y2="693.6"/>
	<rect x="152.6" y="680.3" class="st2" width="961" height="26.5"/>
</g>
<g>
	<rect x="619.8" y="394" class="st3" width="26.5" height="599.4"/>
</g>
<g>
	<circle class="st2" cx="633.5" cy="371.1" r="11.5"/>
</g>
<g>
	<line class="st2" x1="421.2" y1="905.6" x2="845" y2="481.8"/>
	
		<rect x="333.4" y="680.4" transform="matrix(0.7071 -0.7071 0.7071 0.7071 -305.0862 650.842)" class="st2" width="599.4" height="26.5"/>
</g>
<g>
	<circle class="st2" cx="633.2" cy="1020.2" r="11.5"/>
</g>
</svg>
