<?xml version="1.0" encoding="utf-8"?>
<!-- Generator: Adobe Illustrator 24.1.0, SVG Export Plug-In . SVG Version: 6.00 Build 0)  -->
<svg version="1.1" id="Camada_1" xmlns="http://www.w3.org/2000/svg" xmlns:xlink="http://www.w3.org/1999/xlink" x="0px" y="0px"
	 viewBox="0 0 1280 1280" style="enable-background:new 0 0 1280 1280;" xml:space="preserve">
<style type="text/css">
	.st0{fill:#F40FF4;}
	.st1{fill:#C40CBF;}
	.st2{fill:#960896;}
	.st3{fill:#FFFFFF;}
</style>
<g>
	<g id="Grupo_535_15_" transform="translate(9 9)">
		<g transform="matrix(1, 0, 0, 1, -9, -9)">
			<g id="folder_2_2_27_">
				<g>
					<path class="st0" d="M520.6,138.6H147.4C78.9,138.4,23.2,193.7,23,262.2c0,0.3,0,0.6,0,0.9v746.4
						c0,68.7,55.7,124.4,124.4,124.4h995.2c68.7,0,124.4-55.7,124.4-124.4l0,0v-622c0-68.7-55.6-124.4-124.3-124.4c0,0,0,0-0.1,0
						H645L520.6,138.6z"/>
				</g>
			</g>
		</g>
	</g>
</g>
<g>
	<path class="st1" d="M98.7,149.1c-43.5,19.1-73.9,62.5-74.1,113.1c0,0.3,0,0.6,0,0.9v746.4c0,68.7,55.7,124.4,124.4,124.4h935.3"/>
</g>
<g>
	<rect x="159" y="682.8" class="st2" width="971.2" height="26.8"/>
</g>
<g>
	
		<rect x="631.2" y="393.5" transform="matrix(0.7071 -0.7071 0.7071 0.7071 -303.5774 659.7404)" class="st3" width="26.8" height="605.7"/>
</g>
<g>
	<rect x="631.2" y="393.5" class="st3" width="26.8" height="605.7"/>
</g>
<g>
	
		<rect x="341.7" y="682.9" transform="matrix(0.7071 -0.7071 0.7071 0.7071 -303.5774 659.7404)" class="st2" width="605.7" height="26.8"/>
</g>
<g>
	<circle class="st2" cx="645" cy="370.3" r="11.6"/>
</g>
<g>
	<circle class="st3" cx="412.7" cy="464.4" r="11.6"/>
</g>
<g>
	<circle class="st2" cx="876.5" cy="464.4" r="11.6"/>
</g>
<g>
	<circle class="st3" cx="878.3" cy="930" r="11.6"/>
</g>
<g>
	<circle class="st2" cx="410.9" cy="930" r="11.6"/>
</g>
<g>
	<circle class="st2" cx="644.7" cy="1026.3" r="11.6"/>
</g>
<g>
	<path class="st2" d="M515.6,664l-26.1-6.4c14.1-57.7,58.7-102.3,116.5-116.4l6.3,26.1C564.4,579,527.4,616.1,515.6,664z"/>
</g>
<g>
	<path class="st3" d="M606,849.6c-57.1-13.9-101.6-58-116.1-115l26-6.6c12,47.3,49,83.9,96.4,95.5L606,849.6z"/>
</g>
<g>
	<path class="st2" d="M682.9,849.2l-6.6-26c46.9-11.9,83.4-48.4,95.3-95.3l26,6.6C783.2,791,739.3,834.9,682.9,849.2z"/>
</g>
<g>
	<path class="st3" d="M771.8,664c-11.6-47.5-48.2-84.4-95.6-96.4l6.6-26c57,14.5,101.1,58.9,115,116L771.8,664z"/>
</g>
</svg>
