<?xml version="1.0" encoding="utf-8"?>
<!-- Generator: Adobe Illustrator 24.1.0, SVG Export Plug-In . SVG Version: 6.00 Build 0)  -->
<svg version="1.1" id="Camada_1" xmlns="http://www.w3.org/2000/svg" xmlns:xlink="http://www.w3.org/1999/xlink" x="0px" y="0px"
	 viewBox="0 0 1280 1280" style="enable-background:new 0 0 1280 1280;" xml:space="preserve">
<style type="text/css">
	.st0{fill:#F2E711;}
	.st1{fill:#CEBB11;}
	.st2{fill:#968508;}
	.st3{fill:#FFFFFF;}
</style>
<g>
	<g id="Grupo_535_14_" transform="translate(9 9)">
		<g transform="matrix(1, 0, 0, 1, -9, -9)">
			<g id="folder_2_2_28_">
				<g>
					<path class="st0" d="M529.4,124H163.1C95.9,123.8,41.2,178.1,41,245.3c0,0.3,0,0.6,0,0.8v732.7c0,67.4,54.7,122.1,122.1,122.1
						H1140c67.4,0,122.1-54.7,122.1-122.1l0,0V368.2c0-67.4-54.6-122.1-122-122.1c0,0,0,0-0.1,0H651.5L529.4,124z"/>
				</g>
			</g>
		</g>
	</g>
</g>
<g>
	<path class="st1" d="M115.3,134.2c-42.7,18.8-72.6,61.4-72.7,111c0,0.3,0,0.6,0,0.8v732.7c0,67.4,54.7,122.1,122.1,122.1h918"/>
</g>
<g>
	<rect x="174.5" y="658.2" class="st2" width="953.3" height="26.3"/>
</g>
<g>
	
		<rect x="638" y="374.1" transform="matrix(0.7071 -0.7071 0.7071 0.7071 -284.0467 657.0812)" class="st3" width="26.3" height="594.6"/>
</g>
<g>
	<rect x="638" y="374.1" class="st3" width="26.3" height="594.6"/>
</g>
<g>
	
		<rect x="353.9" y="658.2" transform="matrix(0.7071 -0.7071 0.7071 0.7071 -284.0466 657.0776)" class="st2" width="594.6" height="26.3"/>
</g>
<g>
	<circle class="st2" cx="651.5" cy="351.4" r="11.4"/>
</g>
<g>
	<circle class="st3" cx="423.5" cy="443.8" r="11.4"/>
</g>
<g>
	<circle class="st2" cx="878.7" cy="443.8" r="11.4"/>
</g>
<g>
	<circle class="st3" cx="880.5" cy="900.8" r="11.4"/>
</g>
<g>
	<circle class="st2" cx="421.7" cy="900.8" r="11.4"/>
</g>
<g>
	<circle class="st2" cx="1156.4" cy="671.3" r="11.4"/>
</g>
<g>
	<circle class="st2" cx="146.5" cy="671.5" r="11.4"/>
</g>
<g>
	<circle class="st2" cx="651.3" cy="995.3" r="11.4"/>
</g>
<g>
	<path class="st2" d="M524.6,639.7l-25.6-6.2c13.8-56.7,57.6-100.4,114.3-114.3l6.2,25.6C572.5,556.3,536.1,592.7,524.6,639.7z"/>
</g>
<g>
	<path class="st3" d="M613.3,821.9C557.2,808.2,513.6,765,499.3,709l25.5-6.5c11.8,46.5,48.1,82.4,94.7,93.7L613.3,821.9z"/>
</g>
<g>
	<path class="st2" d="M688.7,821.5l-6.5-25.5c46-11.7,81.8-47.5,93.5-93.5l25.5,6.5C787.2,764.3,744.1,807.5,688.7,821.5z"/>
</g>
<g>
	<path class="st3" d="M776,639.7c-11.4-46.6-47.3-82.8-93.8-94.6l6.5-25.5c55.9,14.2,99.2,57.8,112.9,113.9L776,639.7z"/>
</g>
<g>
	<path class="st2" d="M650.3,1047c-207.6,0-376.4-168.9-376.4-376.4s168.9-376.4,376.4-376.4s376.4,168.9,376.4,376.4
		S857.9,1047,650.3,1047z M650.3,320.4c-193.1,0-350.1,157.1-350.1,350.1s157.1,350.1,350.1,350.1s350.1-157.1,350.1-350.1
		S843.3,320.4,650.3,320.4z"/>
</g>
</svg>
