<?xml version="1.0" encoding="utf-8"?>
<!-- Generator: Adobe Illustrator 24.1.0, SVG Export Plug-In . SVG Version: 6.00 Build 0)  -->
<svg version="1.1" id="Camada_1" xmlns="http://www.w3.org/2000/svg" xmlns:xlink="http://www.w3.org/1999/xlink" x="0px" y="0px"
	 viewBox="0 0 1280 1280" style="enable-background:new 0 0 1280 1280;" xml:space="preserve">
<style type="text/css">
	.st0{fill:#0D9CF6;}
	.st1{fill:#0A87C6;}
	.st2{fill:#095A7A;}
	.st3{fill:#FFFFFF;}
</style>
<g>
	<g id="Grupo_535_16_" transform="translate(9 9)">
		<g transform="matrix(1, 0, 0, 1, -9, -9)">
			<g id="folder_2_2_29_">
				<g>
					<path class="st0" d="M515,150.2H147.5C80.1,150,25.2,204.5,25,271.9c0,0.3,0,0.6,0,0.8v735c0,67.7,54.8,122.5,122.5,122.5h980
						c67.7,0,122.5-54.8,122.5-122.5l0,0V395.2c0-67.6-54.8-122.5-122.4-122.5c0,0,0,0-0.1,0h-490L515,150.2z"/>
				</g>
			</g>
		</g>
	</g>
</g>
<g>
	<path class="st1" d="M99.5,160.5c-42.8,18.8-72.8,61.6-73,111.4c0,0.3,0,0.6,0,0.8v735c0,67.7,54.8,122.5,122.5,122.5h921"/>
</g>
<g>
	<line class="st2" x1="158.9" y1="699.3" x2="1115.3" y2="699.3"/>
	<rect x="158.9" y="686.1" class="st2" width="956.3" height="26.4"/>
</g>
<g>
	
		<rect x="623.9" y="401.2" transform="matrix(0.7071 -0.7071 0.7071 0.7071 -307.9547 655.3409)" class="st3" width="26.4" height="596.5"/>
</g>
<g>
	<rect x="623.9" y="401.2" class="st3" width="26.4" height="596.5"/>
</g>
<g>
	<line class="st2" x1="426.2" y1="910.3" x2="848" y2="488.5"/>
	
		<rect x="338.9" y="686.2" transform="matrix(0.7071 -0.7071 0.7071 0.7071 -307.9549 655.3445)" class="st2" width="596.5" height="26.4"/>
</g>
<g>
	<circle class="st2" cx="637.5" cy="378.4" r="11.5"/>
</g>
<g>
	<circle class="st2" cx="408.8" cy="471.1" r="11.5"/>
</g>
<g>
	<circle class="st2" cx="867.2" cy="929.5" r="11.5"/>
</g>
<g>
	<circle class="st2" cx="637.2" cy="1024.4" r="11.5"/>
</g>
</svg>
