<svg width="62" height="62" viewBox="0 0 62 62" fill="none" xmlns="http://www.w3.org/2000/svg">
<path d="M24.4222 44.3688C23.2452 44.3688 22.2909 43.4146 22.2909 42.2376C22.2909 41.0606 23.2452 40.1063 24.4222 40.1063H27.2122L27.343 39.7188H19.3847C17.5683 39.7188 16.0909 38.2415 16.0909 36.4251V20.9251C16.0909 19.1087 17.5683 17.6313 19.3847 17.6313H42.6347C44.4511 17.6313 45.9284 19.1087 45.9284 20.9251V36.4251C45.9284 38.2415 44.4511 39.7188 42.6347 39.7188H34.6813L34.812 40.1063H37.602C38.7791 40.1063 39.7333 41.0606 39.7333 42.2376C39.7333 43.4146 38.7791 44.3688 37.602 44.3688H24.4222Z" stroke="white" stroke-miterlimit="10"/>
<path d="M24.4222 43.8845C23.5164 43.8845 22.7753 43.1434 22.7753 42.2376C22.7753 41.3318 23.5164 40.5907 24.4222 40.5907H27.5609L28.0114 39.2345H19.3847C17.8347 39.2345 16.5753 37.9751 16.5753 36.4251V20.9251C16.5753 19.3751 17.8347 18.1157 19.3847 18.1157H42.6347C44.1847 18.1157 45.4441 19.3751 45.4441 20.9251V36.4251C45.4441 37.9751 44.1847 39.2345 42.6347 39.2345H34.008L34.4584 40.5907H37.5972C38.503 40.5907 39.2441 41.3318 39.2441 42.2376C39.2441 43.1434 38.503 43.8845 37.5972 43.8845H24.4222Z" stroke="white" stroke-miterlimit="10"/>
<path d="M42.6347 18.6001H19.3847C18.1011 18.6001 17.0597 19.6415 17.0597 20.9251V36.4251C17.0597 37.7087 18.1011 38.7501 19.3847 38.7501H28.6847L27.9097 41.0751H24.4222C23.778 41.0751 23.2597 41.5934 23.2597 42.2376C23.2597 42.8818 23.778 43.4001 24.4222 43.4001H37.5972C38.2414 43.4001 38.7597 42.8818 38.7597 42.2376C38.7597 41.5934 38.2414 41.0751 37.5972 41.0751H34.1097L33.3347 38.7501H42.6347C43.9183 38.7501 44.9597 37.7087 44.9597 36.4251V20.9251C44.9597 19.6415 43.9183 18.6001 42.6347 18.6001ZM41.8597 35.6501H20.1597V21.7001H41.8597V35.6501Z" fill="white"/>
<path d="M28.8203 29.0964H29.6437L29.232 27.9146L28.8203 29.0964ZM33.1457 28.738C32.8503 28.738 32.6129 28.9753 32.6129 29.2708C32.6129 29.5663 32.8503 29.8036 33.1457 29.8036C33.4412 29.8036 33.6785 29.5663 33.6785 29.2708C33.6785 28.9802 33.4412 28.738 33.1457 28.738ZM35.6354 24.4658H26.3839C25.7929 24.4658 25.3182 24.9453 25.3182 25.5314V31.9397C25.3182 32.5306 25.7978 33.0053 26.3839 33.0053H35.6403C36.2312 33.0053 36.7059 32.5258 36.7059 31.9397V25.5363C36.7059 24.9454 36.2264 24.4658 35.6354 24.4658ZM30.8885 30.8741H30.5107C30.3606 30.8741 30.225 30.7772 30.1765 30.6367L30.0118 30.162H28.4473L28.2826 30.6367C28.2342 30.782 28.0985 30.8741 27.9484 30.8741H27.5706C27.3235 30.8741 27.154 30.6319 27.2364 30.3994L28.4328 26.9603C28.5054 26.7472 28.7089 26.6019 28.9365 26.6019H29.5275C29.7551 26.6019 29.9585 26.7472 30.0312 26.9603L31.2276 30.3994C31.3051 30.6367 31.1356 30.8741 30.8885 30.8741ZM34.749 30.5205C34.749 30.7191 34.5892 30.8741 34.3954 30.8741H34.0418C33.9353 30.8741 33.8384 30.8256 33.7754 30.7481C33.5817 30.8305 33.3734 30.8741 33.1506 30.8741C32.269 30.8741 31.5473 30.1572 31.5473 29.2708C31.5473 28.3892 32.2642 27.6675 33.1506 27.6675C33.3395 27.6675 33.5187 27.7063 33.6834 27.7644V26.9555C33.6834 26.7569 33.8432 26.6019 34.037 26.6019H34.3906C34.5892 26.6019 34.7442 26.7617 34.7442 26.9555V30.5205H34.749Z" fill="white"/>
<path d="M40.2516 24.4513C40.2516 25.1101 39.7188 25.6477 39.0552 25.6477C38.3964 25.6477 37.8588 25.1149 37.8588 24.4513C37.8588 23.7925 38.3916 23.2549 39.0552 23.2549C39.7188 23.2549 40.2516 23.7925 40.2516 24.4513ZM39.0552 24.6887C38.9341 24.6887 38.8324 24.7855 38.8324 24.9115C38.8324 25.0326 38.9292 25.1343 39.0552 25.1343C39.1763 25.1343 39.278 25.0374 39.278 24.9115C39.278 24.7904 39.1811 24.6887 39.0552 24.6887ZM38.8469 23.8943L38.8808 24.5482C38.8808 24.5772 38.9099 24.6015 38.9389 24.6015H39.1714C39.2005 24.6015 39.2295 24.5772 39.2295 24.5482L39.2635 23.8943C39.2635 23.8604 39.2392 23.8313 39.2053 23.8313H38.9002C38.8711 23.8313 38.8469 23.8604 38.8469 23.8943Z" fill="white"/>
</svg>
