<svg width="62" height="62" viewBox="0 0 62 62" fill="none" xmlns="http://www.w3.org/2000/svg">
<path d="M17.8492 40.1593L21.9906 36.1245C24.1848 39.055 26.8537 40.6389 30.6512 40.7357C32.7389 40.7842 34.7781 40.2562 36.5606 39.2051C36.9093 39.5684 37.8248 40.5371 37.9895 40.7115C35.7856 42.1259 33.2281 42.8379 30.5931 42.7798C27.6287 42.7023 24.8048 41.6367 22.5379 39.7428C22.5573 39.704 19.9223 42.3099 19.8981 42.3342C20.5471 44.3734 19.002 46.6015 16.7303 46.6015C14.8945 46.5966 13.4801 45.1145 13.4801 43.2835C13.4849 40.9295 15.747 39.4037 17.8492 40.1593Z" fill="white"/>
<path d="M42.1309 22.8867C43.4387 25.0277 44.1555 27.498 44.0926 30.0022C44.0151 33.0683 42.7944 35.9891 40.7649 38.2802C40.7843 38.2995 42.3924 40.0045 42.4118 40.0239C43.0705 39.9367 43.7244 40.1595 44.1846 40.6487C44.9596 41.4722 44.9305 42.7606 44.1071 43.5502C43.2837 44.3252 41.9952 44.2961 41.2057 43.4727C40.7455 42.9931 40.5615 42.3247 40.6874 41.6708C38.9824 39.8495 37.6504 38.44 37.6504 38.44C40.5712 36.1053 41.9807 32.9956 42.0582 29.9441C42.1066 27.9678 41.5641 26.0303 40.6148 24.3205L42.1309 22.8867Z" fill="white"/>
<path d="M20.6005 15.7859C21.0607 16.2654 21.2448 16.9338 21.1188 17.5877L24.2576 20.8766C23.9379 21.1382 23.3469 21.5887 22.6979 22.3346C20.959 24.2866 19.9902 26.7666 19.9127 29.3774C19.8643 31.3537 20.3293 33.2911 21.2835 35.0155L19.7771 36.488C18.4548 34.3277 17.8009 31.8574 17.8735 29.3241C17.9413 26.2726 19.1232 23.3324 21.1237 21.0365L19.3944 19.2298C18.7357 19.317 18.0818 19.0941 17.6216 18.6049C16.8466 17.7815 16.8757 16.493 17.6991 15.7035C18.5129 14.9382 19.7916 14.9576 20.6005 15.7859Z" fill="white"/>
<path d="M45.2406 20.8185C45.26 20.8185 45.2842 20.8185 45.3036 20.8185C46.5775 20.8137 47.7739 20.3051 48.6749 19.3848C49.571 18.4741 50.065 17.2729 50.065 16.0038C50.065 14.7396 49.5758 13.5335 48.6845 12.6132C47.7739 11.6687 46.5678 11.1504 45.2891 11.1504C44.02 11.1504 42.7655 11.6735 41.8549 12.5938C40.9345 13.519 40.4308 14.7348 40.4356 16.0135C40.4356 16.1637 40.4405 16.309 40.455 16.4591L39.2199 17.6216C38.2511 16.9532 37.2097 16.4059 36.1102 15.9893C34.5747 15.408 32.9617 15.0932 31.31 15.0496C31.1938 15.0448 31.0727 15.0448 30.9564 15.0448C28.1228 15.0448 25.391 15.844 23.0417 17.3601L22.7027 17.0016C22.6542 16.1491 22.3055 15.3305 21.7194 14.7154L21.7145 14.7057C21.017 13.9937 20.0919 13.5965 19.1086 13.5965C18.1883 13.5965 17.3164 13.9452 16.6431 14.5749L16.6335 14.5846C15.2094 15.9505 15.1513 18.232 16.5027 19.6705C17.0888 20.2954 17.8928 20.6877 18.7405 20.7798L19.0844 21.1382C17.3745 23.531 16.401 26.3985 16.338 29.2854C16.2556 32.1093 16.9919 34.8799 18.4644 37.297L18.508 37.3648L17.3842 38.4595C17.176 38.4304 16.9628 38.4159 16.7545 38.4159C15.4952 38.4159 14.3036 38.9051 13.3978 39.7866C12.463 40.7021 11.9447 41.9421 11.9447 43.279C11.9447 44.5771 12.4339 45.7929 13.3203 46.7035C14.2213 47.6287 15.437 48.1421 16.74 48.147H16.7449C18.3094 48.147 19.7431 47.4204 20.6683 46.1513C21.3706 45.1923 21.6952 44.0104 21.5886 42.8479C21.8744 42.5621 22.2958 42.1504 22.6785 41.7726C23.6424 42.4313 24.6789 42.9738 25.7688 43.3855C27.3042 43.9668 28.9172 44.2816 30.5689 44.3204C30.6852 44.3252 30.8063 44.3252 30.9177 44.3252C33.7416 44.3252 36.4783 43.526 38.8372 42.0099L38.8711 41.9905C38.9535 42.0777 39.0358 42.1649 39.123 42.257C39.1666 43.1143 39.5153 43.9329 40.1063 44.548C40.7941 45.2649 41.7192 45.6621 42.7122 45.6621C43.6374 45.6621 44.5141 45.3134 45.1922 44.6788L45.197 44.674C46.6211 43.308 46.6792 41.0266 45.3278 39.588C44.7417 38.968 43.9425 38.5757 43.0997 38.4837L42.8333 38.2027C44.5867 35.7954 45.5845 32.923 45.6524 30.0459C45.7202 27.2946 44.9645 24.5434 43.463 22.0827L43.4291 22.0295L44.7272 20.7991C44.9016 20.8137 45.0808 20.8185 45.2406 20.8185ZM40.5131 29.9102C40.4453 32.7196 39.0842 35.3207 36.6914 37.234L36.2652 37.573L35.7759 37.8637C34.3131 38.7259 32.6324 39.186 30.9128 39.186C30.8402 39.186 30.7627 39.186 30.69 39.1812C27.498 39.0988 25.265 37.9073 23.2306 35.1899L22.9449 34.8073L22.6445 34.2648C21.8356 32.7971 21.4288 31.1163 21.4675 29.421C21.5305 27.1735 22.383 25.0277 23.8603 23.3663L23.87 23.3566C24.3738 22.7802 24.8194 22.4218 25.1439 22.1602L25.236 22.0876L25.5072 21.8696L26.1224 21.4966C27.5513 20.6393 29.2175 20.184 30.9516 20.184C31.0291 20.184 31.1066 20.184 31.1792 20.1888C34.1824 20.2663 36.7689 21.642 38.6628 24.1655L39.0261 24.6451L39.2683 25.081C40.1208 26.6213 40.5519 28.2924 40.5131 29.9102Z" stroke="white" stroke-miterlimit="10"/>
<path d="M45.2406 20.0434C45.26 20.0434 45.2793 20.0434 45.2987 20.0434C46.3643 20.0434 47.367 19.6172 48.1226 18.8422C48.8734 18.0769 49.29 17.0694 49.29 16.0037C49.29 14.9381 48.8782 13.9258 48.1275 13.1508C47.367 12.3612 46.3595 11.9253 45.289 11.9253C44.2234 11.9253 43.1723 12.3661 42.4021 13.1411C41.6271 13.9161 41.2057 14.9381 41.2106 16.0134C41.2106 16.2653 41.2348 16.5123 41.2735 16.7497L39.2828 18.6194C38.2317 17.8153 37.0692 17.1759 35.834 16.7061C34.3809 16.1587 32.8551 15.8584 31.2906 15.8197C31.1792 15.8148 31.0678 15.8148 30.9564 15.8148C28.2729 15.8148 25.6815 16.5753 23.4582 18.009L22.9254 18.3529L21.9325 17.3115C21.9615 16.5462 21.6903 15.8003 21.1623 15.2529L21.1575 15.2481C20.6101 14.6862 19.8787 14.3762 19.1037 14.3762C18.382 14.3762 17.6942 14.6475 17.1711 15.1464L17.1662 15.1512C16.0473 16.2217 15.9989 18.0139 17.0645 19.1425C17.5876 19.6995 18.3239 20.0192 19.0892 20.0289L20.0967 21.08C18.2318 23.4486 17.1759 26.3451 17.1081 29.3095C17.0306 31.9833 17.7281 34.6086 19.1231 36.8948L19.4864 37.4906L17.6312 39.2876C17.3406 39.2198 17.0451 39.1908 16.7448 39.1908C15.6889 39.1908 14.6862 39.5976 13.9306 40.3436C13.1459 41.1137 12.71 42.1551 12.71 43.2789C12.71 44.3736 13.1217 45.3956 13.8676 46.1658C14.6232 46.9408 15.6404 47.3718 16.7351 47.3767H16.74C18.0575 47.3767 19.2587 46.7664 20.0386 45.7008C20.707 44.7901 20.9637 43.6519 20.7651 42.5765C21.2204 42.1261 22.0681 41.2881 22.5961 40.7698C23.6471 41.5642 24.8048 42.2036 26.04 42.6686C27.4931 43.2159 29.0189 43.5162 30.5834 43.555C30.6948 43.5598 30.8062 43.5598 30.9176 43.5598C33.5914 43.5598 36.1876 42.7994 38.4157 41.3656L38.9921 40.9975C39.2731 41.2978 39.5734 41.6175 39.8931 41.9565C39.8592 42.7219 40.1353 43.4726 40.6632 44.0248C41.2057 44.5867 41.9323 44.9015 42.7121 44.9015C43.4387 44.9015 44.1265 44.6254 44.6545 44.1314L44.6593 44.1265C45.7782 43.0561 45.8267 41.2639 44.761 40.1353C44.2379 39.5831 43.5017 39.2586 42.7412 39.2489C42.5814 39.0794 41.9129 38.3673 41.8161 38.2656C43.7245 35.8825 44.8046 32.9859 44.8773 30.0361C44.9403 27.435 44.2234 24.829 42.7993 22.4992L42.4409 21.9083L44.4559 19.995C44.7029 20.0192 44.9936 20.0434 45.2406 20.0434Z" stroke="white" stroke-miterlimit="10"/>
<path d="M45.2939 12.7004C47.0715 12.7004 48.515 14.2311 48.515 16.0039C48.515 17.7767 47.0715 19.2686 45.2939 19.2686C44.8628 19.2734 44.3348 19.1911 44.204 19.1475L39.8979 23.2308C37.6601 20.247 34.6521 18.7212 31.2131 18.634C29.1254 18.5856 27.0862 19.099 25.3134 20.1647L23.8796 18.6583C26.0835 17.2342 28.641 16.5318 31.276 16.59C34.2404 16.6675 37.0643 17.7331 39.3312 19.6415L42.1454 17.0017C42.0437 16.682 41.9953 16.3429 41.9953 16.0087C41.9807 14.1875 43.5162 12.7004 45.2939 12.7004Z" fill="white"/>
<path d="M33.349 27.7199C33.7916 27.6154 34.0657 27.1719 33.9612 26.7293C33.8567 26.2867 33.4132 26.0127 32.9706 26.1172C32.528 26.2217 32.2539 26.6652 32.3584 27.1077C32.4629 27.5503 32.9064 27.8244 33.349 27.7199Z" fill="white"/>
<path d="M32.1722 19.9901C31.7943 19.9417 31.4262 19.9126 31.0484 19.9126C26.0787 19.9271 21.9228 23.497 21.2834 28.4521C20.6246 33.7948 24.4125 38.6725 29.7551 39.3458C35.0929 40.0045 39.9706 36.2167 40.639 30.874C41.2978 25.5362 37.5148 20.6585 32.1722 19.9901ZM32.332 30.7723C32.1382 30.7723 31.9493 30.7529 31.7701 30.719L31.3584 31.184C31.2809 31.2712 31.1695 31.3245 31.0484 31.3245H30.409V32.0123C30.409 32.24 30.225 32.424 29.9973 32.424H29.3095V33.1118C29.3095 33.3395 29.1254 33.5236 28.8978 33.5236H26.9748C26.7472 33.5236 26.5631 33.3395 26.5631 33.1118V31.7701C26.5631 31.6587 26.6067 31.557 26.6842 31.4795L29.4645 28.6992C29.3676 28.3989 29.3143 28.084 29.3143 27.7498C29.3143 26.0787 30.6706 24.7224 32.3417 24.7224C34.0176 24.7224 35.369 26.0739 35.369 27.7498C35.3593 29.4161 34.0031 30.7723 32.332 30.7723Z" fill="white"/>
</svg>
