<svg width="62" height="62" viewBox="0 0 62 62" fill="none" xmlns="http://www.w3.org/2000/svg">
<g clip-path="url(#clip0)">
<path d="M24.1267 43.1819C21.9228 43.1819 20.1306 41.3897 20.1306 39.1858V15.064C20.1306 12.8601 21.9228 11.0679 24.1267 11.0679H37.8345C40.0385 11.0679 41.8306 12.8601 41.8306 15.064V39.1858C41.8306 41.3897 40.0385 43.1819 37.8345 43.1819H24.1267Z" stroke="white" stroke-miterlimit="10"/>
<path d="M24.1267 42.4071C22.3491 42.4071 20.9056 40.9636 20.9056 39.186V15.0641C20.9056 13.2865 22.3491 11.843 24.1267 11.843H37.8345C39.6122 11.843 41.0556 13.2865 41.0556 15.0641V39.186C41.0556 40.9636 39.6122 42.4071 37.8345 42.4071H24.1267Z" stroke="white" stroke-miterlimit="10"/>
<path d="M37.8345 12.6179H24.1268C22.7802 12.6179 21.6807 13.7175 21.6807 15.064V39.1859C21.6807 40.5325 22.7802 41.632 24.1268 41.632H37.8345C39.1811 41.632 40.2806 40.5325 40.2806 39.1859V15.064C40.2806 13.7175 39.1811 12.6179 37.8345 12.6179ZM33.8578 20.8039C33.8578 21.1478 33.5817 21.4239 33.2378 21.4239H28.6799C28.336 21.4239 28.0599 21.1478 28.0599 20.8039V18.7307C28.0599 18.3868 28.336 18.1107 28.6799 18.1107H28.9899V16.7835C28.9899 15.6985 29.8617 14.8025 30.9516 14.7976C32.0366 14.7928 32.9278 15.6792 32.9278 16.7642V16.9725C32.9278 17.1468 32.7874 17.2825 32.6178 17.2825H32.2013C32.0269 17.2825 31.8913 17.142 31.8913 16.9725V16.7642C31.8913 16.2459 31.4699 15.8293 30.9516 15.8342C30.4382 15.839 30.0264 16.2653 30.0264 16.7787V18.1156H33.2378C33.5817 18.1156 33.8578 18.3917 33.8578 18.7356V20.8039V20.8039ZM37.6602 27.9484C37.1903 27.9484 36.8125 27.5706 36.8125 27.1007C36.8125 26.6309 37.1903 26.2531 37.6602 26.2531C38.13 26.2531 38.5078 26.6309 38.5078 27.1007C38.5078 27.5706 38.13 27.9484 37.6602 27.9484Z" fill="white"/>
<path d="M30.9564 18.939C30.6706 18.939 30.4381 19.1715 30.4381 19.4572V20.0772C30.4381 20.363 30.6706 20.5955 30.9564 20.5955C31.2422 20.5955 31.4747 20.363 31.4747 20.0772V19.4572C31.4747 19.1715 31.2422 18.939 30.9564 18.939Z" fill="white"/>
</g>
<defs>
<clipPath id="clip0">
<rect width="62" height="62" fill="white"/>
</clipPath>
</defs>
</svg>
