<svg width="62" height="62" viewBox="0 0 62 62" fill="none" xmlns="http://www.w3.org/2000/svg">
<path d="M42.3397 18.4436H16.8152C16.6022 18.4436 16.4291 18.6195 16.4291 18.8361V22.9911H42.7214V18.8361C42.7214 18.6195 42.5483 18.4436 42.3397 18.4436ZM18.8302 21.5023C18.4441 21.5023 18.1245 21.182 18.1245 20.785C18.1245 20.3925 18.4396 20.0677 18.8302 20.0677C19.2163 20.0677 19.5359 20.388 19.5359 20.785C19.5314 21.182 19.2163 21.5023 18.8302 21.5023ZM20.9694 21.5023C20.5833 21.5023 20.2637 21.182 20.2637 20.785C20.2637 20.3925 20.5789 20.0677 20.9694 20.0677C21.3556 20.0677 21.6751 20.388 21.6751 20.785C21.6707 21.182 21.3556 21.5023 20.9694 21.5023ZM23.1087 21.5023C22.7226 21.5023 22.403 21.182 22.403 20.785C22.403 20.3925 22.7181 20.0677 23.1087 20.0677C23.4948 20.0677 23.8144 20.388 23.8144 20.785C23.8099 21.182 23.4948 21.5023 23.1087 21.5023Z" fill="white"/>
<path d="M37.7462 38.9255C37.7462 38.1496 38.2966 37.5045 39.02 37.3691V36.2232C39.02 34.3104 40.5379 32.7495 42.402 32.7449H42.4153C42.5218 32.7449 42.6328 32.7494 42.7348 32.763V23.9297H16.4203V39.6519C16.4203 39.8684 16.5934 40.0444 16.8064 40.0444H37.7462V38.9255ZM23.4239 34.6397L27.1121 30.8231V30.7103L23.4239 26.9072H26.0647L29.7795 30.7509L26.0647 34.6397H23.4239V34.6397ZM29.2558 37.0804V35.1044H35.7357V37.0804H29.2558Z" fill="white"/>
<path d="M46.4851 36.8366C46.5073 36.7193 46.5207 36.602 46.5207 36.4802V36.1915C46.5207 34.5223 45.5531 33.0786 44.1595 32.4155V23.9295L43.9642 23.4468L44.1506 22.9911V18.8361C44.1506 17.8256 43.3428 17 42.3442 17H16.8153C15.8211 17 15.0089 17.8211 15.0089 18.8361V22.9911L15.1953 23.4468L15 23.925V39.6472C15 40.6578 15.8122 41.4834 16.8064 41.4834H37.0361V41.7947C37.0361 43.0669 38.0524 44.1 39.304 44.1H45.522C46.7736 44.1 47.79 43.0669 47.79 41.7947V38.9209C47.79 38.0051 47.253 37.2066 46.4851 36.8366Z" stroke="white" stroke-miterlimit="10"/>
<path d="M45.5221 37.3418H45.4289C45.6597 37.1297 45.8062 36.823 45.8062 36.4846V36.1959C45.8062 34.6124 44.7543 33.277 43.3207 32.871L43.4406 32.7582V23.9294L42.9745 23.4557L43.4317 22.991V18.836C43.4317 18.2224 42.939 17.7217 42.3354 17.7217H16.8153C16.2117 17.7217 15.7191 18.2224 15.7191 18.836V22.991L16.1762 23.4557L15.7102 23.9294V39.6516C15.7102 40.2652 16.2029 40.7659 16.8065 40.7659H37.7463V41.799C37.7463 42.6742 38.4431 43.3825 39.3041 43.3825H45.5221C46.3831 43.3825 47.08 42.6742 47.08 41.799V38.9253C47.08 38.0501 46.3787 37.3418 45.5221 37.3418Z" stroke="white" stroke-miterlimit="10"/>
<path d="M45.522 38.0638H41.1415V36.2141C41.1415 35.5013 41.7007 34.9103 42.4019 34.9058C43.1076 34.8968 43.6846 35.4833 43.6846 36.2006V36.4893C43.6846 36.7284 43.8754 36.9224 44.1107 36.9224H44.6743C44.9096 36.9224 45.1004 36.7284 45.1004 36.4893V36.2006C45.1004 34.6938 43.8887 33.4667 42.4064 33.4712C40.924 33.4757 39.7301 34.7209 39.7301 36.2277V38.0683H39.304C38.838 38.0683 38.4563 38.4563 38.4563 38.93V41.8038C38.4563 42.2775 38.838 42.6654 39.304 42.6654H45.522C45.9881 42.6654 46.3697 42.2775 46.3697 41.8038V38.93C46.3697 38.4518 45.9881 38.0638 45.522 38.0638ZM43.1165 40.7932C43.1165 41.1902 42.8014 41.5105 42.4108 41.5105C42.0202 41.5105 41.7051 41.1902 41.7051 40.7932V39.9315C41.7051 39.5345 42.0202 39.2142 42.4108 39.2142C42.8014 39.2142 43.1165 39.5345 43.1165 39.9315V40.7932Z" fill="white"/>
</svg>
