<svg width="62" height="62" viewBox="0 0 62 62" fill="none" xmlns="http://www.w3.org/2000/svg">
<path d="M33.9886 42.2277L33.4413 42.0001L32.9957 41.5544L32.5501 42.0001L32.0027 42.2277H30.0216L29.4743 42.0001L29.0286 41.5544L28.583 42.0001L28.0357 42.2277H26.0546L25.5072 42.0001L24.7322 41.2251L24.5046 40.6777V38.6966L24.7322 38.1493L25.5072 37.3743L26.0546 37.1466H27.0136C25.8221 36.7688 24.6838 36.2215 23.623 35.5143C21.3707 34.0079 19.656 31.8766 18.663 29.3433L18.6097 29.0576V28.4908L18.663 28.2051C19.6463 25.7202 21.3319 23.6132 23.5407 22.1019C25.7591 20.5858 28.3408 19.7866 31.0146 19.7866C33.6883 19.7866 36.2749 20.5858 38.4885 22.1019C40.6972 23.6132 42.3829 25.7202 43.3661 28.2051L43.4194 28.4908V29.0576L43.3661 29.3433C42.0293 32.7582 39.2974 35.4901 35.8777 36.8318C35.5871 36.9432 35.2965 37.0497 35.001 37.1418H35.9746L36.5219 37.3694L37.2969 38.1444L37.5246 38.6918V40.6729L37.2969 41.2202L36.5219 41.9952L35.9746 42.2229H33.9886V42.2277Z" stroke="white" stroke-miterlimit="10"/>
<path d="M33.9886 41.4527L33.2136 40.6777V38.6966L33.9886 37.9216H35.9697L36.7447 38.6966V40.6777L35.9697 41.4527H33.9886ZM30.0216 41.4527L29.2466 40.6777V38.6966L30.0216 37.9216H32.0027L32.7777 38.6966V40.6777L32.0027 41.4527H30.0216ZM26.0545 41.4527L25.2795 40.6777V38.6966L26.0545 37.9216H28.0356L28.8106 38.6966V40.6777L28.0356 41.4527H26.0545ZM31.0145 36.9868C28.5345 36.9868 26.1272 36.2554 24.0589 34.87C21.9373 33.4508 20.3244 31.4455 19.3895 29.0624V28.4957C20.3147 26.1561 21.9034 24.1702 23.9814 22.751C26.0691 21.3221 28.5006 20.5713 31.0194 20.5713C33.5381 20.5713 35.9697 21.3269 38.0573 22.751C40.1353 24.1702 41.7241 26.161 42.6492 28.4957V29.0624C41.3898 32.2786 38.8178 34.8458 35.5967 36.1149C34.1194 36.6913 32.5791 36.9868 31.0145 36.9868Z" stroke="white" stroke-miterlimit="10"/>
<path d="M31.0146 25.8027C29.3726 25.8027 28.0405 27.1347 28.0405 28.7767C28.0405 30.4188 29.3726 31.7508 31.0146 31.7508C32.6566 31.7508 33.9887 30.4188 33.9887 28.7767C33.9887 27.1347 32.6566 25.8027 31.0146 25.8027ZM31.0146 33.7367C28.2779 33.7367 26.0546 31.5183 26.0546 28.7767C26.0546 26.0352 28.273 23.8167 31.0146 23.8167C33.7562 23.8167 35.9746 26.0352 35.9746 28.7767C35.9746 31.5183 33.7513 33.7367 31.0146 33.7367ZM31.0146 21.3416C26.195 21.3416 21.8696 24.3156 20.1064 28.7767C22.475 34.8072 29.2805 37.7619 35.3062 35.3933C38.3287 34.2017 40.7312 31.8138 41.9227 28.7767C40.1548 24.3156 35.8341 21.3416 31.0146 21.3416ZM26.0546 38.6919H28.0357V40.673H26.0546V38.6919ZM30.0216 38.6919H32.0027V40.673H30.0216V38.6919ZM33.9887 38.6919H35.9697V40.673H33.9887V38.6919Z" fill="white"/>
</svg>
