<svg width="62" height="62" viewBox="0 0 62 62" fill="none" xmlns="http://www.w3.org/2000/svg">
<path d="M40.8628 17.9534H29.5111V24.4481H40.8628V17.9534Z" fill="white"/>
<path d="M34.5555 32.2367H36.0197C36.6599 30.4116 38.3611 29.1114 40.3469 29.1114C40.9753 29.1114 41.574 29.2396 42.1193 29.4777V25.748H34.5555V32.2367Z" fill="white"/>
<path d="M33.287 25.7419H25.7233V32.2367H33.287V25.7419Z" fill="white"/>
<path d="M29.511 33.5374H18.1594V40.0321H29.511V33.5374Z" fill="white"/>
<path d="M35.7412 33.8487C35.7412 33.7449 35.7471 33.6411 35.753 33.5374H30.7678V40.0321H34.0103V36.8214C34.0103 35.7592 34.7572 34.868 35.7412 34.691V33.8487V33.8487Z" fill="white"/>
<path d="M28.2484 17.9534H18.1594V24.4481H28.2484V17.9534Z" fill="white"/>
<path d="M24.4608 25.7419H16.897V32.2367H24.4608V25.7419Z" fill="white"/>
<path d="M46.0791 34.3551V34.2147C46.0791 32.3712 45.2255 30.7292 43.9096 29.6854L44.0163 29.4779V25.7483L43.7376 25.0585L42.7892 24.0818L42.7536 24.0696V17.9533L42.475 17.2636L41.5266 16.2869L40.8568 16H29.5111L28.8828 16.2686L28.2544 16H18.1595L17.4896 16.2869L16.5412 17.2636L16.2626 17.9533V24.0635L16.227 24.0757L15.2786 25.0524L15 25.7422V32.2369L15.2786 32.9267L16.227 33.9034L16.2626 33.9156V40.0258L16.5412 40.7156L17.4896 41.6922L18.1595 41.9791H29.5111L30.1394 41.7105L30.7678 41.9791H33.2396C33.2574 43.6944 34.6208 45.08 36.2924 45.08H44.7572C46.4407 45.08 47.81 43.6699 47.81 41.9364V37.1874C47.81 35.9543 47.1165 34.8678 46.0791 34.3551ZM30.7678 31.5838L30.1394 31.8524L29.5111 31.5838H26.3635V26.4014H28.2485L28.8768 26.1328L29.5052 26.4014H32.6528V31.5838H30.7678Z" stroke="white" stroke-miterlimit="10"/>
<path d="M45.1308 35.057V34.2146C45.1308 32.304 44.0282 30.6559 42.4396 29.9051L43.0679 29.4717V25.7421L42.1195 24.7654H41.4971L41.8112 24.4419V17.9532L40.8628 16.9766H29.5112L28.8829 17.6236L28.2486 16.9766H18.1596L17.2111 17.9532V24.448L17.5253 24.7715H16.9029L15.9545 25.7482V32.243L16.9029 33.2196H17.5312L17.2171 33.5431V40.0379L18.1655 41.0146H29.5171L30.1455 40.3675L30.7738 41.0146H34.0163L34.1941 40.8314V41.9546C34.1941 43.151 35.1366 44.1216 36.2984 44.1216H44.7632C45.9251 44.1216 46.8676 43.151 46.8676 41.9546V37.1873C46.8617 36.1252 46.1148 35.2401 45.1308 35.057ZM41.3074 35.0203H39.7425V34.2146C39.7425 33.769 40.0922 33.4088 40.5249 33.4088C40.9576 33.4088 41.3074 33.769 41.3074 34.2146V35.0203V35.0203Z" stroke="white" stroke-miterlimit="10"/>
<path d="M44.7572 35.9966H44.1822V34.2142C44.1822 32.1388 42.5402 30.448 40.5248 30.448C38.5094 30.448 36.8674 32.1388 36.8674 34.2142V35.9966H36.2924C35.6522 35.9966 35.1365 36.5277 35.1365 37.1869V41.942C35.1365 42.6013 35.6522 43.1323 36.2924 43.1323H44.7572C45.3974 43.1323 45.9131 42.6013 45.9131 41.942V37.1869C45.9131 36.5338 45.3974 35.9966 44.7572 35.9966ZM42.2557 35.9966H38.7939V34.2142C38.7939 33.2315 39.5704 32.4318 40.5248 32.4318C41.4791 32.4318 42.2557 33.2315 42.2557 34.2142V35.9966V35.9966Z" fill="white"/>
</svg>
