<svg width="62" height="62" viewBox="0 0 62 62" fill="none" xmlns="http://www.w3.org/2000/svg">
<path d="M42.7122 21.6226H41.5496C41.23 21.6226 40.9684 21.8841 40.9684 22.2038C40.9684 22.5235 41.23 22.7851 41.5496 22.7851H42.7122C43.0319 22.7851 43.2934 22.5235 43.2934 22.2038C43.2934 21.8841 43.0319 21.6226 42.7122 21.6226Z" fill="white"/>
<path d="M39.8011 18.7163C39.4814 18.7163 39.2198 18.9779 39.2198 19.2976V20.4601C39.2198 20.7797 39.4814 21.0413 39.8011 21.0413C40.1208 21.0413 40.3823 20.7797 40.3823 20.4601V19.2976C40.3775 18.9779 40.1208 18.7163 39.8011 18.7163Z" fill="white"/>
<path d="M41.4382 21.3755L42.2617 20.552C42.4893 20.3244 42.4893 19.9563 42.2617 19.7286C42.034 19.5009 41.6659 19.5009 41.4382 19.7286L40.6148 20.552C40.3872 20.7797 40.3872 21.1478 40.6148 21.3755C40.8473 21.6031 41.2154 21.6031 41.4382 21.3755Z" fill="white"/>
<path d="M38.1591 21.3755C38.3867 21.6031 38.7548 21.6031 38.9825 21.3755C39.2101 21.1478 39.2101 20.7797 38.9825 20.552L38.1591 19.7286C37.9314 19.5009 37.5633 19.5009 37.3357 19.7286C37.108 19.9563 37.108 20.3244 37.3357 20.552L38.1591 21.3755Z" fill="white"/>
<path d="M41.448 23.0272C41.2203 22.7995 40.8521 22.7995 40.6245 23.0272C40.3968 23.2548 40.3968 23.623 40.6245 23.8506L41.448 24.6741C41.6756 24.9017 42.0438 24.9017 42.2714 24.6741C42.4991 24.4464 42.4991 24.0783 42.2714 23.8506L41.448 23.0272Z" fill="white"/>
<path d="M44.8434 22.2038C44.8434 21.4966 44.4995 20.8717 43.9667 20.4794C43.986 20.368 43.9909 20.2566 43.9909 20.1452C43.9909 19.5736 43.7681 19.0408 43.366 18.6388C42.964 18.2367 42.4263 18.0139 41.8596 18.0139C41.7482 18.0139 41.6368 18.0236 41.5254 18.0381C41.1379 17.5102 40.5131 17.1663 39.8059 17.1663C39.0987 17.1663 38.4738 17.5102 38.0863 18.0381C37.9749 18.0188 37.8635 18.0139 37.7521 18.0139C37.1806 18.0139 36.6477 18.2367 36.2457 18.6388C35.8437 19.0408 35.6209 19.5784 35.6209 20.1452C35.6209 20.7167 35.8437 21.2495 36.2457 21.6516L36.7979 22.2038L36.6817 22.32L36.4976 22.1359C35.9842 21.6177 35.306 21.3367 34.5746 21.3367C33.8481 21.3367 33.1699 21.6177 32.6565 22.1311L32.5354 22.2522C31.3245 21.8356 30.0602 21.6274 28.767 21.6274C25.6621 21.6274 22.7413 22.8383 20.5471 25.0325C18.3529 27.2267 17.142 30.1475 17.142 33.2524C17.142 36.3572 18.3529 39.278 20.5471 41.4722C22.7413 43.6664 25.6621 44.8725 28.767 44.8725C31.8718 44.8725 34.7926 43.6616 36.9868 41.4674C39.181 39.2731 40.392 36.3524 40.392 33.2475C40.392 31.9542 40.1837 30.6852 39.7671 29.4791L39.8834 29.3628C40.3968 28.8542 40.6826 28.1761 40.6826 27.4495C40.6826 26.723 40.4017 26.04 39.8882 25.5217L39.6993 25.3328L39.8107 25.2214L40.3532 25.7639C40.7552 26.1659 41.2929 26.3888 41.8596 26.3888C42.4312 26.3888 42.964 26.1659 43.366 25.7639C43.7681 25.3619 43.9909 24.8242 43.9909 24.2575C43.9909 24.1461 43.9812 24.0299 43.9667 23.9233C44.4946 23.5406 44.8434 22.9109 44.8434 22.2038Z" stroke="white" stroke-miterlimit="10"/>
<path d="M44.0685 22.2039C44.0685 21.5548 43.6132 21.0123 43.0029 20.8767C43.1434 20.6588 43.216 20.4069 43.216 20.1453C43.216 19.782 43.0756 19.443 42.8189 19.1863C42.5621 18.9295 42.2231 18.7891 41.8598 18.7891C41.5982 18.7891 41.3463 18.8617 41.1284 19.0022C40.9928 18.3967 40.4503 17.9414 39.806 17.9414C39.1618 17.9414 38.6193 18.3967 38.4837 19.0022C38.2657 18.8617 38.0138 18.7891 37.7523 18.7891C37.389 18.7891 37.0499 18.9295 36.7932 19.1863C36.5365 19.443 36.396 19.782 36.396 20.1453C36.396 20.5086 36.5365 20.8477 36.7932 21.1044L37.6167 21.9278C37.7135 22.0247 37.8201 22.1022 37.9315 22.1652L36.677 23.4197L35.9456 22.6883C35.5823 22.3202 35.0931 22.1167 34.5748 22.1167C34.0565 22.1167 33.5721 22.3202 33.204 22.6834L32.7293 23.1581C31.4651 22.6592 30.133 22.4073 28.7623 22.4073C25.8657 22.4073 23.1386 23.5359 21.0897 25.5848C19.0408 27.6338 17.9122 30.3608 17.9122 33.2573C17.9122 36.1539 19.0408 38.8809 21.0897 40.9298C23.1386 42.9787 25.8608 44.1025 28.7623 44.1025C31.6588 44.1025 34.3859 42.9739 36.4348 40.925C38.4837 38.8761 39.6123 36.1491 39.6123 33.2525C39.6123 31.8817 39.3604 30.5497 38.8615 29.2855L39.3313 28.8156C39.6995 28.4523 39.9029 27.968 39.9029 27.4497C39.9029 26.9314 39.7043 26.4422 39.3362 26.0741L38.5999 25.3378L39.8448 24.093C39.9077 24.2044 39.9804 24.3061 40.0724 24.3981L40.8959 25.2216C41.1526 25.4783 41.4917 25.6188 41.8549 25.6188C42.2182 25.6188 42.5573 25.4783 42.814 25.2216C43.0707 24.9648 43.2112 24.6258 43.2112 24.2625C43.2112 23.9961 43.1337 23.7442 42.9981 23.5311C43.6084 23.3955 44.0685 22.853 44.0685 22.2039Z" stroke="white" stroke-miterlimit="10"/>
<path d="M38.7887 26.6211L37.5051 25.3375L40.0239 22.8188L39.1956 21.9954L36.6768 24.5141L35.3932 23.2305C34.9428 22.7752 34.2065 22.7752 33.7512 23.2305L32.9084 24.0733C31.6442 23.5018 30.2395 23.1821 28.7621 23.1821C23.1967 23.1821 18.6871 27.6916 18.6871 33.2571C18.6871 38.8225 23.1967 43.3272 28.7621 43.3272C34.3276 43.3272 38.8371 38.8177 38.8371 33.2522C38.8371 31.7749 38.5174 30.3702 37.9459 29.106L38.7887 28.2632C39.244 27.8127 39.244 27.0764 38.7887 26.6211ZM30.6657 35.1219C30.2734 35.645 29.8859 36.1294 29.5614 36.391C29.1642 36.7107 28.8493 36.7107 28.5296 36.7107L28.8881 35.2866C27.3429 35.1849 25.9576 34.5261 25.5604 33.6639C25.5168 33.8916 25.4539 34.0999 25.3618 34.2597C25.047 34.8167 24.4124 34.8167 23.7828 34.8167C24.3059 34.8167 24.4948 34.0708 24.4948 33.1553C24.4948 32.2399 24.3059 31.4939 23.7828 31.4939C24.4124 31.4939 25.0518 31.4939 25.3618 32.051C25.4587 32.206 25.5168 32.4143 25.5604 32.6468C25.8704 31.9735 26.781 31.4261 27.8903 31.1743L27.1007 29.6C28.0501 29.6 28.9995 29.6 29.6292 29.9197C30.1668 30.1861 30.472 30.6802 30.7481 31.2082C32.1334 31.5424 33.2668 32.2883 33.2668 33.165C33.2765 34.0369 32.0898 34.8071 30.6657 35.1219Z" fill="white"/>
<path d="M30.874 32.831C30.874 33.0926 31.0871 33.3057 31.3487 33.3057C31.6054 33.3057 31.8186 33.1023 31.8234 32.8455L30.9273 32.613C30.8934 32.676 30.874 32.7487 30.874 32.831Z" fill="white"/>
</svg>
