<svg width="62" height="62" viewBox="0 0 62 62" fill="none" xmlns="http://www.w3.org/2000/svg">
<path d="M22.9255 43.1819C22.0779 43.1819 21.3174 42.712 20.9396 41.9564L20.3438 40.7551C20.0774 40.2272 20.0338 39.6217 20.2227 39.0598C20.4116 38.498 20.804 38.0426 21.3368 37.7762L24.4271 36.2747L21.3368 34.7731C20.2421 34.2258 19.7965 32.8889 20.3438 31.7942L20.9444 30.5978C21.3222 29.8422 22.0827 29.3723 22.9304 29.3723C23.2694 29.3723 23.6085 29.4498 23.9136 29.6L25.7591 30.4961C25.2796 30.0747 24.863 29.5951 24.524 29.0817C23.8265 28.0209 23.4632 26.8051 23.4632 25.5651C23.4632 21.758 26.8635 18.658 31.0388 18.658C35.2141 18.658 38.6047 21.758 38.6047 25.5651C38.6047 26.8051 38.2366 28.0209 37.5439 29.0817C37.2049 29.5951 36.7883 30.0747 36.3088 30.4961L38.1542 29.6C38.4594 29.4498 38.7985 29.3723 39.1375 29.3723C39.9852 29.3723 40.7456 29.8422 41.1235 30.5978L41.7241 31.7942C41.9905 32.3222 42.0341 32.9228 41.8452 33.4895C41.6563 34.0514 41.2639 34.5067 40.7311 34.7731L37.6408 36.2747L40.7311 37.7762C41.8258 38.3236 42.2714 39.6605 41.7241 40.7551L41.1235 41.9516C40.7456 42.7072 39.9852 43.177 39.1375 43.177C38.7985 43.177 38.4594 43.0995 38.1542 42.9494L31.0339 39.4861L23.9136 42.9494C23.6036 43.1044 23.2646 43.1819 22.9255 43.1819Z" stroke="white" stroke-miterlimit="10"/>
<path d="M22.9255 42.4071C22.3733 42.4071 21.8793 42.102 21.6322 41.6079L21.0316 40.4115C20.8572 40.0676 20.833 39.6752 20.9541 39.3071C21.0752 38.939 21.3319 38.6435 21.6807 38.474L26.1951 36.2798L21.6807 34.0855C20.9687 33.7271 20.678 32.8601 21.0365 32.148L21.6371 30.9516C21.8841 30.4576 22.3782 30.1524 22.9304 30.1524C23.1532 30.1524 23.3712 30.2057 23.5697 30.3026L26.9943 31.9688C26.9022 31.683 26.8829 31.3682 26.9458 31.0679L27.0621 30.5302C26.2968 30.0313 25.6477 29.3968 25.1682 28.6654C24.5579 27.7305 24.2333 26.6649 24.2333 25.5751C24.2333 22.1941 27.2849 19.4429 31.034 19.4429C34.783 19.4429 37.8297 22.1844 37.8297 25.5654C37.8297 26.6552 37.5052 27.7208 36.8949 28.6557C36.4154 29.3871 35.7663 30.0216 35.001 30.5205L35.1172 31.0582C35.1802 31.3634 35.1608 31.6734 35.0688 31.9591L38.4933 30.2929C38.6919 30.196 38.9147 30.1427 39.1327 30.1427C39.6849 30.1427 40.179 30.4479 40.426 30.9419L41.0266 32.1384C41.201 32.4823 41.2252 32.8746 41.1041 33.2379C40.983 33.606 40.7263 33.9015 40.3776 34.0759L35.8632 36.2701L40.3776 38.4643C41.0896 38.8227 41.3802 39.6898 41.0218 40.4018L40.426 41.6079C40.179 42.102 39.6849 42.4071 39.1327 42.4071C38.9099 42.4071 38.6919 42.3538 38.4933 42.257L31.0291 38.629L23.5649 42.257C23.3712 42.3538 23.1483 42.4071 22.9255 42.4071ZM33.3735 25.6719C33.0635 25.6719 32.8116 25.9238 32.8116 26.2338C32.8116 26.5438 33.0635 26.7957 33.3735 26.7957C33.6835 26.7957 33.9354 26.5438 33.9354 26.2338C33.9354 25.9238 33.6835 25.6719 33.3735 25.6719ZM28.6847 25.6719C28.3747 25.6719 28.1229 25.9238 28.1229 26.2338C28.1229 26.5438 28.3747 26.7957 28.6847 26.7957C28.9947 26.7957 29.2466 26.5438 29.2466 26.2338C29.2515 25.9238 28.9996 25.6719 28.6847 25.6719Z" stroke="white" stroke-miterlimit="10"/>
<path d="M40.0336 39.1664L34.0952 36.2747L40.0385 33.383C40.3678 33.2183 40.5035 32.8163 40.3388 32.4869L39.7333 31.2905C39.5686 30.9611 39.1666 30.8255 38.8372 30.9902L31.0339 34.7877L23.2306 30.9902C22.9013 30.8255 22.4992 30.9611 22.3346 31.2905L21.7339 32.4869C21.5692 32.8163 21.7049 33.2183 22.0342 33.383L27.9775 36.2747L22.0391 39.1664C21.7097 39.3311 21.5741 39.7332 21.7388 40.0625L22.3394 41.2589C22.5041 41.5883 22.9061 41.7239 23.2355 41.5593L31.0388 37.7618L38.8324 41.5593C39.1617 41.7239 39.5638 41.5883 39.7285 41.2589L40.3291 40.0625C40.4986 39.7332 40.363 39.3311 40.0336 39.1664ZM27.9339 30.1377L27.7063 31.2178C27.5949 31.7458 27.9339 32.2593 28.3941 32.2593H33.6689C34.1291 32.2593 34.4681 31.7458 34.3567 31.2178L34.1242 30.1377C35.8728 29.198 37.0547 27.5124 37.0547 25.5652C37.0547 22.6057 34.3567 20.208 31.0291 20.208C27.7014 20.208 25.0035 22.6057 25.0035 25.5652C25.0035 27.5124 26.1853 29.198 27.9339 30.1377ZM33.3735 24.8968C34.1097 24.8968 34.7103 25.4974 34.7103 26.2336C34.7103 26.9699 34.1097 27.5705 33.3735 27.5705C32.6372 27.5705 32.0366 26.9699 32.0366 26.2336C32.0366 25.4974 32.6324 24.8968 33.3735 24.8968ZM28.6847 24.8968C29.421 24.8968 30.0216 25.4974 30.0216 26.2336C30.0216 26.9699 29.421 27.5705 28.6847 27.5705C27.9485 27.5705 27.3478 26.9699 27.3478 26.2336C27.3478 25.4974 27.9485 24.8968 28.6847 24.8968Z" fill="white"/>
</svg>
