<svg width="62" height="62" viewBox="0 0 62 62" fill="none" xmlns="http://www.w3.org/2000/svg">
<path d="M25.8358 41.2372C23.3703 41.2372 21.1567 39.6726 20.3333 37.3476C19.2628 34.3154 20.8564 30.9733 23.8886 29.9028C24.5183 29.68 25.1722 29.5686 25.831 29.5686C26.0199 29.5686 26.2088 29.5783 26.3928 29.5976L25.9181 29.123L25.6905 28.5756V27.9992H25.1141L24.5667 27.7716L23.225 26.4298L22.9974 25.8825V24.7878L23.225 24.2405C25.3175 22.148 28.093 21 31.0525 21C34.0072 21 36.7875 22.1528 38.88 24.2405L39.1077 24.7878V25.8825L38.88 26.4298L37.5383 27.7716L36.991 27.9992H36.4145V28.5756L36.1869 29.123L34.8452 30.4647L34.2978 30.6923H33.2031L32.6558 30.4647L32.651 30.4598C32.2247 30.0336 31.658 29.8011 31.0574 29.8011C30.4519 29.8011 29.8852 30.0384 29.4589 30.4647L29.1344 30.6003C29.827 31.075 30.418 31.695 30.8539 32.4264H40.5753L41.1227 32.654L41.8977 33.429L42.1253 33.9764V36.8342L41.8977 37.3815L41.1227 38.1565L40.5753 38.3842H38.3181V39.692L38.0905 40.2393L37.3155 41.0143L36.7681 41.242H33.9103L33.363 41.0143L32.588 40.2393L32.3603 39.692V38.3842H30.8539C30.1613 39.5564 29.086 40.4476 27.7781 40.9078C27.1533 41.1209 26.4994 41.2372 25.8358 41.2372Z" stroke="white" stroke-miterlimit="10"/>
<path d="M24.2768 24.9211L25.6186 26.2628C28.5926 23.2888 33.4122 23.2839 36.3911 26.258L36.3959 26.2628L37.7376 24.9211C34.0225 21.2011 27.9968 21.2011 24.2768 24.9211ZM26.9748 27.6142L28.3165 28.9559C29.8036 27.4689 32.2158 27.4689 33.7028 28.9511C33.7028 28.9511 33.7028 28.9511 33.7076 28.9559L35.0493 27.6142C32.8164 25.3861 29.2029 25.3861 26.9748 27.6142ZM29.8278 33.5623C29.0431 31.3342 26.5922 30.162 24.364 30.9516C22.1311 31.7411 20.9637 34.1872 21.7533 36.4201C22.5428 38.6531 24.9889 39.8204 27.2218 39.0309C28.4425 38.5998 29.4015 37.6408 29.8326 36.4201H33.8675V39.2779H36.7253V36.4201H40.5325V33.5623H29.8278ZM25.7736 36.4201C24.984 36.4201 24.3447 35.7808 24.3447 34.9912C24.3447 34.2017 24.984 33.5623 25.7736 33.5623C26.5631 33.5623 27.2025 34.2017 27.2025 34.9912C27.2025 35.7808 26.5631 36.4201 25.7736 36.4201Z" fill="white"/>
</svg>
