<svg width="62" height="62" viewBox="0 0 62 62" fill="none" xmlns="http://www.w3.org/2000/svg">
<path d="M35.2717 44.3522C34.4969 44.3522 33.8667 43.7209 33.8667 42.945V41.3872C33.8667 41.0108 34.0112 40.6576 34.2772 40.3912L37.1277 37.5363C37.0757 37.2699 37.0526 36.992 37.0526 36.7198C37.0526 35.5269 37.5267 34.4382 38.2957 33.6448V29.3596C38.2957 27.9466 37.1509 26.8 35.74 26.8H34.4622V24.2405C34.4622 20.708 31.6001 17.8416 28.073 17.8416C24.546 17.8416 21.6838 20.708 21.6838 24.2405V26.8H20.406C19.001 26.8 17.8503 27.9408 17.8503 29.3596V42.1516C17.8503 43.5646 18.9952 44.7112 20.406 44.7112H35.7343C36.2142 44.7112 36.6652 44.578 37.0468 44.3464H35.2717V44.3522ZM28.0788 38.3181C26.668 38.3181 25.5231 37.1715 25.5231 35.7585C25.5231 34.3455 26.668 33.1989 28.0788 33.1989C29.4838 33.1989 30.6345 34.3397 30.6345 35.7585C30.6287 37.1715 29.4896 38.3181 28.0788 38.3181ZM31.9065 26.8058H24.2453V24.2463C24.2453 22.1268 25.9626 20.4069 28.0788 20.4069C30.195 20.4069 31.9123 22.1268 31.9123 24.2463V26.8058H31.9065Z" fill="white"/>
<path d="M45.2688 32.9325C44.2627 31.9191 42.9155 31.3632 41.4815 31.3632C41.019 31.3632 40.5738 31.4211 40.1459 31.5311V29.3653C40.1459 27.1243 38.4749 25.2712 36.3124 24.9932V24.252C36.3124 19.7004 32.6176 16 28.0729 16C23.5282 16 19.8335 19.7004 19.8335 24.252V24.9932C17.6768 25.277 16 27.1301 16 29.3653V42.1574C16 44.5895 17.9775 46.57 20.4059 46.57H35.7342C36.5321 46.57 37.3185 46.3499 38.0007 45.9388L38.3245 45.1165C38.9143 44.8849 39.3942 44.4158 39.6428 43.8251C40.2326 43.5877 40.701 43.1129 40.9323 42.5164C41.1693 42.4122 41.3948 42.2616 41.5856 42.0821C44.4882 42.0242 46.83 39.6383 46.83 36.7197C46.8357 35.2894 46.2807 33.9401 45.2688 32.9325Z" stroke="white" stroke-miterlimit="10"/>
<path d="M44.6154 33.587C43.7828 32.7531 42.6669 32.2898 41.4816 32.2898C40.6547 32.2898 39.8857 32.5157 39.2208 32.9153V29.3655C39.2208 27.4429 37.6596 25.8794 35.74 25.8794H35.3873V24.2463C35.3873 20.2101 32.1088 16.9209 28.073 16.9209C24.0371 16.9209 20.7587 20.2043 20.7587 24.2463V25.8794H20.406C18.4863 25.8794 16.9252 27.4429 16.9252 29.3655V42.1575C16.9252 44.08 18.4863 45.6436 20.406 45.6436H35.7342C36.3644 45.6436 36.9889 45.4699 37.5266 45.1456L37.3069 44.3522H37.4919C38.2263 44.3522 38.8276 43.7905 38.8912 43.0724C39.5677 43.0145 40.1112 42.4702 40.169 41.7927C40.5044 41.7521 40.8108 41.59 41.0363 41.3352L41.1925 41.1615C41.285 41.1672 41.3833 41.173 41.4758 41.173C43.9158 41.173 45.9048 39.181 45.9048 36.7372C45.9106 35.5385 45.4538 34.4209 44.6154 33.587Z" stroke="white" stroke-miterlimit="10"/>
<path d="M44.9856 36.7253C44.9856 38.6653 43.4187 40.2346 41.4817 40.2346C41.2562 40.2346 41.0422 40.2114 40.8283 40.1709L40.3484 40.7095C40.2559 40.8137 40.1287 40.8716 39.9899 40.8716H39.2498V41.6707C39.2498 41.9371 39.0359 42.1514 38.7699 42.1514H37.972V42.9447C37.972 43.2111 37.758 43.4254 37.4921 43.4254H35.2602C34.9942 43.4254 34.7803 43.2111 34.7803 42.9447V41.387C34.7803 41.2596 34.8323 41.138 34.919 41.0511L38.1396 37.8256C38.024 37.4781 37.9662 37.1075 37.9662 36.7253C37.9662 34.7854 39.5331 33.2161 41.4701 33.2161C43.4245 33.2161 44.9856 34.7796 44.9856 36.7253ZM41.4817 35.764C41.4817 36.291 41.9096 36.7195 42.4357 36.7195C42.9619 36.7195 43.3955 36.2968 43.3955 35.764C43.3955 35.2313 42.9677 34.8086 42.4415 34.8086C41.9153 34.8086 41.4817 35.2371 41.4817 35.764Z" fill="white"/>
</svg>
