<svg width="62" height="62" viewBox="0 0 62 62" fill="none" xmlns="http://www.w3.org/2000/svg">
<g clip-path="url(#clip0)">
<path d="M35.1692 43.5498H28.1054L22.5703 43.565C21.0617 43.565 19.8377 42.3281 19.8377 40.8086V36.4923C19.518 36.6387 19.1683 36.7144 18.8137 36.7144C18.0543 36.7144 17.345 36.3762 16.8604 35.7855L15.5765 34.2105C15.1469 33.6855 14.9471 33.0241 15.012 32.3426C15.077 31.6661 15.3967 31.0503 15.9162 30.6161L28.6699 19.9996C29.4443 19.3534 30.4234 19 31.4275 19C32.4316 19 33.4108 19.3534 34.1851 19.9996L35.5838 21.1607C35.7687 19.939 36.8177 19 38.0816 19H40.9041C42.2979 19 43.4319 20.146 43.4319 21.5544V27.6931L46.9488 30.6212C47.4683 31.0553 47.793 31.6661 47.858 32.3426C47.9229 33.0191 47.7231 33.6855 47.2935 34.2105L46.0096 35.7906H46.0046V35.7956C45.525 36.3812 44.8157 36.7195 44.0563 36.7195C43.7017 36.7195 43.347 36.6438 43.0273 36.4974V40.8136C43.0273 42.3332 41.8033 43.57 40.2997 43.57L35.1692 43.5498Z" stroke="white" stroke-miterlimit="10"/>
<path d="M35.1692 42.5806H28.1005L22.5654 42.5957C21.5912 42.5957 20.7969 41.7931 20.7969 40.8086V34.5589L19.8078 35.3817C19.528 35.614 19.1733 35.7452 18.8137 35.7452C18.3441 35.7452 17.9045 35.5332 17.6047 35.1697L16.3209 33.5946C16.0561 33.2715 15.9312 32.8576 15.9712 32.4386C16.0111 32.0196 16.211 31.6359 16.5307 31.3683L29.2844 20.7518C29.8889 20.252 30.6482 19.9744 31.4325 19.9744C32.2118 19.9744 32.9762 20.252 33.5806 20.7518L36.523 23.1952V21.5545C36.523 20.6811 37.2274 19.9744 38.0866 19.9744H40.9091C41.7734 19.9744 42.4728 20.6862 42.4728 21.5545V28.1475L46.3343 31.3683C46.6591 31.6359 46.8589 32.0145 46.8988 32.4386C46.9388 32.8576 46.8139 33.2715 46.5492 33.5946L45.2603 35.1697L45.2503 35.1596L45.2603 35.1697C44.9606 35.5332 44.5209 35.7452 44.0564 35.7452C43.6917 35.7452 43.337 35.614 43.0572 35.3817L42.0631 34.5538V40.8086C42.0631 41.7931 41.2688 42.5957 40.2947 42.5957L35.1692 42.5806Z" stroke="white" stroke-miterlimit="10"/>
<path d="M45.7198 32.1157C45.7198 32.1157 45.7198 32.1106 45.7198 32.1157L41.5036 28.6071V21.5496C41.5036 21.2114 41.2338 20.9388 40.8991 20.9388H38.0816C37.7469 20.9388 37.4771 21.2114 37.4771 21.5496V25.2449L32.9661 21.4941C32.0719 20.752 30.783 20.752 29.8938 21.4941L17.1401 32.1106C16.8803 32.3277 16.8454 32.7114 17.0602 32.9688L18.344 34.5489C18.5538 34.8114 18.9385 34.8468 19.1933 34.6348L21.756 32.5044V40.8139C21.756 41.2632 22.1157 41.6266 22.5603 41.6266L28.1004 41.6115H35.1692L40.2946 41.6266C40.7392 41.6266 41.0989 41.2632 41.0989 40.8139V32.4993L43.6617 34.6348C43.9164 34.8518 44.3011 34.8114 44.5109 34.554L45.7948 32.9739C46.0146 32.7114 45.9796 32.3277 45.7198 32.1157ZM31.4325 38.734L29.4292 36.0331C29.9837 35.6091 30.6831 35.3567 31.4325 35.3567C32.1818 35.3567 32.8812 35.6091 33.4357 36.0331L31.4325 38.734ZM34.4348 34.6852C33.6005 34.0492 32.5615 33.6756 31.4325 33.6756C30.3035 33.6756 29.2644 34.0542 28.4301 34.6852L27.431 33.3373C28.55 32.4892 29.9338 31.9895 31.4375 31.9895C32.9411 31.9895 34.3249 32.4892 35.4439 33.3373L34.4348 34.6852ZM36.438 31.9844C35.0493 30.9293 33.3108 30.2983 31.4325 30.2983C29.5541 30.2983 27.8157 30.9293 26.4269 31.9844L25.4278 30.6365C27.1013 29.3643 29.1844 28.6122 31.4375 28.6122C33.6905 28.6122 35.7736 29.3643 37.4471 30.6365L36.438 31.9844Z" fill="white"/>
</g>
<defs>
<clipPath id="clip0">
<rect width="62" height="62" fill="white"/>
</clipPath>
</defs>
</svg>
