<svg width="62" height="62" viewBox="0 0 62 62" fill="none" xmlns="http://www.w3.org/2000/svg">
<path d="M30.9368 49.62L30.6636 49.5867C26.2783 48.5471 22.2784 45.9413 19.3993 42.256C16.5622 38.6307 15 34.2123 15 29.8006V20.9438L15.1821 20.364L15.8476 19.391L16.331 18.9978L30.2993 13.0933L30.7547 13H31.6653L32.1207 13.0933L46.089 18.9978L46.5724 19.391L47.2379 20.364L47.42 20.9438V29.8006C47.42 34.2056 45.8578 38.6307 43.0207 42.256C40.1416 45.9413 36.1346 48.5404 31.7564 49.5867L31.4832 49.62H30.9368V49.62Z" stroke="white" stroke-miterlimit="10"/>
<path d="M30.9368 48.5536C26.8037 47.574 23.0279 45.1082 20.2959 41.6228C17.6059 38.1774 16.1208 33.9789 16.1208 29.8004V20.9437L16.7863 19.9707L30.7546 14.0662H31.6653L45.6336 19.9707L46.2991 20.9437V29.8004C46.2991 33.9789 44.814 38.1774 42.117 41.6228C39.392 45.1082 35.6092 47.574 31.4762 48.5536H30.9368Z" stroke="white" stroke-miterlimit="10"/>
<path d="M29.6549 32.7595H32.7581V34.239H29.6549V32.7595ZM45.1783 20.9438V29.8006C45.1783 37.9243 39.28 45.6015 31.21 47.5208C23.1401 45.6015 17.2417 37.9243 17.2417 29.8006V20.9438L31.21 15.0393L45.1783 20.9438ZM38.9647 28.3278H35.5532C35.245 27.4414 34.6215 26.7017 33.8439 26.1153L35.7073 24.3426L34.6215 23.3096L32.4499 25.3755H31.21C30.9018 25.3755 30.4324 25.3755 30.1242 25.5221L27.9526 23.3096L26.7127 24.4892L28.5761 26.2619C27.7985 26.7017 27.182 27.4414 26.8668 28.3278H23.4553V29.8072H26.5586V31.2867H23.4553V32.7662H26.5586V34.2456H23.4553V35.7251H26.8668C27.4903 37.4978 29.1925 38.6773 31.21 38.6773C33.2275 38.6773 34.9368 37.4978 35.5532 35.7251H38.9647V34.2456H35.8614V32.7662H38.9647V31.2867H35.8614V29.8072H38.9647V28.3278ZM29.6549 31.28H32.7581V29.8006H29.6549V31.28Z" fill="white"/>
</svg>
