<svg width="62" height="62" viewBox="0 0 62 62" fill="none" xmlns="http://www.w3.org/2000/svg">
<path d="M30.0988 38.7803C29.532 37.1577 27.9869 36 26.1705 36C23.8552 36 22 37.8503 22 40.1705C22 42.4858 23.8503 44.3409 26.1705 44.3409C27.9869 44.3409 29.532 43.1833 30.0988 41.5606H34.0464V44.3409H36.8267V41.5606H40.5273V38.7803H30.0988ZM26.1705 41.5606C25.4052 41.5606 24.7803 40.9406 24.7803 40.1705C24.7803 39.4052 25.4003 38.7803 26.1705 38.7803C26.9358 38.7803 27.5606 39.4003 27.5606 40.1705C27.5606 40.9406 26.9358 41.5606 26.1705 41.5606Z" fill="white"/>
<path d="M25 20.7173L26.3078 22.0252C29.2044 19.1238 33.9076 19.1237 36.809 22.0203L36.8139 22.0252L38.1217 20.7173C34.4986 17.0942 28.6231 17.0942 25 20.7173Z" fill="white"/>
<path d="M27 22.6634L28.4954 24C30.1514 22.5198 32.8375 22.5149 34.4991 23.995C34.4991 23.995 34.4991 23.995 34.5046 24L36 22.6634C33.5132 20.4455 29.4868 20.4455 27 22.6634Z" fill="white"/>
<path d="M37.9047 35.3045V32.5194H41.615V27.7967H30.8522C30.4114 26.9442 29.7527 26.2467 28.9583 25.7672L29.4233 25.2973C29.9416 24.7791 30.6294 24.4933 31.3656 24.4933C32.097 24.4933 32.7897 24.7791 33.308 25.2973L34.0103 25.9658L36.6211 23.355L36.6453 23.3308L36.6695 23.3066L39.2948 20.6812L38.6119 19.9983C36.6792 18.0656 34.1072 17 31.3656 17C28.6241 17 26.052 18.0656 24.1194 19.9983L23.4364 20.6812L26.0617 23.3066L26.0956 23.3405L26.115 23.3598L28.1058 25.3506C27.5342 25.1327 26.9142 25.0164 26.2797 25.0164C25.6984 25.0164 25.1172 25.1181 24.565 25.3119C21.8913 26.2564 20.4817 29.2014 21.4311 31.88C21.9784 33.4252 23.2184 34.5925 24.7297 35.072C23.8966 35.3094 23.1312 35.7502 22.5016 36.3798C21.5328 37.3486 21 38.637 21 40.0175C21 41.398 21.5328 42.6864 22.5016 43.6552C23.4703 44.6239 24.7587 45.1567 26.1392 45.1567C28.0719 45.1567 29.8302 44.0766 30.702 42.3764H33.0416V45.147H37.7594V42.3667H41.4648V37.6489H30.702C30.0723 36.4186 28.9728 35.5128 27.6844 35.1059C27.7909 35.0769 27.8927 35.043 27.9944 35.0091C29.2489 34.5634 30.2516 33.6867 30.8522 32.5194H33.182V35.3045H37.9047V35.3045Z" stroke="white" stroke-miterlimit="10"/>
<path d="M30.1143 28.7862C29.3441 26.6113 26.961 25.473 24.7861 26.2383C22.6113 27.0085 21.473 29.3916 22.2383 31.5665C23.0085 33.7413 25.3916 34.8796 27.5665 34.1143C28.758 33.6929 29.6929 32.758 30.1143 31.5665H34.0474V34.3516H36.8326V31.5665H40.5429V28.7813H30.1143V28.7862ZM26.1618 31.5665C25.3916 31.5665 24.7716 30.9416 24.7716 30.1763C24.7716 29.411 25.3965 28.7862 26.1618 28.7862C26.9319 28.7862 27.5519 29.411 27.5519 30.1763C27.5519 30.9416 26.9271 31.5665 26.1618 31.5665Z" fill="white"/>
</svg>
