<svg width="62" height="62" viewBox="0 0 62 62" fill="none" xmlns="http://www.w3.org/2000/svg">
<path d="M42.581 39.9121C44.1467 38.3282 44.1467 35.7602 42.581 34.1763C41.0152 32.5924 38.4766 32.5924 36.9109 34.1763C35.3451 35.7602 35.3451 38.3282 36.9109 39.9121C38.4766 41.4959 41.0152 41.4959 42.581 39.9121Z" stroke="white" stroke-miterlimit="10"/>
<path d="M39.7362 38.9251C38.7163 38.9251 37.8865 38.0856 37.8865 37.054C37.8865 36.0223 38.7163 35.1829 39.7362 35.1829C40.756 35.1829 41.5859 36.0223 41.5859 37.054C41.5859 38.0856 40.756 38.9251 39.7362 38.9251ZM39.7362 37.0489C39.7362 37.0489 39.7312 37.054 39.7362 37.0489C39.7312 37.054 39.7362 37.0591 39.7362 37.0591C39.7412 37.0591 39.7412 37.054 39.7362 37.0489C39.7412 37.0489 39.7412 37.054 39.7362 37.0489Z" fill="white"/>
<path d="M33.1073 37.3372V36.7456C33.6372 35.3953 34.5421 34.2473 35.7269 33.4281C36.7968 32.6897 38.0216 32.2649 39.2964 32.184V23.0205C39.2964 21.7006 38.2265 20.6184 36.9217 20.6184H18.9745C17.6697 20.6184 16.5999 21.7006 16.5999 23.0205V36.6242C16.5999 37.9441 17.6697 39.0263 18.9745 39.0263H34.0322C33.6522 38.5155 33.3423 37.9491 33.1073 37.3372ZM33.8222 26.4088L34.3271 26.6718L34.2521 26.1003H34.5521L34.4771 26.6718L34.982 26.4088L35.082 26.7223L34.5221 26.8235L34.922 27.2281L34.6571 27.4253L34.3971 26.9145L34.1372 27.4253L33.8722 27.2281L34.2721 26.8235L33.7122 26.7223L33.8222 26.4088ZM33.8222 31.1625L34.3271 31.4255L34.2521 30.854H34.5521L34.4771 31.4255L34.982 31.1625L35.082 31.476L34.5221 31.5772L34.922 31.9817L34.6571 32.179L34.3971 31.6682L34.1372 32.179L33.8722 31.9817L34.2721 31.5772L33.7122 31.476L33.8222 31.1625ZM32.2075 26.4088L32.7124 26.6718L32.6374 26.1003H32.9373L32.8624 26.6718L33.3673 26.4088L33.4673 26.7223L32.9074 26.8235L33.3073 27.2281L33.0423 27.4253L32.7824 26.9145L32.5224 27.4253L32.2575 27.2281L32.6574 26.8235L32.0975 26.7223L32.2075 26.4088ZM22.029 31.9767L21.7641 32.1739L21.5041 31.6632L21.2441 32.1739L20.9792 31.9767L21.3791 31.5721L20.8192 31.471L20.9192 31.1574L21.4241 31.4204L21.3491 30.849H21.6491L21.5741 31.4204L22.079 31.1574L22.179 31.471L21.6191 31.5721L22.029 31.9767ZM21.6291 26.8184L22.029 27.223L21.7641 27.4202L21.5041 26.9095L21.2441 27.4202L20.9792 27.223L21.3791 26.8184L20.8192 26.7173L20.9192 26.4037L21.4241 26.6667L21.3491 26.0953H21.6491L21.5741 26.6667L22.079 26.4037L22.179 26.7173L21.6291 26.8184ZM23.6388 31.9767L23.3738 32.1739L23.1139 31.6632L22.8539 32.1739L22.5889 31.9767L22.9889 31.5721L22.429 31.471L22.5289 31.1574L23.0339 31.4204L22.9589 30.849H23.2588L23.1838 31.4204L23.6888 31.1574L23.7888 31.471L23.2288 31.5721L23.6388 31.9767ZM23.2388 26.8184L23.6388 27.223L23.3738 27.4202L23.1139 26.9095L22.8539 27.4202L22.5889 27.223L22.9889 26.8184L22.429 26.7173L22.5289 26.4037L23.0339 26.6667L22.9589 26.0953H23.2588L23.1838 26.6667L23.6888 26.4037L23.7888 26.7173L23.2388 26.8184ZM25.2535 31.9767L24.9886 32.1739L24.7286 31.6632L24.4686 32.1739L24.2037 31.9767L24.6036 31.5721L24.0437 31.471L24.1437 31.1574L24.6486 31.4204L24.5736 30.849H24.8736L24.7986 31.4204L25.3035 31.1574L25.4035 31.471L24.8436 31.5721L25.2535 31.9767ZM24.8536 26.8184L25.2535 27.223L24.9886 27.4202L24.7286 26.9095L24.4686 27.4202L24.2037 27.223L24.6036 26.8184L24.0437 26.7173L24.1437 26.4037L24.6486 26.6667L24.5736 26.0953H24.8736L24.7986 26.6667L25.3035 26.4037L25.4035 26.7173L24.8536 26.8184ZM26.8633 31.9767L26.5983 32.1739L26.3384 31.6632L26.0784 32.1739L25.8134 31.9767L26.2134 31.5721L25.6535 31.471L25.7535 31.1574L26.2584 31.4204L26.1834 30.849H26.4833L26.4084 31.4204L26.9133 31.1574L27.0133 31.471L26.4533 31.5721L26.8633 31.9767ZM26.4633 26.8184L26.8633 27.223L26.5983 27.4202L26.3384 26.9095L26.0784 27.4202L25.8134 27.223L26.2134 26.8184L25.6535 26.7173L25.7535 26.4037L26.2584 26.6667L26.1834 26.0953H26.4833L26.4084 26.6667L26.9133 26.4037L27.0133 26.7173L26.4633 26.8184ZM28.478 31.9767L28.2131 32.1739L27.9531 31.6632L27.6932 32.1739L27.4282 31.9767L27.8281 31.5721L27.2682 31.471L27.3682 31.1574L27.8731 31.4204L27.7981 30.849H28.0981L28.0231 31.4204L28.528 31.1574L28.628 31.471L28.0681 31.5721L28.478 31.9767ZM28.0781 26.8184L28.478 27.223L28.2131 27.4202L27.9531 26.9095L27.6932 27.4202L27.4282 27.223L27.8281 26.8184L27.2682 26.7173L27.3682 26.4037L27.8731 26.6667L27.7981 26.0953H28.0981L28.0231 26.6667L28.528 26.4037L28.628 26.7173L28.0781 26.8184ZM30.0878 31.9767L29.8228 32.1739L29.5629 31.6632L29.3029 32.1739L29.0379 31.9767L29.4379 31.5721L28.878 31.471L28.978 31.1574L29.4829 31.4204L29.4079 30.849H29.7078L29.6329 31.4204L30.1378 31.1574L30.2378 31.471L29.6778 31.5721L30.0878 31.9767ZM29.6878 26.8184L30.0878 27.223L29.8228 27.4202L29.5629 26.9095L29.3029 27.4202L29.0379 27.223L29.4379 26.8184L28.878 26.7173L28.978 26.4037L29.4829 26.6667L29.4079 26.0953H29.7078L29.6329 26.6667L30.1378 26.4037L30.2378 26.7173L29.6878 26.8184ZM31.7025 31.9767L31.4376 32.1739L31.1776 31.6632L30.9177 32.1739L30.6527 31.9767L31.0526 31.5721L30.4927 31.471L30.5927 31.1574L31.0976 31.4204L31.0226 30.849H31.3226L31.2476 31.4204L31.7525 31.1574L31.8525 31.471L31.2926 31.5721L31.7025 31.9767ZM31.3026 26.8184L31.7025 27.223L31.4376 27.4202L31.1776 26.9095L30.9177 27.4202L30.6527 27.223L31.0526 26.8184L30.4927 26.7173L30.5927 26.4037L31.0976 26.6667L31.0226 26.0953H31.3226L31.2476 26.6667L31.7525 26.4037L31.8525 26.7173L31.3026 26.8184ZM32.7874 31.6632L32.5274 32.1739L32.2625 31.9767L32.6624 31.5721L32.1025 31.471L32.2025 31.1574L32.7074 31.4204L32.6324 30.849H32.9323L32.8574 31.4204L33.3623 31.1574L33.4623 31.471L32.9024 31.5721L33.3023 31.9767L33.0373 32.1739L32.7874 31.6632Z" fill="white"/>
<path d="M47.185 36.7455L47.13 36.4471C46.5451 34.9451 45.5353 33.6707 44.2155 32.7605C43.2106 32.0676 42.0808 31.6226 40.896 31.4456V23.0204C40.896 20.8054 39.1113 19 36.9216 19H18.9744C16.7847 19 15 20.8054 15 23.0204V36.6241C15 38.8391 16.7847 40.6445 18.9744 40.6445H34.032L34.262 40.5029C34.592 40.8215 34.9469 41.1098 35.3268 41.3677C36.6416 42.2577 38.1664 42.7281 39.7462 42.7281C40.741 42.7281 41.7209 42.5409 42.6557 42.1667C44.7004 41.3525 46.3351 39.6988 47.135 37.6355L47.19 37.3372L47.185 36.7455Z" stroke="white" stroke-miterlimit="10"/>
<path d="M46.3852 36.7454C45.8553 35.3951 44.9505 34.2471 43.7656 33.4279C42.6708 32.6693 41.411 32.2445 40.1012 32.1788V23.0204C40.1012 21.2504 38.6764 19.8091 36.9267 19.8091H18.9794C17.2297 19.8091 15.8049 21.2504 15.8049 23.0204V36.624C15.8049 38.394 17.2297 39.8353 18.9794 39.8353H34.0321L34.2771 39.3397C34.707 39.8555 35.207 40.3157 35.7719 40.695C36.9517 41.494 38.3265 41.9188 39.7463 41.9188C40.6411 41.9188 41.521 41.7519 42.3609 41.4131C44.2006 40.6798 45.6704 39.1981 46.3902 37.337L46.3852 36.7454Z" stroke="white" stroke-miterlimit="10"/>
<path d="M39.7461 32.978C37.1415 32.978 34.8019 34.6064 33.8521 37.0439C35.1319 40.3412 38.8113 41.9544 42.0708 40.6598C43.7055 40.0074 45.0053 38.7027 45.6452 37.0439C44.6904 34.6014 42.3507 32.978 39.7461 32.978ZM39.7461 39.7546C38.2664 39.7546 37.0666 38.5409 37.0666 37.0439C37.0666 35.547 38.2664 34.3333 39.7461 34.3333C41.2259 34.3333 42.4257 35.547 42.4257 37.0439C42.4257 38.5409 41.2259 39.7546 39.7461 39.7546Z" fill="white"/>
</svg>
