<svg width="62" height="62" viewBox="0 0 62 62" fill="none" xmlns="http://www.w3.org/2000/svg">
<path d="M42.7472 19.2595H16.7031C16.4861 19.2595 16.3101 19.4288 16.3101 19.6374V23.6484H43.1361V19.6374C43.1402 19.4288 42.9641 19.2595 42.7472 19.2595ZM18.7581 22.2117C18.361 22.2117 18.0417 21.9007 18.0417 21.5228C18.0417 21.141 18.3651 20.834 18.7581 20.834C19.1511 20.834 19.4745 21.145 19.4745 21.5228C19.4786 21.9007 19.1552 22.2117 18.7581 22.2117ZM20.9441 22.2117C20.547 22.2117 20.2277 21.9007 20.2277 21.5228C20.2277 21.141 20.5511 20.834 20.9441 20.834C21.3371 20.834 21.6605 21.145 21.6605 21.5228C21.6605 21.9007 21.3371 22.2117 20.9441 22.2117ZM23.1261 22.2117C22.729 22.2117 22.4097 21.9007 22.4097 21.5228C22.4097 21.141 22.7331 20.834 23.1261 20.834C23.5191 20.834 23.8425 21.145 23.8425 21.5228C23.8425 21.9007 23.5232 22.2117 23.1261 22.2117Z" fill="white"/>
<path d="M39.1611 33.6346C39.1611 32.8237 39.8488 32.1624 40.6921 32.1624H43.1402V24.5735H16.3101V39.7356C16.3101 39.9443 16.4861 40.1135 16.7031 40.1135H39.157V33.6346H39.1611ZM23.4495 34.902L27.2075 31.2217V31.1115L23.4495 27.443H26.1431L29.9298 31.1508L26.1431 34.902H23.4495ZM29.3935 37.2559V35.3507H35.9967V37.2559H29.3935Z" fill="white"/>
<path d="M40.6879 44.0261C39.4844 44.0261 38.5019 43.0853 38.5019 41.9241V41.3731H16.703C15.7655 41.3731 15 40.637 15 39.7356V24.5734L15.1924 24.1286L15.2088 24.1129L15.1924 24.0972L15 23.6524V19.6375C15 18.7361 15.7655 18 16.703 18H42.7429C43.6804 18 44.4459 18.7361 44.4459 19.6375V23.6484L44.2535 24.0932L44.2371 24.109L44.2535 24.1247L44.4459 24.5695V31.5365H45.584C46.7875 31.5365 47.77 32.4773 47.77 33.6385V41.9281C47.77 43.0853 46.7916 44.03 45.584 44.03H40.6879V44.0261Z" stroke="white" stroke-miterlimit="10"/>
<path d="M45.5881 32.1662H43.7951V24.5733L43.3161 24.1127L43.7951 23.6522V19.6373C43.7951 19.0823 43.3243 18.6296 42.7471 18.6296H16.703C16.1258 18.6296 15.655 19.0823 15.655 19.6373V23.6483L16.134 24.1088L15.655 24.5693V39.7315C15.655 40.2865 16.1258 40.7392 16.703 40.7392H39.1569V41.92C39.1569 42.7309 39.8447 43.3922 40.688 43.3922H45.5881C46.4314 43.3922 47.1191 42.7309 47.1191 41.92V33.6344C47.1191 32.8235 46.4314 32.1662 45.5881 32.1662Z" stroke="white" stroke-miterlimit="10"/>
<path d="M45.5881 32.7961H40.6879C40.209 32.7961 39.8119 33.174 39.8119 33.6385V41.9281C39.8119 42.3886 40.2049 42.7704 40.6879 42.7704H45.5881C46.0671 42.7704 46.4641 42.3926 46.4641 41.9281V33.6345C46.4641 33.174 46.0712 32.7961 45.5881 32.7961ZM45.5267 38.0628C45.3589 38.0628 45.2238 37.9329 45.2238 37.7715C45.2238 37.6101 45.3589 37.4802 45.5267 37.4802C45.6945 37.4802 45.8296 37.6101 45.8296 37.7715C45.8296 37.9329 45.6945 38.0628 45.5267 38.0628Z" fill="white"/>
</svg>
