<svg width="62" height="62" viewBox="0 0 62 62" fill="none" xmlns="http://www.w3.org/2000/svg">
<path d="M18.6556 45.8C16.6393 45.8 15 44.1296 15 42.075V38.35C15 37.2383 15.4798 36.2372 16.2395 35.5562C15.4798 34.8753 15 33.8742 15 32.7625V29.0375C15 27.9258 15.4798 26.9247 16.2395 26.2437C15.4798 25.5628 15 24.5617 15 23.45V19.725C15 17.6704 16.6393 16 18.6556 16H44.2444C46.2607 16 47.9 17.6704 47.9 19.725V23.45C47.9 24.5617 47.4202 25.5628 46.6605 26.2437C47.4202 26.9247 47.9 27.9258 47.9 29.0375V32.7625C47.9 33.8742 47.4202 34.8753 46.6605 35.5562C47.4202 36.2372 47.9 37.2383 47.9 38.35V42.075C47.9 44.1296 46.2607 45.8 44.2444 45.8H18.6556Z" stroke="white" stroke-miterlimit="10"/>
<path d="M18.6556 44.8687C17.142 44.8687 15.9139 43.6173 15.9139 42.0749V38.3499C15.9139 36.8075 17.142 35.5562 18.6556 35.5562C17.142 35.5562 15.9139 34.3048 15.9139 32.7624V29.0374C15.9139 27.495 17.142 26.2437 18.6556 26.2437C17.142 26.2437 15.9139 24.9923 15.9139 23.4499V19.7249C15.9139 18.1825 17.142 16.9312 18.6556 16.9312H44.2445C45.7581 16.9312 46.9862 18.1825 46.9862 19.7249V23.4499C46.9862 24.9923 45.7581 26.2437 44.2445 26.2437C45.7581 26.2437 46.9862 27.495 46.9862 29.0374V32.7624C46.9862 34.3048 45.7581 35.5562 44.2445 35.5562C45.7581 35.5562 46.9862 36.8075 46.9862 38.3499V42.0749C46.9862 43.6173 45.7581 44.8687 44.2445 44.8687H18.6556ZM41.5028 39.7468C41.2515 39.7468 41.0459 39.9563 41.0459 40.2124C41.0459 40.4685 41.2515 40.678 41.5028 40.678C41.7541 40.678 41.9598 40.4685 41.9598 40.2124C41.9598 39.9563 41.7541 39.7468 41.5028 39.7468ZM37.8473 39.7468C37.596 39.7468 37.3903 39.9563 37.3903 40.2124C37.3903 40.4685 37.596 40.678 37.8473 40.678C38.0986 40.678 38.3042 40.4685 38.3042 40.2124C38.3042 39.9563 38.0986 39.7468 37.8473 39.7468ZM41.5028 30.4343C41.2515 30.4343 41.0459 30.6438 41.0459 30.8999C41.0459 31.156 41.2515 31.3655 41.5028 31.3655C41.7541 31.3655 41.9598 31.156 41.9598 30.8999C41.9598 30.6438 41.7541 30.4343 41.5028 30.4343ZM37.8473 30.4343C37.596 30.4343 37.3903 30.6438 37.3903 30.8999C37.3903 31.156 37.596 31.3655 37.8473 31.3655C38.0986 31.3655 38.3042 31.156 38.3042 30.8999C38.3042 30.6438 38.0986 30.4343 37.8473 30.4343ZM41.5028 21.1218C41.2515 21.1218 41.0459 21.3313 41.0459 21.5874C41.0459 21.8435 41.2515 22.053 41.5028 22.053C41.7541 22.053 41.9598 21.8435 41.9598 21.5874C41.9598 21.3313 41.7541 21.1218 41.5028 21.1218ZM37.8473 21.1218C37.596 21.1218 37.3903 21.3313 37.3903 21.5874C37.3903 21.8435 37.596 22.053 37.8473 22.053C38.0986 22.053 38.3042 21.8435 38.3042 21.5874C38.3042 21.3313 38.0986 21.1218 37.8473 21.1218Z" stroke="white" stroke-miterlimit="10"/>
<path d="M44.2445 25.3126H18.6557C17.6447 25.3126 16.8279 24.4802 16.8279 23.4501V19.725C16.8279 18.6949 17.6447 17.8625 18.6557 17.8625H44.2445C45.2555 17.8625 46.0723 18.6949 46.0723 19.725V23.4501C46.0723 24.4802 45.2555 25.3126 44.2445 25.3126ZM41.5029 20.1907C40.7432 20.1907 40.132 20.8134 40.132 21.5875C40.132 22.3617 40.7432 22.9844 41.5029 22.9844C42.2625 22.9844 42.8737 22.3617 42.8737 21.5875C42.8737 20.8134 42.2625 20.1907 41.5029 20.1907ZM37.8473 20.1907C37.0877 20.1907 36.4765 20.8134 36.4765 21.5875C36.4765 22.3617 37.0877 22.9844 37.8473 22.9844C38.607 22.9844 39.2182 22.3617 39.2182 21.5875C39.2182 20.8134 38.607 20.1907 37.8473 20.1907ZM44.2445 34.6251H18.6557C17.6447 34.6251 16.8279 33.7927 16.8279 32.7626V29.0376C16.8279 28.0074 17.6447 27.1751 18.6557 27.1751H44.2445C45.2555 27.1751 46.0723 28.0074 46.0723 29.0376V32.7626C46.0723 33.7927 45.2555 34.6251 44.2445 34.6251ZM41.5029 29.5032C40.7432 29.5032 40.132 30.126 40.132 30.9001C40.132 31.6742 40.7432 32.2969 41.5029 32.2969C42.2625 32.2969 42.8737 31.6742 42.8737 30.9001C42.8737 30.126 42.2625 29.5032 41.5029 29.5032ZM37.8473 29.5032C37.0877 29.5032 36.4765 30.126 36.4765 30.9001C36.4765 31.6742 37.0877 32.2969 37.8473 32.2969C38.607 32.2969 39.2182 31.6742 39.2182 30.9001C39.2182 30.126 38.607 29.5032 37.8473 29.5032ZM44.2445 43.9376H18.6557C17.6447 43.9376 16.8279 43.1053 16.8279 42.0751V38.3501C16.8279 37.3199 17.6447 36.4876 18.6557 36.4876H44.2445C45.2555 36.4876 46.0723 37.3199 46.0723 38.3501V42.0751C46.0723 43.1053 45.2555 43.9376 44.2445 43.9376ZM41.5029 38.8157C40.7432 38.8157 40.132 39.4385 40.132 40.2126C40.132 40.9867 40.7432 41.6094 41.5029 41.6094C42.2625 41.6094 42.8737 40.9867 42.8737 40.2126C42.8737 39.4385 42.2625 38.8157 41.5029 38.8157ZM37.8473 38.8157C37.0877 38.8157 36.4765 39.4385 36.4765 40.2126C36.4765 40.9867 37.0877 41.6094 37.8473 41.6094C38.607 41.6094 39.2182 40.9867 39.2182 40.2126C39.2182 39.4385 38.607 38.8157 37.8473 38.8157Z" fill="white"/>
</svg>
