<svg width="62" height="62" viewBox="0 0 62 62" fill="none" xmlns="http://www.w3.org/2000/svg">
<path d="M26.7106 31.1843H18.4125V22.2315H33.1551V24.9297H35.2624V21.7328C35.2624 20.9095 34.5545 20.2407 33.6829 20.2407H17.8887C17.0172 20.2407 16.3093 20.9095 16.3093 21.7328V31.6829C16.3093 32.5063 17.0172 33.1751 17.8887 33.1751H24.2064L23.6786 34.6672H21.3095C20.8716 34.6672 20.5197 34.9996 20.5197 35.4133C20.5197 35.8269 20.8716 36.1593 21.3095 36.1593H26.7106V31.1843Z" fill="white"/>
<path d="M39.8903 31.4705H35.5489V30.8442C35.5489 30.5543 35.1765 30.4074 34.9597 30.6123L33.724 31.7797C33.5889 31.9073 33.5889 32.1121 33.724 32.2397L34.9597 33.4071C35.1765 33.612 35.5489 33.4689 35.5489 33.1752V32.5489H39.8903C39.9844 32.5489 40.0621 32.4755 40.0621 32.3866V31.6251C40.0621 31.5439 39.9844 31.4705 39.8903 31.4705Z" fill="white"/>
<path d="M44.7389 24.3075H36.5718V21.7291C36.5718 20.2254 35.2747 19 33.683 19H17.8888C16.2971 19 15 20.2254 15 21.7291V31.6792C15 33.1829 16.2971 34.4083 17.8888 34.4083H19.5009C19.3168 34.7021 19.2145 35.0461 19.2145 35.4095C19.2145 36.5034 20.1556 37.3925 21.3136 37.3925H26.0928C26.3015 38.703 27.5044 39.7158 28.9488 39.7158H30.561C30.3768 40.0095 30.2746 40.3536 30.2746 40.717C30.2746 41.8109 31.2157 42.7 32.3736 42.7H41.3264C42.4844 42.7 43.4255 41.8109 43.4255 40.717C43.4255 40.3536 43.3191 40.0095 43.1391 39.7158H44.7512C46.3429 39.7158 47.64 38.4904 47.64 36.9866V27.0366C47.6277 25.5329 46.3347 24.3075 44.7389 24.3075Z" stroke="white" stroke-miterlimit="10"/>
<path d="M44.739 24.9259H35.9171V21.729C35.9171 20.5655 34.9146 19.6184 33.683 19.6184H17.8888C16.6571 19.6184 15.6547 20.5655 15.6547 21.729V31.6791C15.6547 32.8426 16.6571 33.7897 17.8888 33.7897H23.2981L23.2081 34.0448H21.3095C20.5116 34.0448 19.8651 34.6556 19.8651 35.4094C19.8651 36.1632 20.5116 36.7739 21.3095 36.7739H26.7106V36.9866C26.7106 38.1501 27.7131 39.0972 28.9447 39.0972H34.3541L34.264 39.3523H32.3655C31.5676 39.3523 30.9211 39.9631 30.9211 40.7169C30.9211 41.4707 31.5676 42.0814 32.3655 42.0814H41.3182C42.1161 42.0814 42.7626 41.4707 42.7626 40.7169C42.7626 39.9631 42.1161 39.3523 41.3182 39.3523H39.4197L39.3296 39.0972H44.739C45.9706 39.0972 46.9731 38.1501 46.9731 36.9866V27.0365C46.9731 25.8729 45.9706 24.9259 44.739 24.9259Z" stroke="white" stroke-miterlimit="10"/>
<path d="M44.739 25.5444H29.1616L29.3703 25.7416C29.759 26.1088 29.759 26.708 29.3703 27.0791L28.1345 28.2465C27.9463 28.4243 27.6967 28.5248 27.4308 28.5248C27.4103 28.5248 27.3898 28.5248 27.3694 28.5209V36.9866C27.3694 37.8099 28.0773 38.4787 28.9488 38.4787H35.2665L34.7387 39.9708H32.3695C31.9317 39.9708 31.5798 40.3033 31.5798 40.7169C31.5798 41.1305 31.9317 41.4629 32.3695 41.4629H41.3224C41.7602 41.4629 42.1121 41.1305 42.1121 40.7169C42.1121 40.3033 41.7602 39.9708 41.3224 39.9708H38.9532L38.4254 38.4787H44.7431C45.6146 38.4787 46.3225 37.8099 46.3225 36.9866V27.0366C46.3184 26.2132 45.6105 25.5444 44.739 25.5444ZM44.2152 36.4879H29.4726V27.5352H44.2152V36.4879Z" fill="white"/>
<path d="M22.7375 26.9555H27.0789V27.5818C27.0789 27.8717 27.4512 28.0186 27.6681 27.8137L28.9038 26.6463C29.0388 26.5187 29.0388 26.3139 28.9038 26.1863L27.6681 25.0189C27.4512 24.814 27.0789 24.957 27.0789 25.2508V25.8654H22.7375C22.6434 25.8654 22.5657 25.9389 22.5657 26.0278V26.7893C22.5657 26.8821 22.6434 26.9555 22.7375 26.9555Z" fill="white"/>
</svg>
