<svg width="62" height="62" viewBox="0 0 62 62" fill="none" xmlns="http://www.w3.org/2000/svg">
<path d="M25.6417 31.1513C25.356 30.8268 25.2252 30.3957 25.2833 29.9694L25.6853 26.9711H18.2647V19.2647H30.253V21.4735H31.9676V18.8336C31.9676 18.1265 31.3912 17.55 30.6841 17.55H17.8336C17.1265 17.55 16.55 18.1265 16.55 18.8336V27.3974C16.55 28.1046 17.1265 28.681 17.8336 28.681H22.9728L22.5466 29.9646H20.6188C20.2652 29.9646 19.9746 30.2504 19.9746 30.6088C19.9746 30.9624 20.2603 31.253 20.6188 31.253H25.7386C25.7047 31.2191 25.6708 31.1852 25.6417 31.1513Z" fill="white"/>
<path d="M34.9223 27.0487H31.4639L32.7426 23.1543C32.8637 22.699 32.5198 22.2485 32.0451 22.2485H27.7245C27.366 22.2485 27.0609 22.5149 27.0124 22.8734L26.0534 30.0712C25.9953 30.5023 26.3343 30.8849 26.7654 30.8849H30.3256L28.9451 36.7168C28.8385 37.1721 29.1873 37.6032 29.6426 37.6032C29.8945 37.6032 30.1367 37.4724 30.2675 37.2448L35.5472 28.1288C35.8233 27.6493 35.4793 27.0487 34.9223 27.0487Z" fill="white"/>
<path d="M44.3773 28.3613H37.1117C37.2716 27.7897 37.1941 27.1745 36.8889 26.6369C36.4772 25.9248 35.7458 25.4986 34.9223 25.4986H33.6L34.2103 23.6386L34.2152 23.6144L34.2297 23.5708L34.2345 23.5466C34.4137 22.8587 34.2684 22.1419 33.8373 21.58C33.7405 21.4541 33.6291 21.3378 33.508 21.2361V18.8336C33.508 17.2691 32.2389 16 30.6744 16H17.8336C16.2691 16 15 17.2691 15 18.8336V27.3973C15 28.9619 16.2691 30.2309 17.8336 30.2309H18.4584C18.4391 30.352 18.4245 30.478 18.4245 30.6087C18.4245 31.8197 19.4078 32.803 20.6187 32.803H25.7386L26.3344 32.3961C26.4748 32.4252 26.6202 32.4397 26.7655 32.4397H28.3639L27.4339 36.3631C27.2741 37.0413 27.4291 37.7436 27.8602 38.2909C28.0878 38.5767 28.3736 38.7995 28.6981 38.9497V39.7586C28.6981 41.3231 29.9672 42.5922 31.5317 42.5922H32.1566C32.1372 42.7133 32.1227 42.8392 32.1227 42.97C32.1227 44.1809 33.1059 45.1642 34.3169 45.1642H41.5922C42.8031 45.1642 43.7864 44.1809 43.7864 42.97C43.7864 42.8441 43.7767 42.7181 43.7525 42.5922H44.3773C45.9419 42.5922 47.2109 41.3231 47.2109 39.7586V31.1948C47.2109 29.6303 45.937 28.3613 44.3773 28.3613Z" stroke="white" stroke-miterlimit="10"/>
<path d="M44.3774 29.1362H35.8524L36.2108 28.5162C36.4821 28.0512 36.4869 27.4893 36.2156 27.0194C35.9444 26.5496 35.46 26.2687 34.9224 26.2687H32.5296L33.4741 23.3915L33.4886 23.3479C33.6097 22.8974 33.5128 22.4227 33.2271 22.0546C33.0672 21.8463 32.8589 21.6865 32.6216 21.5896L32.7378 21.4733V18.8335C32.7378 17.7001 31.8127 16.7749 30.6792 16.7749H17.8336C16.7002 16.7749 15.775 17.7001 15.775 18.8335V27.3972C15.775 28.5307 16.7002 29.4558 17.8336 29.4558H19.7905C19.4321 29.7126 19.1996 30.134 19.1996 30.6087C19.1996 31.3885 19.8341 32.0279 20.6188 32.0279H25.7386L25.976 31.4369C26.2133 31.5822 26.4846 31.6646 26.7703 31.6646H29.3521L28.1896 36.5374C28.083 36.983 28.1847 37.448 28.4705 37.8065C28.7224 38.1213 29.0808 38.3199 29.4731 38.3635V39.7537C29.4731 40.8871 30.3983 41.8122 31.5317 41.8122H33.4886C33.1302 42.069 32.8977 42.4904 32.8977 42.9651C32.8977 43.7449 33.5322 44.3843 34.3169 44.3843H41.5922C42.3721 44.3843 43.0114 43.7497 43.0114 42.9651C43.0114 42.4904 42.7789 42.069 42.4205 41.8122H44.3774C45.5108 41.8122 46.436 40.8871 46.436 39.7537V31.1947C46.436 30.0613 45.5108 29.1362 44.3774 29.1362Z" stroke="white" stroke-miterlimit="10"/>
<path d="M44.3774 29.9114H35.4068L34.4138 31.6261H43.9463V39.3325H31.9629V35.8595L30.936 37.6323C30.7761 37.9084 30.534 38.1216 30.2482 38.2475V39.7588C30.2482 40.466 30.8246 41.0424 31.5318 41.0424H36.671L36.2447 42.326H34.3169C33.9633 42.326 33.6727 42.6117 33.6727 42.9702C33.6727 43.3238 33.9585 43.6144 34.3169 43.6144H41.5922C41.9458 43.6144 42.2364 43.3286 42.2364 42.9702C42.2364 42.6166 41.9507 42.326 41.5922 42.326H39.6644L39.2382 41.0424H44.3774C45.0846 41.0424 45.661 40.466 45.661 39.7588V31.195C45.661 30.4878 45.0846 29.9114 44.3774 29.9114Z" fill="white"/>
</svg>
