<svg width="62" height="62" viewBox="0 0 62 62" fill="none" xmlns="http://www.w3.org/2000/svg">
<path d="M32.9334 30.7006C33.3887 30.7006 33.7617 30.3276 33.7617 29.8723C33.7617 29.664 33.6842 29.4703 33.5534 29.325L32.1487 30.1339C32.2601 30.4632 32.5701 30.7006 32.9334 30.7006Z" fill="white"/>
<path d="M30.0368 30.7007C30.3952 30.7007 30.7052 30.4682 30.8166 30.1485L29.4071 29.3347C29.2812 29.48 29.2085 29.6689 29.2085 29.8724C29.2085 30.3325 29.5815 30.7007 30.0368 30.7007Z" fill="white"/>
<path d="M19.0464 45.6437C17.5884 45.6437 16.2806 44.8881 15.5492 43.6239C14.8178 42.3597 14.8178 40.8484 15.5443 39.5842L27.9831 18.0198C28.7145 16.7556 30.0223 16 31.4803 16C32.9431 16 34.2509 16.7556 34.9774 18.0198L47.421 39.5842C48.1476 40.8484 48.1476 42.3548 47.421 43.6191C46.6896 44.8833 45.3818 45.6389 43.9239 45.6389H19.0464V45.6437Z" stroke="white" stroke-miterlimit="10"/>
<path d="M19.0464 44.8687C17.8694 44.8687 16.8134 44.2583 16.2225 43.2363C15.6316 42.2143 15.6316 40.9937 16.2225 39.9716L28.6612 18.4072C29.2522 17.3852 30.3081 16.7749 31.4851 16.7749C32.667 16.7749 33.7229 17.3852 34.3139 18.4072L46.7526 39.9716C47.3435 40.9937 47.3387 42.2094 46.7526 43.2315C46.1617 44.2535 45.1057 44.8638 43.9287 44.8638H19.0464V44.8687Z" stroke="white" stroke-miterlimit="10"/>
<path d="M46.0793 40.3594L33.6406 18.795C32.6864 17.1385 30.2887 17.1336 29.3297 18.795L16.8909 40.3594C15.9367 42.016 17.1331 44.0891 19.0464 44.0891H43.9239C45.8323 44.0939 47.0336 42.0208 46.0793 40.3594ZM31.4851 26.1527C33.5389 26.1527 35.2051 27.6349 35.2051 29.461C35.2051 30.6622 34.4737 31.7085 33.3936 32.2849L33.534 32.9533C33.6018 33.2778 33.3936 33.5975 33.1078 33.5975H29.8479C29.5622 33.5975 29.3539 33.2827 29.4217 32.9533L29.5622 32.2849C28.482 31.7036 27.7506 30.6622 27.7506 29.461C27.7651 27.6349 29.4314 26.1527 31.4851 26.1527ZM37.0457 37.8649C37.2492 37.9666 37.3315 38.2136 37.2298 38.4219L36.8617 39.163C36.76 39.3664 36.5129 39.4488 36.3047 39.347L31.4851 36.9978L26.6656 39.3422C26.4622 39.4439 26.2151 39.3616 26.1086 39.1581L25.7404 38.417C25.6387 38.2136 25.7211 37.9666 25.9245 37.86L29.5961 36.0727L25.9245 34.2853C25.7211 34.1836 25.6387 33.9366 25.7404 33.7283L26.1086 32.9872C26.2103 32.7838 26.4573 32.7014 26.6656 32.8031L31.4851 35.1475L36.3047 32.8031C36.5081 32.7014 36.7551 32.7838 36.8617 32.9872L37.2298 33.7283C37.3315 33.9317 37.2492 34.1788 37.0457 34.2853L33.3742 36.0775L37.0457 37.8649Z" fill="white"/>
</svg>
