<svg width="62" height="62" viewBox="0 0 62 62" fill="none" xmlns="http://www.w3.org/2000/svg">
<path d="M40.7466 36.6642C40.8404 36.4436 40.7329 36.1907 40.5063 36.0993C40.2798 36.008 40.0201 36.1127 39.9263 36.3333C39.8324 36.5539 39.94 36.8067 40.1665 36.8981C40.3931 36.9895 40.6528 36.8847 40.7466 36.6642Z" fill="white"/>
<path d="M31.0222 40.969V35.6H19.2619V23.15H39.1509V25.3114C40.1854 25.3114 41.1532 25.5794 41.9922 26.0463V22.4583C41.9922 21.3127 41.0377 20.3833 39.8613 20.3833H18.5516C17.3751 20.3833 16.4207 21.3127 16.4207 22.4583V36.2916C16.4207 37.4372 17.3751 38.3666 18.5516 38.3666H27.0755L26.3652 40.4416H23.1687C22.5783 40.4416 22.1032 40.9042 22.1032 41.4791C22.1032 42.0541 22.5783 42.5166 23.1687 42.5166H31.6615C31.2664 42.1146 31.0222 41.5699 31.0222 40.969Z" fill="white"/>
<path d="M45.606 31.9082V30.9053C45.606 29.0292 44.758 27.3432 43.4129 26.189V22.4583C43.4129 20.5519 41.8191 19 39.8613 19H18.5516C16.5938 19 15 20.5519 15 22.4583V36.2917C15 38.1981 16.5938 39.75 18.5516 39.75H21.4284C20.9667 40.1909 20.6826 40.8005 20.6826 41.4792C20.6826 42.8149 21.7969 43.9 23.1687 43.9H33.3219H34.9911H44.98C46.6404 43.9 47.99 42.5858 47.99 40.9691V34.7743C47.99 33.3694 46.9689 32.1892 45.606 31.9082Z" stroke="white" stroke-miterlimit="10"/>
<path d="M44.98 32.535H44.8957V30.9053C44.8957 29.1243 44.0388 27.5377 42.7025 26.5132V22.4583C42.7025 20.9323 41.4284 19.6917 39.8613 19.6917H18.5516C16.9845 19.6917 15.7103 20.9323 15.7103 22.4583V36.2917C15.7103 37.8176 16.9845 39.0583 18.5516 39.0583H26.0899L25.8546 39.75H23.1687C22.1876 39.75 21.3929 40.5238 21.3929 41.4792C21.3929 42.4345 22.1876 43.2083 23.1687 43.2083H33.3219H33.3263H44.98C46.2497 43.2083 47.2797 42.2054 47.2797 40.969V34.7743C47.2797 33.5423 46.2497 32.535 44.98 32.535Z" stroke="white" stroke-miterlimit="10"/>
<path d="M44.98 33.2268H44.1853V30.9054C44.1853 28.2035 41.9256 26.0032 39.1509 26.0032C36.3762 26.0032 34.1166 28.2035 34.1166 30.9054V33.2268H33.3219C32.4429 33.2268 31.7325 33.9184 31.7325 34.7744V40.9691C31.7325 41.825 32.4429 42.5167 33.3219 42.5167H44.98C45.859 42.5167 46.5693 41.825 46.5693 40.9691V34.7744C46.5693 33.9228 45.859 33.2268 44.98 33.2268ZM39.8923 38.518C39.7902 38.518 39.6881 38.5094 39.5904 38.4921L39.3685 38.7342C39.3285 38.7817 39.2664 38.8077 39.2042 38.8077H38.8579V39.1665C38.8579 39.2875 38.7603 39.3826 38.636 39.3826H38.2675V39.7414C38.2675 39.8624 38.1698 39.9575 38.0455 39.9575H37.0111C36.8868 39.9575 36.7891 39.8624 36.7891 39.7414V39.0368C36.7891 38.9806 36.8113 38.9244 36.8557 38.8855L38.3518 37.4286C38.2985 37.273 38.2719 37.1044 38.2719 36.9315C38.2719 36.0583 39 35.345 39.9012 35.345C40.8024 35.345 41.5305 36.054 41.5305 36.9315C41.5172 37.8091 40.7891 38.518 39.8923 38.518ZM41.5349 33.2268H36.7669V30.9054C36.7669 29.6258 37.8368 28.584 39.1509 28.584C40.465 28.584 41.5349 29.6258 41.5349 30.9054V33.2268V33.2268Z" fill="white"/>
<path d="M31.071 27.7926C31.071 27.3733 30.7247 27.0361 30.2941 27.0361C29.8634 27.0361 29.5172 27.3733 29.5172 27.7926C29.5172 28.1385 29.7524 28.4281 30.0765 28.5189C30.0721 28.6702 30.0366 28.7869 29.97 28.869C29.819 29.0506 29.4905 29.0809 29.1442 29.1111C28.869 29.1371 28.5893 29.163 28.354 29.2711V27.9093C28.6692 27.8142 28.8956 27.5246 28.8956 27.1874C28.8956 26.7681 28.5493 26.4309 28.1187 26.4309C27.6881 26.4309 27.3418 26.7681 27.3418 27.1874C27.3418 27.5246 27.5682 27.8099 27.8834 27.9093V29.7941C27.5682 29.8936 27.3418 30.1789 27.3418 30.5161C27.3418 30.9354 27.6881 31.2726 28.1187 31.2726C28.5493 31.2726 28.8956 30.9354 28.8956 30.5161C28.8956 30.1962 28.6914 29.9195 28.3984 29.8114C28.4295 29.7639 28.4739 29.7206 28.5449 29.6861C28.7003 29.6083 28.9356 29.5866 29.1842 29.565C29.5926 29.5261 30.0588 29.4872 30.3296 29.1543C30.4672 28.9901 30.5338 28.7783 30.5382 28.5146C30.849 28.4065 31.071 28.1255 31.071 27.7926ZM28.1187 27.0361C28.2031 27.0361 28.2741 27.1053 28.2741 27.1874C28.2741 27.2696 28.2031 27.3387 28.1187 27.3387C28.0344 27.3387 27.9633 27.2696 27.9633 27.1874C27.9633 27.1053 28.0344 27.0361 28.1187 27.0361ZM28.1187 30.663C28.0344 30.663 27.9633 30.5939 27.9633 30.5117C27.9633 30.4296 28.0344 30.3604 28.1187 30.3604C28.2031 30.3604 28.2741 30.4296 28.2741 30.5117C28.2741 30.5939 28.2075 30.663 28.1187 30.663ZM30.2941 27.6413C30.3784 27.6413 30.4495 27.7105 30.4495 27.7926C30.4495 27.8748 30.3784 27.9439 30.2941 27.9439C30.2097 27.9439 30.1387 27.8748 30.1387 27.7926C30.1387 27.7062 30.2097 27.6413 30.2941 27.6413Z" fill="white"/>
</svg>
