<svg width="62" height="62" viewBox="0 0 62 62" fill="none" xmlns="http://www.w3.org/2000/svg">
<path d="M33.0177 41.0787C32.7008 40.7587 32.5248 40.332 32.5248 39.8768C32.5248 39.4217 32.7008 38.995 33.0177 38.6749L33.8063 37.8784C34.1231 37.5584 34.5456 37.3806 34.9962 37.3806C35.4468 37.3806 35.8692 37.5584 36.1861 37.8784L37.8266 39.5355L39.5657 37.7789V30.9729C39.5657 29.6359 38.4955 28.5549 37.1718 28.5549H35.9749V24.935C35.9749 20.7177 32.5741 17.2827 28.3989 17.2827C24.2236 17.2827 20.8229 20.7177 20.8229 24.935V28.5549H19.626C18.3023 28.5549 17.2321 29.6359 17.2321 30.9729V40.6378C17.2321 41.9748 18.3023 43.0558 19.626 43.0558H34.9539L33.0177 41.0787ZM32.0038 28.5549H24.8292V24.935C24.8292 22.9366 26.4415 21.3151 28.413 21.3151C30.3844 21.3151 31.9968 22.9437 31.9968 24.935V28.5549H32.0038Z" fill="white"/>
<path d="M46.2262 35.0552L45.4376 34.2587C44.9096 33.7253 44.1985 33.4266 43.4521 33.4266C42.8607 33.4266 42.2974 33.6115 41.8257 33.9457V30.9659C41.8257 28.747 40.2908 26.8838 38.2419 26.4002V24.928C38.2419 19.452 33.8343 15 28.4128 15C22.9914 15 18.5838 19.452 18.5838 24.928V26.4002C16.5279 26.8838 15 28.747 15 30.9659V40.6308C15 43.2195 17.0841 45.3246 19.647 45.3246H34.9749L35.3692 45.0543L35.848 45.5379C36.3761 46.0713 37.0872 46.37 37.8335 46.37C38.5869 46.37 39.291 46.0713 39.819 45.5379L46.2262 39.0662C46.7543 38.5328 47.05 37.8145 47.05 37.0607C47.05 36.2997 46.7543 35.5886 46.2262 35.0552Z" stroke="white" stroke-miterlimit="10"/>
<path d="M45.4305 35.8586L44.6419 35.0621C44.3251 34.7421 43.9026 34.5643 43.452 34.5643C43.0014 34.5643 42.579 34.7421 42.2621 35.0621L40.7061 36.6338V30.9657C40.7061 29.0029 39.1289 27.4098 37.1857 27.4098H37.1153V24.9278C37.1153 20.0847 33.2146 16.1377 28.4128 16.1377C23.611 16.1377 19.7103 20.0776 19.7103 24.9278V27.4098H19.6399C17.6967 27.4098 16.1195 29.0029 16.1195 30.9657V40.6306C16.1195 42.5935 17.6967 44.1865 19.6399 44.1865H34.9678L35.2987 43.3829L36.6365 44.7341C36.9533 45.0541 37.3758 45.2319 37.8264 45.2319C38.277 45.2319 38.6995 45.0541 39.0163 44.7341L45.4235 38.2624C45.7403 37.9424 45.9163 37.5157 45.9163 37.0605C45.9234 36.6054 45.7473 36.1787 45.4305 35.8586Z" stroke="white" stroke-miterlimit="10"/>
<path d="M37.4392 43.931L33.8131 40.2756C33.5948 40.0551 33.5948 39.6995 33.8131 39.4791L34.6017 38.6825C34.82 38.4621 35.172 38.4621 35.3903 38.6825L37.8264 41.1432L43.0507 35.8663C43.269 35.6458 43.621 35.6458 43.8393 35.8663L44.6279 36.6628C44.8462 36.8833 44.8462 37.2388 44.6279 37.4593L38.2207 43.931C38.0095 44.1515 37.6574 44.1515 37.4392 43.931Z" fill="white"/>
</svg>
