<svg width="62" height="62" viewBox="0 0 62 62" fill="none" xmlns="http://www.w3.org/2000/svg">
<path d="M33.1082 28.302H33.709C33.7788 28.302 33.8375 28.2409 33.8375 28.1682V24.794H34.3321C34.5612 24.794 34.6758 24.506 34.5137 24.3373L33.5916 23.3774C33.491 23.2726 33.329 23.2726 33.2284 23.3774L32.3063 24.3373C32.1442 24.506 32.2588 24.794 32.4879 24.794H32.9825V28.1653C32.9797 28.2409 33.0384 28.302 33.1082 28.302Z" fill="white"/>
<path d="M40.3371 25.4368H34.2512V28.0285H39.714V39.69H22.2889V28.0285H27.6427L27.19 27.5573C27.0028 27.3624 26.9469 27.0686 27.0475 26.8126C27.1481 26.5567 27.3884 26.3909 27.6539 26.3909H27.7489V25.4368H21.6658C20.6347 25.4368 19.7992 26.3065 19.7992 27.3799V40.3358C19.7992 41.4091 20.6347 42.2789 21.6658 42.2789H29.1321L28.5089 44.222H25.7119C25.1949 44.222 24.7786 44.6554 24.7786 45.1935C24.7786 45.7317 25.1949 46.1651 25.7119 46.1651H36.291C36.8079 46.1651 37.2243 45.7317 37.2243 45.1935C37.2243 44.6554 36.8079 44.222 36.291 44.222H33.4911L32.868 42.2789H40.3343C41.3654 42.2789 42.2009 41.4091 42.2009 40.3358V27.3799C42.2037 26.3065 41.3654 25.4368 40.3371 25.4368Z" fill="white"/>
<path d="M32.5942 25.4368H29.4059V26.3909H29.5009C29.7663 26.3909 30.0067 26.5567 30.1072 26.8126C30.2106 27.0686 30.1548 27.3624 29.9647 27.5573L29.5121 28.0285H32.5942V25.4368V25.4368Z" fill="white"/>
<path d="M25.7118 46.9971C24.7562 46.9971 23.9794 46.1884 23.9794 45.1936C23.9794 44.1988 24.7562 43.3901 25.7118 43.3901H27.9361L28.0255 43.108H21.6657C20.1959 43.108 19 41.863 19 40.333V27.38C19 25.8499 20.1959 24.6049 21.6657 24.6049H25.0049C24.3594 23.9156 23.9766 22.9789 23.9766 21.987C23.9766 20.6082 24.7087 19.3429 25.8599 18.6913C25.9466 17.7285 26.3573 16.8326 27.0307 16.1519C27.7656 15.4101 28.7324 15 29.7552 15C30.8924 15 31.9766 15.5236 32.7171 16.4137C32.9658 16.3352 33.2256 16.2944 33.4883 16.2944C34.9581 16.2944 36.154 17.5394 36.154 19.0694C36.154 19.1189 36.154 19.1713 36.1512 19.2207C37.2829 19.785 38.0234 20.9864 38.0234 22.3099C38.0234 22.9644 37.8446 23.6014 37.5065 24.1512C37.4087 24.3112 37.2969 24.4653 37.1739 24.6049H40.3343C41.8041 24.6049 43 25.8499 43 27.38V40.3359C43 41.8659 41.8041 43.1109 40.3343 43.1109H33.9745L34.0639 43.3931H36.2882C37.2438 43.3931 38.0206 44.2017 38.0206 45.1965C38.0206 46.1913 37.2438 47 36.2882 47H25.7118V46.9971Z" stroke="white" stroke-miterlimit="10"/>
<path d="M40.337 25.021H35.9919C36.9615 24.5323 37.6266 23.4967 37.6266 22.3128C37.6266 21.0359 36.847 19.9102 35.7237 19.4855C35.746 19.3487 35.7572 19.212 35.7572 19.0724C35.7572 17.7722 34.7401 16.7134 33.491 16.7134C33.1781 16.7134 32.8707 16.7803 32.5857 16.9082C31.9291 15.9803 30.8756 15.416 29.7551 15.416C27.855 15.416 26.3042 16.9926 26.2455 18.9561C25.1166 19.4942 24.3761 20.6752 24.3761 21.9871C24.3761 23.3338 25.1474 24.4945 26.2539 25.021H21.6657C20.4167 25.021 19.3995 26.0798 19.3995 27.38V40.3359C19.3995 41.6362 20.4167 42.695 21.6657 42.695H28.5787L28.2238 43.8062H25.7118C24.9769 43.8062 24.3789 44.4287 24.3789 45.1937C24.3789 45.9587 24.9769 46.5812 25.7118 46.5812H36.2909C37.0258 46.5812 37.6238 45.9587 37.6238 45.1937C37.6238 44.4287 37.0258 43.8062 36.2909 43.8062H33.7789L33.424 42.695H40.337C41.5861 42.695 42.6032 41.6362 42.6032 40.3359V27.38C42.6004 26.0798 41.5861 25.021 40.337 25.021Z" stroke="white" stroke-miterlimit="10"/>
<path d="M27.5784 24.9044H27.7377V23.4326C27.7377 23.1301 27.9752 22.8828 28.2658 22.8828H28.8666C29.1572 22.8828 29.3947 23.1301 29.3947 23.4326V24.9044H31.9403C31.9179 24.8695 31.8983 24.8317 31.8816 24.791C31.7782 24.535 31.8341 24.2412 32.0241 24.0463L32.9462 23.0864C33.0691 22.9584 33.234 22.8857 33.41 22.8857C33.5861 22.8857 33.7509 22.9555 33.8739 23.0864L34.796 24.0463C34.9832 24.2412 35.0391 24.535 34.9385 24.791C34.9217 24.8288 34.905 24.8666 34.8826 24.9015C36.1903 24.823 37.2242 23.6944 37.2242 22.3127C37.2242 21.059 36.3692 20.0118 35.2319 19.7733C35.3129 19.558 35.3577 19.3195 35.3577 19.0722C35.3577 17.9989 34.5222 17.1291 33.4911 17.1291C33.1083 17.1291 32.7506 17.2513 32.4544 17.4578C31.9151 16.4863 30.9092 15.8347 29.7551 15.8347C28.0367 15.8347 26.6423 17.2833 26.6423 19.0752C26.6423 19.1304 26.6451 19.1857 26.6451 19.238C25.5553 19.6366 24.7729 20.7186 24.7729 21.9898C24.7757 23.5984 26.0304 24.9044 27.5784 24.9044Z" fill="white"/>
<path d="M28.8636 23.2988H28.2629C28.193 23.2988 28.1343 23.3599 28.1343 23.4326V26.804H27.6398C27.4106 26.804 27.2961 27.0919 27.4581 27.2606L28.3802 28.2206C28.4808 28.3253 28.6429 28.3253 28.7435 28.2206L29.6656 27.2606C29.8277 27.0919 29.7131 26.804 29.484 26.804H28.9894V23.4326C28.9922 23.357 28.9363 23.2988 28.8636 23.2988Z" fill="white"/>
</svg>
