<svg width="62" height="62" viewBox="0 0 62 62" fill="none" xmlns="http://www.w3.org/2000/svg">
<path d="M31.2942 26.4702H31.9446C32.022 26.4702 32.0852 26.4091 32.0852 26.3345V22.9563H32.6197C32.8693 22.9563 32.9924 22.668 32.8166 22.4984L31.8145 21.5386C31.7055 21.4334 31.5297 21.4334 31.4207 21.5386L30.4222 22.5018C30.2464 22.6714 30.3695 22.9597 30.6191 22.9597H31.1535V26.3379C31.157 26.4091 31.2168 26.4702 31.2942 26.4702Z" fill="white"/>
<path d="M30.5944 23.5774H27.4125V24.4287C27.743 24.4389 28.0348 24.6322 28.1614 24.9273C28.2914 25.2326 28.2211 25.5785 27.9785 25.8126L27.6551 26.1246H30.5944V23.5774V23.5774Z" fill="white"/>
<path d="M38.8989 23.5774H32.6441V26.1246H38.2379V37.5819H19.7654V26.1246H25.1166L24.7932 25.8126C24.5506 25.5785 24.4802 25.2326 24.6103 24.9273C24.7369 24.6322 25.0287 24.4389 25.3592 24.4287V23.5774H19.1044C18.011 23.5774 17.125 24.4321 17.125 25.4869V38.2162C17.125 39.271 18.011 40.1257 19.1044 40.1257H27.0222L26.3612 42.0353H23.3938C22.8454 42.0353 22.4059 42.4593 22.4059 42.9884C22.4059 43.5175 22.8454 43.9415 23.3938 43.9415H34.6095C35.158 43.9415 35.5975 43.5175 35.5975 42.9884C35.5975 42.4593 35.158 42.0353 34.6095 42.0353H31.6421L30.9811 40.1257H38.8989C39.9924 40.1257 40.8784 39.271 40.8784 38.2162V25.4869C40.8784 24.4321 39.9924 23.5774 38.8989 23.5774Z" fill="white"/>
<path d="M31.4487 11.7943C32.3664 11.7943 33.284 12.1471 34.0188 12.7983L34.5075 12.3268C33.6497 11.4992 32.5492 11.0854 31.4487 11.0854C30.3482 11.0854 29.2443 11.4992 28.3899 12.3268L28.8786 12.7983C29.6134 12.1471 30.5311 11.7943 31.4487 11.7943Z" fill="white"/>
<path d="M24.7193 21.7118H25.3592V21.5931C25.3592 21.22 25.6756 20.9148 26.0624 20.9148H26.7128C27.0995 20.9148 27.416 21.22 27.416 21.5931V21.7118H30.4502L31.0268 21.1556C31.185 21.003 31.396 20.9182 31.621 20.9182C31.846 20.9182 32.057 21.003 32.2152 21.1556L32.7918 21.7118H33.284C33.9591 21.7118 34.5075 21.1827 34.5075 20.5315V18.1708C34.5075 17.5196 33.9591 16.9905 33.284 16.9905H32.0605V14.6265H30.8369V16.9871H24.7193C24.0442 16.9871 23.4957 17.5162 23.4957 18.1675V20.5281C23.4922 21.1827 24.0407 21.7118 24.7193 21.7118ZM29.6134 18.761H30.8369V19.9413H29.6134V18.761ZM27.4722 18.761H28.6958V19.9413H27.4722V18.761ZM25.331 18.761H26.5546V19.9413H25.331V18.761Z" fill="white"/>
<path d="M29.4304 13.27L29.9191 13.7414C30.3481 13.3276 30.8965 13.1513 31.4485 13.1513C32.0005 13.1513 32.549 13.3276 32.9779 13.7414L33.4666 13.27C32.9146 12.7375 32.1798 12.4424 31.4485 12.4424C30.7172 12.4424 29.9824 12.7375 29.4304 13.27Z" fill="white"/>
<path d="M23.3939 45.03C22.2266 45.03 21.2809 44.1142 21.2809 42.9916C21.2809 42.2284 21.7168 41.5636 22.3602 41.2143H19.1045C17.3923 41.2143 16 39.8711 16 38.2194V25.4867C16 23.8349 17.3923 22.4918 19.1045 22.4918H23.5416C22.8419 22.0984 22.3673 21.3658 22.3673 20.5314V18.1707C22.3673 16.9226 23.422 15.905 24.7159 15.905H29.712V15.0774L28.8752 14.2702L28.8435 14.2973L26.7973 12.3233L27.5919 11.5568C28.6326 10.5529 30.0038 10 31.4488 10C32.8938 10 34.2615 10.5529 35.3057 11.5568L36.1003 12.3233L34.0541 14.2973L34.0224 14.2702L33.1857 15.0774V15.905H33.2841C34.578 15.905 35.6327 16.9226 35.6327 18.1707V20.5314C35.6327 21.1283 35.3936 21.6914 34.9612 22.1153C34.81 22.2646 34.6412 22.3901 34.4584 22.4918H38.8955C40.6077 22.4918 42 23.8349 42 25.4867V38.216C42 39.8678 40.6077 41.2109 38.8955 41.2109H35.6398C36.2832 41.5602 36.7191 42.2284 36.7191 42.9882C36.7191 44.1142 35.7698 45.0266 34.6061 45.0266H23.3939V45.03Z" stroke="white" stroke-miterlimit="10"/>
<path d="M38.8992 23.0341H33.3792C33.3863 23.0239 33.3898 23.0103 33.3968 23.0001C33.5023 22.7525 33.4742 22.4744 33.33 22.254C34.2969 22.2336 35.0774 21.4705 35.0774 20.5309V18.1703C35.0774 17.2206 34.2758 16.4473 33.2913 16.4473H32.6233V14.168L32.9784 14.5106L34.0051 13.5202L34.0367 13.5473L35.306 12.3229L34.9087 11.9396C33.9734 11.0374 32.7464 10.5422 31.4525 10.5422C30.1587 10.5422 28.9281 11.0374 27.9964 11.9396L27.5956 12.3229L28.8648 13.5473L28.8965 13.5202L29.9231 14.5106L30.2782 14.168V16.4473H24.7196C23.7352 16.4473 22.9335 17.2206 22.9335 18.1703V20.5309C22.9335 21.4806 23.7352 22.254 24.7196 22.254H25.3595V23.0341H19.1047C17.7019 23.0341 16.5627 24.133 16.5627 25.4863V38.2155C16.5627 39.5688 17.7019 40.6678 19.1047 40.6678H26.242L25.9572 41.492H23.3941C22.5398 41.492 21.8436 42.1635 21.8436 42.9877C21.8436 43.8119 22.5398 44.4835 23.3941 44.4835H34.6098C35.4642 44.4835 36.1603 43.8119 36.1603 42.9877C36.1603 42.1635 35.4642 41.492 34.6098 41.492H32.0467L31.7619 40.6678H38.8992C40.302 40.6678 41.4412 39.5688 41.4412 38.2155V25.4863C41.4412 24.133 40.302 23.0341 38.8992 23.0341ZM30.1763 19.3031H30.2747V19.3981H30.1763V19.3031ZM28.0351 19.3031H28.1335V19.3981H28.0351V19.3031ZM25.8939 19.3031H25.9924V19.3981H25.8939V19.3031Z" stroke="white" stroke-miterlimit="10"/>
<path d="M26.7092 21.4575H26.0588C25.9814 21.4575 25.9182 21.5186 25.9182 21.5932V24.9714H25.3838C25.1341 24.9714 25.0111 25.2597 25.1869 25.4292L26.1854 26.3925C26.2944 26.4976 26.4702 26.4976 26.5791 26.3925L27.5777 25.4292C27.7534 25.2597 27.6304 24.9714 27.3808 24.9714H26.8464V21.5932C26.8464 21.5186 26.7866 21.4575 26.7092 21.4575Z" fill="white"/>
</svg>
