<svg width="62" height="62" viewBox="0 0 62 62" fill="none" xmlns="http://www.w3.org/2000/svg">
<path d="M35.0678 46.9C33.6267 46.9 32.2497 46.3315 31.225 45.3445C30.2003 46.3315 28.8233 46.9 27.3822 46.9C25.4715 46.9 23.7209 45.9185 22.7122 44.3094C19.9102 44.1055 17.6739 41.8045 17.5672 38.9564C15.9714 37.8462 15 35.9957 15 34.0219C15 32.4021 15.6832 30.8251 16.8467 29.7041C16.7559 29.2858 16.7079 28.8674 16.7079 28.4437C16.7079 26.4699 17.6793 24.6248 19.2751 23.5145C19.3711 21.1545 21.047 19.1753 23.3206 18.6872C24.212 17.0405 25.9252 16 27.8092 16C29.0741 16 30.291 16.4774 31.225 17.3141C32.159 16.4774 33.3759 16 34.6408 16C36.5248 16 38.2434 17.0405 39.1293 18.6872C41.403 19.1753 43.0789 21.1545 43.1749 23.5091C44.7707 24.6248 45.7421 26.4698 45.7421 28.4383C45.7421 28.862 45.6941 29.2858 45.6033 29.6988C46.7668 30.8251 47.45 32.3967 47.45 34.0165C47.45 35.9903 46.4786 37.8354 44.8828 38.9511C44.7761 41.7938 42.5398 44.1002 39.7378 44.304C38.7291 45.9185 36.9785 46.9 35.0678 46.9Z" stroke="white" stroke-miterlimit="10"/>
<path d="M35.0678 46.0418C33.4827 46.0418 32.0737 45.248 31.2251 44.0304C30.3764 45.2426 28.9674 46.0418 27.3823 46.0418C25.605 46.0418 24.0092 45.0334 23.214 43.4672C23.1819 43.4672 23.1446 43.4672 23.1126 43.4672C20.524 43.4672 18.4158 41.3486 18.4158 38.7472C18.4158 38.6614 18.4158 38.5756 18.4212 38.4898C16.8414 37.578 15.854 35.8938 15.854 34.0272C15.854 32.4503 16.5905 30.9699 17.8127 29.9991C17.6473 29.4896 17.5619 28.9693 17.5619 28.449C17.5619 26.5825 18.5493 24.8983 20.1344 23.9865C20.1291 23.9006 20.1237 23.8148 20.1237 23.729C20.1237 21.5299 21.7729 19.717 23.8971 19.4649C24.5589 17.9041 26.0907 16.8635 27.8093 16.8635C29.2023 16.8635 30.4458 17.5393 31.2251 18.5799C32.0043 17.5393 33.2478 16.8635 34.6408 16.8635C36.3648 16.8635 37.8912 17.9041 38.553 19.4649C40.6772 19.717 42.3264 21.5299 42.3264 23.729C42.3264 23.8148 42.321 23.9006 42.3157 23.9865C43.8955 24.8983 44.8882 26.5825 44.8882 28.449C44.8882 28.9747 44.8028 29.4949 44.6427 29.9991C45.8596 30.9699 46.5961 32.4557 46.5961 34.0272C46.5961 35.8938 45.6087 37.5833 44.0289 38.4898C44.0343 38.5756 44.0343 38.6614 44.0343 38.7472C44.0343 41.3486 41.9261 43.4672 39.3376 43.4672C39.3055 43.4672 39.2682 43.4672 39.2361 43.4672C38.4409 45.0334 36.8451 46.0418 35.0678 46.0418Z" stroke="white" stroke-miterlimit="10"/>
<path d="M45.7422 34.0272C45.7422 32.4342 44.8723 31.0611 43.5913 30.3209C43.8689 29.7524 44.0343 29.1248 44.0343 28.449C44.0343 26.6575 42.9402 25.1235 41.3817 24.4799C41.4351 24.2385 41.4725 23.9864 41.4725 23.729C41.4725 21.8356 39.9407 20.2962 38.0567 20.2962C38.014 20.2962 37.9766 20.307 37.9393 20.307C37.5603 18.8212 36.2367 17.7217 34.6409 17.7217C32.7569 17.7217 31.2251 19.2557 31.2251 21.1544C31.2251 19.261 29.6933 17.7217 27.8093 17.7217C26.2135 17.7217 24.8899 18.8212 24.511 20.307C24.4683 20.307 24.4362 20.2962 24.3935 20.2962C22.5095 20.2962 20.9777 21.8356 20.9777 23.729C20.9777 23.9864 21.0098 24.2385 21.0685 24.4799C19.51 25.1235 18.4159 26.6575 18.4159 28.449C18.4159 29.1248 18.5867 29.7524 18.8589 30.3209C17.578 31.0611 16.708 32.4342 16.708 34.0272C16.708 35.8133 17.7968 37.3473 19.3446 37.9909C19.2965 38.2377 19.2698 38.4897 19.2698 38.7472C19.2698 40.8819 20.9884 42.609 23.1126 42.609C23.3314 42.609 23.5449 42.5822 23.7531 42.5447C24.2654 44.0733 25.6851 45.1836 27.3823 45.1836C29.5065 45.1836 31.2251 43.4565 31.2251 41.3217C31.2251 43.4565 32.9437 45.1836 35.0679 45.1836C36.7651 45.1836 38.1848 44.0733 38.6971 42.5447C38.9053 42.5822 39.1188 42.609 39.3376 42.609C41.4618 42.609 43.1804 40.8819 43.1804 38.7472C43.1804 38.4897 43.1537 38.2377 43.1057 37.9909C44.6534 37.3473 45.7422 35.8133 45.7422 34.0272ZM35.1693 29.9347L30.7394 37.6262C30.6273 37.8193 30.4299 37.9319 30.2164 37.9319C29.8321 37.9319 29.5386 37.5726 29.6293 37.1864L30.7875 32.2679H27.7986C27.4357 32.2679 27.1528 31.9461 27.2009 31.5814L28.0068 25.5097C28.0495 25.2093 28.3057 24.9841 28.6046 24.9841H32.2285C32.6234 24.9841 32.9117 25.3649 32.8103 25.7457L31.7375 29.0283H34.6409C35.1159 29.0229 35.4041 29.5324 35.1693 29.9347Z" fill="white"/>
</svg>
