<svg width="62" height="62" viewBox="0 0 62 62" fill="none" xmlns="http://www.w3.org/2000/svg">
<path d="M19.3333 48.74C16.946 48.74 15 46.8559 15 44.5444V41.6438C15 39.8633 15.4948 38.1151 16.4377 36.5871C17.1332 35.454 18.0761 34.4505 19.1795 33.6541L17.8955 30.747C17.5746 30.0218 17.6548 29.1931 18.1028 28.5391C18.5509 27.8852 19.2998 27.4967 20.109 27.4967H21.8945C21.6938 26.901 21.5601 26.2989 21.4865 25.6838C19.4938 25.2176 17.1466 24.3889 17.1466 22.576C17.1466 20.6271 19.8816 19.7789 22.1218 19.3192C22.844 17.2344 23.9875 15.305 24.8301 14.2755C25.4988 13.4597 26.4952 13 27.5652 13C28.1001 13 28.6351 13.123 29.1166 13.3561L30.9622 14.2496C31.0759 14.3014 31.1963 14.3338 31.3233 14.3338C31.4504 14.3338 31.5708 14.3079 31.6845 14.2496L33.5301 13.3561C34.0116 13.123 34.5466 13 35.0815 13C36.1515 13 37.1412 13.4662 37.8099 14.2755C38.6525 15.2985 39.796 17.2279 40.5249 19.3257C42.7718 19.7854 45.5068 20.6336 45.5068 22.5825C45.5068 24.3954 43.1596 25.2241 41.1668 25.6903C41.0933 26.3054 40.9595 26.9075 40.7589 27.5032H42.6113C43.407 27.5032 44.1493 27.8787 44.5973 28.5132C45.0454 29.1413 45.1457 29.9506 44.8648 30.6693L43.6411 33.7771C44.818 34.6577 45.7877 35.7778 46.4697 37.0339C47.2388 38.4453 47.64 40.0381 47.64 41.6438V44.5444C47.64 46.8559 45.694 48.74 43.3067 48.74H19.3333V48.74Z" stroke="white" stroke-miterlimit="10"/>
<path d="M19.3333 48.0925C17.3137 48.0925 15.6687 46.4998 15.6687 44.5444V41.6438C15.6687 39.9798 16.1301 38.3417 17.0128 36.9173C17.7551 35.7066 18.7849 34.6706 20.0087 33.8807L18.5107 30.4945C18.2834 29.97 18.3369 29.3744 18.6579 28.9017C18.9788 28.4291 19.5205 28.1507 20.109 28.1507H22.8641C22.4227 27.1859 22.1753 26.1888 22.1084 25.1658C19.2196 24.5507 17.8153 23.7026 17.8153 22.5825C17.8153 21.3976 19.3934 20.5106 22.6367 19.8825C23.3188 17.7524 24.5024 15.7193 25.3517 14.6834C25.8934 14.023 26.6958 13.6475 27.5585 13.6475C27.9931 13.6475 28.4278 13.7446 28.8156 13.9323L30.6613 14.8258C30.8619 14.923 31.0893 14.9748 31.3166 14.9748C31.544 14.9748 31.7714 14.923 31.972 14.8258L33.8176 13.9323C34.2055 13.7446 34.6402 13.6475 35.0748 13.6475C35.9375 13.6475 36.7399 14.023 37.2816 14.6769C38.1309 15.7064 39.3145 17.7394 39.9966 19.8825C43.2465 20.5106 44.8247 21.3911 44.8247 22.5825C44.8247 23.7026 43.4204 24.5443 40.5315 25.1658C40.4714 26.1888 40.2172 27.1859 39.7759 28.1507H42.5979C43.173 28.1507 43.7079 28.4226 44.0356 28.8758C44.3566 29.329 44.4301 29.9118 44.2295 30.4297L42.8252 33.9972C45.4265 35.7583 46.9646 38.5748 46.9646 41.6373V44.538C46.9646 46.4933 45.3195 48.0861 43.3 48.0861H19.3333V48.0925Z" stroke="white" stroke-miterlimit="10"/>
<path d="M42.0094 34.2563L43.6076 30.2032C43.8751 29.5233 43.3602 28.7982 42.6045 28.7982H38.6926C39.4281 27.5745 39.8829 26.1695 39.8829 24.6544V24.635C42.5042 24.1299 44.1626 23.3983 44.1626 22.5825C44.1626 21.7214 42.3371 20.9574 39.475 20.4459C38.8597 18.3222 37.6694 16.1856 36.76 15.0849C36.1247 14.3144 35.028 14.0748 34.1185 14.5151L32.2729 15.4086C31.671 15.7 30.9622 15.7 30.3604 15.4086L28.5147 14.5151C27.6053 14.0748 26.5086 14.3144 25.8733 15.0849C24.9705 16.1856 23.7735 18.3222 23.1583 20.4459C20.3029 20.9574 18.4773 21.7214 18.4773 22.5825C18.4773 23.3983 20.1357 24.1299 22.7571 24.635V24.6544C22.7571 26.1695 23.2118 27.5745 23.9474 28.7982H20.1023C19.3332 28.7982 18.8183 29.5557 19.1193 30.242L20.8445 34.1397C18.163 35.6483 16.3374 38.426 16.3374 41.6439V44.5445C16.3374 46.1437 17.6815 47.4451 19.3332 47.4451H43.3C44.9517 47.4451 46.2959 46.1437 46.2959 44.5445V41.6439C46.2959 38.5101 44.5706 35.7908 42.0094 34.2563ZM28.1068 45.3733L25.3249 32.9419L28.6418 35.0138L30.2467 37.6037L28.1068 45.3733ZM34.5265 45.3733L32.3866 37.6037L33.9915 35.0138L37.3083 32.9419L34.5265 45.3733ZM37.315 26.0464C37.0542 26.8169 36.8469 27.6392 36.2116 28.209C35.5362 28.8111 33.0018 29.6593 31.9318 26.5903C31.7446 26.0464 30.902 26.0464 30.7081 26.5903C29.5713 29.8406 26.9633 28.6881 26.4283 28.209C25.793 27.6392 25.579 26.8169 25.3249 26.0464C25.2714 25.8846 24.9036 25.6774 24.9036 25.6709V24.9716C26.7961 25.2047 28.9828 25.3472 31.3233 25.3472C33.6638 25.3472 35.8505 25.2112 37.743 24.9716V25.6709C37.7363 25.6774 37.3685 25.8781 37.315 26.0464Z" fill="white"/>
</svg>
