<svg width="62" height="62" viewBox="0 0 62 62" fill="none" xmlns="http://www.w3.org/2000/svg">
<path d="M25.7747 32.6544H32.5194C32.5303 32.6334 32.5412 32.6125 32.5493 32.5915V26.4297H25.7747V32.6544Z" fill="white"/>
<path d="M33.6754 31.0285C34.6304 30.0895 35.8493 29.5766 37.1417 29.5766C38.3633 29.5766 39.5196 30.0355 40.4501 30.8815V26.4297H33.6754V31.0285Z" fill="white"/>
<path d="M33.4494 39.4037C32.4644 38.3178 31.9203 36.8718 31.9203 35.3329C31.9203 34.8439 31.9747 34.3609 32.0835 33.8989H30.2878V40.1237H34.2465C33.9609 39.9137 33.6942 39.6737 33.4494 39.4037Z" fill="white"/>
<path d="M39.3213 18.96H29.162V25.1847H39.3213V18.96Z" fill="white"/>
<path d="M29.1592 33.8989H18.9999V40.1237H29.1592V33.8989Z" fill="white"/>
<path d="M24.6451 26.4297H17.8704V32.6544H24.6451V26.4297Z" fill="white"/>
<path d="M28.0328 18.96H18.9999V25.1847H28.0328V18.96Z" fill="white"/>
<path d="M44.5858 40.6071L42.2922 38.0782C42.2758 38.0602 42.2595 38.0422 42.2432 38.0242C42.6051 37.1903 42.7955 36.2693 42.7955 35.3333C42.7955 33.7644 42.2731 32.2855 41.3209 31.1335V25.4697H40.1917V18H28.9033H28.2911H18.1291V25.4697H17V33.6144H18.1291V41.0841H29.4175H30.0297H34.9488C35.6345 41.4021 36.3745 41.5671 37.1418 41.5671C37.9934 41.5671 38.8286 41.3571 39.5823 40.9581C39.5986 40.9761 39.6149 40.9941 39.6313 41.0121L41.9249 43.541C42.1942 43.838 42.5506 44 42.9315 44C43.3124 44 43.6716 43.835 43.9355 43.541L44.5858 42.824C45.1381 42.2181 45.1381 41.2221 44.5858 40.6071Z" stroke="white" stroke-miterlimit="10"/>
<path d="M43.9705 41.2849L41.6769 38.756C41.5735 38.642 41.432 38.579 41.2851 38.579H40.9096C41.5436 37.685 41.9218 36.5571 41.9218 35.3331C41.9218 32.4202 39.7805 30.0593 37.1387 30.0593C34.4968 30.0593 32.3556 32.4202 32.3556 35.3331C32.3556 38.246 34.4968 40.6069 37.1387 40.6069C38.2487 40.6069 39.2717 40.1899 40.0825 39.491V39.905C40.0825 40.0669 40.1397 40.2229 40.2431 40.3369L42.5367 42.8658C42.7516 43.1028 43.1026 43.1028 43.3175 42.8658L43.9678 42.1489C44.1854 41.9089 44.1854 41.5249 43.9705 41.2849ZM37.1387 38.579C35.5117 38.579 34.1948 37.1271 34.1948 35.3331C34.1948 33.5392 35.5117 32.0873 37.1387 32.0873C38.7657 32.0873 40.0825 33.5392 40.0825 35.3331C40.0825 37.1271 38.7684 38.579 37.1387 38.579Z" fill="white"/>
</svg>
