<svg width="62" height="62" viewBox="0 0 62 62" fill="none" xmlns="http://www.w3.org/2000/svg">
<path d="M36.7835 18.7694L36.706 19.1327C36.6672 19.3071 36.7835 19.4815 36.9336 19.4815H38.6919C38.8469 19.4815 38.9583 19.312 38.9195 19.1327L38.842 18.7694C39.4233 18.4546 39.8205 17.8927 39.8205 17.2437C39.8205 16.2555 38.9195 15.4563 37.8103 15.4563C36.7011 15.4563 35.8002 16.2555 35.8002 17.2437C35.805 17.8976 36.2022 18.4594 36.7835 18.7694ZM38.9292 17.1758C38.997 17.2533 39.0406 17.3599 39.0406 17.4713C39.0406 17.7183 38.842 17.9169 38.595 17.9169C38.3964 17.9169 38.2317 17.791 38.1736 17.6118L38.9292 17.1758ZM36.6963 17.1807L37.4567 17.6215C37.3938 17.7958 37.2291 17.9218 37.0353 17.9218C36.7883 17.9218 36.5897 17.7232 36.5897 17.4762C36.5897 17.3599 36.6285 17.2582 36.6963 17.1807Z" fill="white"/>
<path d="M40.8183 21.7824L38.8372 20.8185L40.8183 19.8546C40.9297 19.8013 40.9733 19.6657 40.92 19.5542L40.7214 19.1571C40.6681 19.0457 40.5325 19.0021 40.4211 19.0553L37.82 20.3196L35.214 19.0553C35.1026 19.0021 34.9718 19.0457 34.9137 19.1571L34.7151 19.5542C34.6618 19.6657 34.7054 19.7964 34.8168 19.8546L36.7979 20.8185L34.8168 21.7824C34.7054 21.8357 34.6618 21.9713 34.7151 22.0827L34.9137 22.4799C34.967 22.5913 35.1026 22.6349 35.214 22.5816L37.8151 21.3174L40.4162 22.5816C40.5276 22.6349 40.6584 22.5913 40.7165 22.4799L40.9151 22.0827C40.9733 21.9713 40.9248 21.8357 40.8183 21.7824Z" fill="white"/>
<path d="M19.5106 43.5937V25.449L24.2866 29.2707V25.449L29.0625 29.2707V25.449L34.1291 29.5032L34.6716 24.0976C34.1823 23.9716 33.7658 23.6423 33.5333 23.1724L33.3347 22.7752C33.1216 22.3538 33.0877 21.8695 33.2378 21.419C33.3105 21.1962 33.4316 20.9927 33.5817 20.8184C33.4316 20.644 33.3153 20.4405 33.2378 20.2177C33.0877 19.7673 33.1216 19.2877 33.3347 18.8663L33.5333 18.4691C33.7028 18.1301 33.9692 17.8588 34.2937 17.6893C34.2744 17.544 34.2647 17.3987 34.2647 17.2534C34.2647 15.4127 35.8631 13.916 37.8248 13.916C39.7866 13.916 41.385 15.4127 41.385 17.2534C41.385 17.3987 41.3753 17.5488 41.3559 17.6893C41.6805 17.8588 41.9469 18.1252 42.1164 18.4691L42.315 18.8663C42.5281 19.2877 42.562 19.7721 42.4119 20.2177C42.3344 20.4405 42.2181 20.6488 42.068 20.8184C42.5233 21.3463 42.6444 22.1116 42.315 22.7752L42.1164 23.1773C41.8694 23.6713 41.4189 24.0104 40.8958 24.1218L41.7241 32.424V43.5937H19.5106Z" stroke="white" stroke-miterlimit="10"/>
<path d="M41.1622 21.0895L40.6052 20.8182L41.1622 20.547C41.3996 20.4259 41.5788 20.2225 41.6611 19.9706C41.7435 19.7187 41.7241 19.4475 41.6079 19.2101L41.4093 18.8129C41.2397 18.4739 40.8958 18.2608 40.518 18.2608C40.4647 18.2608 40.4163 18.2656 40.363 18.2753C40.518 17.9556 40.6004 17.6069 40.6004 17.2533C40.6004 15.8389 39.3507 14.6909 37.8152 14.6909C36.2797 14.6909 35.03 15.8389 35.03 17.2533C35.03 17.6117 35.1124 17.9556 35.2674 18.2753C35.2189 18.2656 35.1657 18.2608 35.1124 18.2608C34.7297 18.2608 34.3907 18.4739 34.2211 18.8129L34.0225 19.2101C33.9014 19.4475 33.8821 19.7187 33.9693 19.9706C34.0516 20.2225 34.2308 20.4308 34.4682 20.547L35.0252 20.8182L34.4682 21.0895C34.2308 21.2106 34.0516 21.414 33.9693 21.6659C33.8869 21.9178 33.9063 22.189 34.0225 22.4264L34.2211 22.8236C34.3907 23.1626 34.7346 23.3757 35.1124 23.3757C35.2529 23.3757 35.3982 23.3467 35.5241 23.2837L34.7588 30.9998L29.8375 27.0618V30.8835L25.0616 27.0618V30.8835L20.2856 27.0618V42.8185H40.9394V32.4529L40.0191 23.245L40.0772 23.274C40.2129 23.3418 40.3679 23.3757 40.518 23.3757C40.9007 23.3757 41.2397 23.1626 41.4093 22.8236L41.6079 22.4215C41.8549 21.9323 41.6563 21.3317 41.1622 21.0895Z" stroke="white" stroke-miterlimit="10"/>
<path d="M22.9691 38.2269V40.1353H26.7908V38.2269H22.9691ZM22.9691 34.4051V36.3136H32.521V34.4051H22.9691ZM28.6993 38.2269V40.1353H32.521V38.2269H28.6993ZM34.4295 34.4051V36.3136H38.2512V34.4051H34.4295ZM34.4295 38.2269V40.1353H38.2512V38.2269H34.4295ZM21.0607 42.0437V28.675L25.8366 32.4967V28.675L30.6126 32.4967V28.675L35.3885 32.4967L36.3427 22.9448H39.2103L40.1645 32.4967V42.0437H21.0607Z" fill="white"/>
</svg>
