<svg width="62" height="62" viewBox="0 0 62 62" fill="none" xmlns="http://www.w3.org/2000/svg">
<path d="M21.8986 43.2643C20.1887 43.2643 18.7986 41.8741 18.7986 40.1643V36.2312C18.7986 31.7216 19.3701 28.3795 20.6053 25.7202C22.0778 22.5379 24.4658 20.3921 27.9 19.157L37.6844 15.4951C37.912 15.4127 38.1397 15.3691 38.377 15.3691C39.2876 15.3691 40.082 15.9795 40.3097 16.8513C40.673 18.2366 40.5276 19.5105 39.8834 20.6343C40.2467 20.8474 40.5858 21.0945 40.9103 21.3657C41.8936 22.2037 42.6541 23.2838 43.0997 24.4948L46.4758 32.4288L46.4903 32.4627C46.9359 33.601 46.6647 34.8991 45.8122 35.7759L45.7928 35.7952L45.7492 35.834L45.7298 35.8534L43.5647 37.7521C42.9834 38.314 42.223 38.6191 41.4141 38.6191H38.9776C37.9798 38.6191 37.0353 38.1348 36.4589 37.3259L34.967 35.2527C34.7878 35.3109 34.6086 35.3545 34.4294 35.3932L36.1198 38.779C36.6042 39.7429 36.5558 40.8715 35.9891 41.7918C35.4223 42.7121 34.4342 43.2643 33.3492 43.2643H21.8986V43.2643Z" stroke="white" stroke-miterlimit="10"/>
<path d="M21.8986 42.4892C20.615 42.4892 19.5736 41.4478 19.5736 40.1642V36.231C19.5736 31.8378 20.1258 28.6021 21.3077 26.0446C22.6881 23.0609 24.9308 21.0459 28.1664 19.8834L37.9556 16.2167C38.0913 16.1682 38.2317 16.1392 38.377 16.1392C38.9341 16.1392 39.4233 16.5121 39.5589 17.0401C39.8689 18.2317 39.7478 19.3215 39.1956 20.266C39.0552 20.5034 38.9002 20.7165 38.7355 20.9054C39.341 21.167 39.9028 21.5206 40.4066 21.9468C41.2978 22.7024 41.976 23.676 42.378 24.7707L45.7541 32.7096L45.7638 32.7338C46.098 33.5863 45.8945 34.5648 45.2503 35.2235L45.2067 35.2623L43.0319 37.1756C42.596 37.6018 42.0195 37.8392 41.4092 37.8392H38.9728C38.222 37.8392 37.5149 37.4759 37.0838 36.8704L35.2431 34.3129C34.5892 34.5938 33.9111 34.7392 33.2185 34.7392C33.0877 34.7392 32.9569 34.7343 32.831 34.7246L33.3008 35.2332L33.4413 35.1606L35.4175 39.1179C35.7808 39.8396 35.7469 40.6873 35.3206 41.3751C34.8944 42.0678 34.1533 42.4795 33.3395 42.4795H21.8986V42.4892Z" stroke="white" stroke-miterlimit="10"/>
<path d="M45.0421 33.0197L41.6563 25.0614C40.9346 23.0658 39.2151 21.6223 37.1516 21.2251C38.0235 20.7117 39.3943 19.4862 38.8082 17.2387C38.7452 16.9965 38.4643 16.8561 38.2269 16.9432L28.4329 20.61C22.0875 22.8914 20.3486 28.4859 20.3486 36.2311V40.1642C20.3486 41.0216 21.0413 41.7142 21.8986 41.7142H33.3396C34.4924 41.7142 35.2432 40.5033 34.7249 39.4716L32.7486 35.5142V35.4803C30.5399 35.3108 28.6508 33.9933 27.6966 32.109C27.6191 31.9589 27.653 31.7748 27.7741 31.6586L28.3602 31.0725C28.5491 30.8836 28.8736 30.9417 28.9851 31.1887C29.7019 32.8211 31.3197 33.969 33.2185 33.969C34.0516 33.969 34.8169 33.722 35.4854 33.3297L37.7135 36.4248C38.0041 36.8317 38.474 37.069 38.9729 37.069H41.4093C41.821 37.069 42.2133 36.9044 42.504 36.6137L44.6982 34.6859C45.1293 34.2451 45.2649 33.5912 45.0421 33.0197ZM36.2362 27.7642C35.5919 27.7642 35.0736 27.2459 35.0736 26.6017C35.0736 25.9575 35.5919 25.4392 36.2362 25.4392C36.8804 25.4392 37.3987 25.9575 37.3987 26.6017C37.3987 27.2459 36.8804 27.7642 36.2362 27.7642Z" fill="white"/>
</svg>
