<svg width="62" height="62" viewBox="0 0 62 62" fill="none" xmlns="http://www.w3.org/2000/svg">
<path d="M30.2293 32.1693L28.9036 29.5892L29.6031 28.4871C32.0947 28.4871 34.6729 28.4871 36.4583 29.3623C37.5841 29.9068 38.3503 30.7626 38.9498 31.6637C43.1136 30.5681 46.4246 28.2991 46.4246 25.6931C46.4246 22.9509 42.7605 20.5976 38.2903 19.5539C37.4043 17.9008 36.405 16.3515 34.6729 15.5152C32.6343 14.5168 29.5698 14.5168 26.5053 14.5168L29.0502 19.4632C25.466 20.2541 22.5214 21.9655 21.5288 24.0853C21.3889 23.3722 21.1891 22.711 20.8826 22.2248C19.87 20.481 17.8181 20.481 15.7795 20.481C17.465 20.481 18.0779 22.8212 18.0779 25.6995C18.0779 28.5779 17.465 30.9181 15.7795 30.9181C17.8181 30.9181 19.87 30.9181 20.8826 29.1743C21.1891 28.6816 21.3889 28.0268 21.5288 27.3137C22.6347 29.6346 26.0989 31.4951 30.2293 32.1693ZM38.8366 23.9946L41.7212 24.7271C41.7012 25.531 41.0217 26.1793 40.189 26.1793C39.3429 26.1793 38.6567 25.5115 38.6567 24.6882C38.6567 24.4419 38.7233 24.202 38.8366 23.9946Z" fill="white"/>
<path d="M32.6408 48.2853L31.8814 47.3388L31.7415 46.6841L32.2278 44.8041C29.7429 44.3957 27.5644 43.5076 26.0389 42.2823C24.7198 43.8252 22.6213 43.8252 21.0557 43.8252L20.2763 43.0667V41.5433L21.0557 40.7848C20.9491 40.7848 20.8692 40.8302 20.8559 40.8497C21.0091 40.707 21.3222 39.8578 21.3222 38.1529C21.3222 36.4479 21.0091 35.5987 20.8559 35.4561C20.8758 35.469 20.9491 35.5209 21.0557 35.5209L20.2763 34.7624V33.239L21.0557 32.4805C22.6279 32.4805 24.7264 32.4805 26.0455 34.0299C26.4652 33.6992 26.9316 33.3881 27.4445 33.1093C25.2461 32.4675 23.3541 31.5081 21.9817 30.3218C20.4695 32.4351 17.8846 32.4351 15.7794 32.4351L15 31.6766V30.1532L15.7794 29.3947C15.7728 29.3947 15.7595 29.3947 15.7595 29.4012C15.9193 29.3299 16.5123 28.4936 16.5123 25.6996C16.5123 22.9056 15.9193 22.0693 15.7595 21.998C15.7661 21.998 15.7728 22.0045 15.7794 22.0045L15 21.246V19.7226L15.7794 18.9641C17.8846 18.9641 20.4695 18.9641 21.9817 21.0774C23.2075 20.0208 24.873 19.1326 26.7983 18.5038L25.0995 15.2041L25.1328 14.4651L25.8323 13.363L26.4985 13C29.6963 13 32.9939 13 35.3656 14.1604C37.3042 15.0939 38.4634 16.7211 39.3295 18.251C44.6723 19.6642 47.97 22.4972 47.97 25.6996C47.97 28.4159 45.545 30.8987 41.5212 32.4416C44.9521 33.7122 47.0107 35.8191 47.0107 38.1593C47.0107 41.459 43.1068 43.5854 39.6426 44.454C38.7299 45.6144 37.7706 46.7619 36.8645 47.462C35.4122 48.59 34.1598 48.59 33.2404 48.59L32.6408 48.2853Z" stroke="white" stroke-miterlimit="10"/>
<path d="M39.5095 32.6034C39.4629 32.5127 39.4096 32.4284 39.3629 32.3376C44.1329 31.0281 47.2041 28.435 47.2041 25.6864C47.2041 22.8081 43.9264 20.1631 38.8167 18.886C37.9773 17.3626 36.9047 15.729 35.026 14.8214C32.8209 13.7388 29.6165 13.7388 26.512 13.7388L25.8125 14.8408L27.9177 18.9444C25.2729 19.664 23.121 20.8503 21.8086 22.2959C21.7287 22.1274 21.6487 21.9653 21.5555 21.8227C20.3163 19.7029 17.9047 19.7029 15.7795 19.7029V21.2263C16.7122 21.2263 17.2985 22.9312 17.2985 25.6799C17.2985 28.4286 16.7189 30.1335 15.7795 30.1335V31.6569C17.9047 31.6569 20.3163 31.6569 21.5555 29.5371C21.6421 29.3945 21.7287 29.2324 21.8086 29.0639C23.4475 30.8661 26.3588 32.2598 29.8763 32.8692C28.2041 33.4267 26.8251 34.2241 25.8991 35.177C25.8658 35.1122 25.8325 35.0539 25.7925 34.9955C24.7599 33.2322 22.7946 33.2322 21.0558 33.2322V34.7557C21.6821 34.7557 22.1018 36.117 22.1018 38.1526C22.1018 40.1817 21.6821 41.5495 21.0558 41.5495V43.073C22.7946 43.073 24.7599 43.073 25.7925 41.3097C25.8258 41.2513 25.8658 41.193 25.8991 41.1282C27.4247 42.684 30.1028 43.825 33.2073 44.1815L32.5078 46.8783L33.2672 47.8248C34.1133 47.8248 35.1659 47.8248 36.405 46.8653C37.2244 46.23 38.1305 45.1669 39.2097 43.7796C42.7605 42.9563 46.2514 40.9272 46.2514 38.1591C46.2448 35.7994 43.6133 33.6406 39.5095 32.6034Z" stroke="white" stroke-miterlimit="10"/>
<path d="M38.9831 33.2584C38.2769 31.9424 37.4841 30.7042 36.1051 30.043C34.4796 29.2456 32.0413 29.2456 29.603 29.2456L31.6283 33.1871C28.7703 33.8159 26.4319 35.1837 25.6392 36.8692C25.5326 36.2987 25.3727 35.7736 25.1262 35.3847C24.3201 33.9974 22.6879 33.9974 21.0624 33.9974C22.4014 33.9974 22.8944 35.8644 22.8944 38.1528C22.8944 40.4477 22.4081 42.3082 21.0624 42.3082C22.6879 42.3082 24.3201 42.3082 25.1262 40.9209C25.3727 40.5319 25.5259 40.0068 25.6392 39.4364C26.6651 41.5951 30.2159 43.2482 34.1931 43.4945L33.2671 47.06C34.0865 47.06 34.8926 47.06 35.9119 46.2626C36.7513 45.6079 37.7439 44.3956 38.7566 43.0926C42.4206 42.3082 45.4652 40.3828 45.4652 38.1528C45.4652 35.9681 42.5472 34.0882 38.9831 33.2584ZM40.502 38.5417C39.8291 38.5417 39.2829 38.0102 39.2829 37.3554C39.2829 37.1545 39.3362 36.9665 39.4228 36.8044L41.7211 37.3878C41.7012 38.0296 41.1615 38.5417 40.502 38.5417Z" fill="white"/>
</svg>
