<svg width="62" height="62" viewBox="0 0 62 62" fill="none" xmlns="http://www.w3.org/2000/svg">
<path d="M42.6929 17.3069H14.604C14.3715 17.3069 14.1777 17.4958 14.1777 17.7331V22.233H43.1143V17.7283C43.1191 17.4958 42.9302 17.3069 42.6929 17.3069ZM16.8224 20.6152C16.3962 20.6152 16.0474 20.2664 16.0474 19.8402C16.0474 19.4139 16.3962 19.0652 16.8224 19.0652C17.2487 19.0652 17.5974 19.4139 17.5974 19.8402C17.5974 20.2664 17.2487 20.6152 16.8224 20.6152ZM19.1765 20.6152C18.7502 20.6152 18.4015 20.2664 18.4015 19.8402C18.4015 19.4139 18.7502 19.0652 19.1765 19.0652C19.6027 19.0652 19.9515 19.4139 19.9515 19.8402C19.9515 20.2664 19.6027 20.6152 19.1765 20.6152ZM21.5305 20.6152C21.1043 20.6152 20.7555 20.2664 20.7555 19.8402C20.7555 19.4139 21.1043 19.0652 21.5305 19.0652C21.9568 19.0652 22.3055 19.4139 22.3055 19.8402C22.3055 20.2664 21.9568 20.6152 21.5305 20.6152Z" fill="white"/>
<path d="M37.3695 33.2912L42.78 32.0996L43.1191 32.027V23.2646H14.1825V40.2711C14.1825 40.5036 14.3714 40.6973 14.6087 40.6973H37.3744V33.2912H37.3695ZM21.8792 34.8509L25.9334 30.7192V30.5981L21.8792 26.4857H24.7806L28.8639 30.6465L24.7806 34.8557H21.8792V34.8509ZM28.2923 37.4956V35.3595H35.4175V37.4956H28.2923Z" fill="white"/>
<path d="M44.669 30.8887V23.7829V21.7195V17.7282C44.669 16.6384 43.7826 15.752 42.6928 15.752H14.6039C13.5141 15.752 12.6277 16.6384 12.6277 17.7282V21.7146V23.7829V40.2759C12.6277 41.3657 13.5141 42.2521 14.6039 42.2521H36.5945V43.4243L42.8865 44.6304L43.8069 44.8048L51.3486 46.2434V29.4113L44.669 30.8887Z" stroke="white" stroke-miterlimit="10"/>
<path d="M43.8942 31.8525V23.0078V22.4944V17.7281C43.8942 17.0694 43.3565 16.5269 42.6929 16.5269H14.604C13.9452 16.5269 13.4027 17.0645 13.4027 17.7281V22.4895V23.0078V40.2758C13.4027 40.9346 13.9404 41.4771 14.604 41.4771H37.3696V42.7849L43.032 43.8699L50.5737 45.3085V30.3752L43.8942 31.8525Z" stroke="white" stroke-miterlimit="10"/>
<path d="M38.1445 37.5149V33.916L42.2569 33.0102V37.452L38.1445 37.5149ZM49.8034 31.344V37.3454L42.9447 37.4423V32.8552L49.8034 31.344ZM38.1445 38.1979L42.2569 38.2609V42.9302L38.1445 42.1407V38.1979ZM49.8034 38.3723V44.3688L42.9447 43.061V38.2657L49.8034 38.3723Z" fill="white"/>
</svg>
