<svg width="62" height="62" viewBox="0 0 62 62" fill="none" xmlns="http://www.w3.org/2000/svg">
<path d="M27.4496 38.1158L31.2858 34.2843L30.7482 33.7467C30.6271 33.7612 30.5011 33.7709 30.3752 33.7757H30.3607C29.4743 33.7757 28.6363 33.427 28.0114 32.8021C27.9388 32.7295 27.8661 32.652 27.7983 32.5696C25.9286 32.56 24.4125 31.0439 24.4125 29.1742C24.4125 27.2996 25.9335 25.7739 27.8128 25.7739C28.9269 25.7739 29.9102 26.3067 30.5302 27.135C31.8816 27.2028 33.0635 28.0843 33.5043 29.3728C33.6254 29.7215 33.6835 30.0848 33.6835 30.4529V30.4675C33.6835 30.5934 33.6738 30.7145 33.6544 30.8404L34.4536 31.6396L35.558 30.5353L35.0252 30.1139C35.0639 29.8039 35.093 29.4939 35.093 29.1742C35.093 28.8545 35.0639 28.5348 35.0252 28.2054L37.0741 26.6215C37.2582 26.4762 37.3066 26.2146 37.1904 26.0015L35.248 22.6399C35.1318 22.4268 34.8702 22.3396 34.6571 22.4268L32.24 23.3956C31.7363 23.0178 31.2132 22.6884 30.598 22.4462L30.2396 19.8742C30.2008 19.6417 29.9974 19.4673 29.7552 19.4673H25.8705C25.6283 19.4673 25.4249 19.6417 25.3861 19.8742L25.0277 22.4462C24.4174 22.6884 23.8894 23.0178 23.3856 23.3956L20.9686 22.4268C20.7555 22.3396 20.4939 22.4268 20.3777 22.6399L18.4353 26.0015C18.3094 26.2146 18.3675 26.4762 18.5516 26.6215L20.6005 28.2054C20.5617 28.5348 20.5327 28.8545 20.5327 29.1742C20.5327 29.4939 20.5617 29.8039 20.6005 30.1139L18.5516 31.7268C18.3675 31.8721 18.3094 32.1337 18.4353 32.3468L20.3777 35.7084C20.4939 35.9215 20.7555 35.999 20.9686 35.9215L23.3856 34.9431C23.8894 35.3306 24.4125 35.66 25.0277 35.9022L25.3861 38.4742C25.4249 38.7067 25.6283 38.8811 25.8705 38.8811H27.0572C27.1057 38.6001 27.2316 38.3337 27.4496 38.1158Z" fill="white"/>
<path d="M37.9217 34.0081L38.6531 33.2767H40.2419L42.4458 28.8689L39.5928 26.0159L38.7984 26.4131C38.8323 26.0256 38.7548 25.6236 38.5514 25.2554L38.5417 25.2361L36.5945 21.8697C36.2361 21.2351 35.558 20.8379 34.8265 20.8379C34.565 20.8379 34.3131 20.8864 34.0758 20.9833L32.4289 21.642C32.2884 21.5548 32.1528 21.4725 32.0123 21.3998L31.7701 19.6512L31.7653 19.6125C31.6006 18.6243 30.753 17.9075 29.7503 17.9075H25.8656C24.863 17.9075 24.0153 18.6243 23.8506 19.6125L23.8458 19.6318L23.5987 21.3998C23.4631 21.4773 23.3226 21.5548 23.1822 21.642L21.5401 20.9833C21.298 20.8864 21.0461 20.8379 20.7845 20.8379C20.0531 20.8379 19.375 21.2351 19.0165 21.8697L17.0839 25.2118C16.5753 26.0789 16.7884 27.2075 17.578 27.8323L18.973 28.9125C18.9681 28.9997 18.9681 29.0868 18.9681 29.1692C18.9681 29.2467 18.9681 29.329 18.973 29.4065L17.578 30.5061C16.7884 31.1309 16.5753 32.2547 17.079 33.1217L19.0117 36.4687C19.3701 37.1033 20.0483 37.4956 20.7845 37.4956C21.0219 37.4956 21.2592 37.452 21.482 37.3745L21.5062 37.3648L23.1676 36.6915C23.3081 36.7787 23.4486 36.8611 23.589 36.9386L23.8312 38.6872L23.8361 38.7259C24.0008 39.714 24.8484 40.4309 25.8511 40.4309H26.6842C26.7423 40.5084 26.8101 40.5859 26.8828 40.6586L27.7934 41.5692C28.2051 41.9809 28.7525 42.2037 29.3337 42.2037C29.915 42.2037 30.4623 41.9761 30.8789 41.5643L34.1678 38.2803L37.4616 41.5692C37.8733 41.9809 38.4206 42.2037 39.0019 42.2037C39.5831 42.2037 40.1305 41.9761 40.547 41.5643L41.4576 40.6537C42.3053 39.8012 42.3005 38.4208 41.4576 37.5683L37.9217 34.0081Z" stroke="white" stroke-miterlimit="10"/>
<path d="M36.8271 34.0081L38.3335 32.5017H39.7672L41.5061 29.0239L39.4427 26.9604L35.9649 28.6993V29.8618L35.8486 29.7698C35.8632 29.5857 35.8777 29.3823 35.8777 29.174C35.8777 28.9609 35.868 28.7478 35.8486 28.554L37.5633 27.2317C38.0429 26.849 38.1785 26.1758 37.8782 25.6333L37.8733 25.6236L35.931 22.262C35.7082 21.8648 35.2916 21.6226 34.8363 21.6226C34.6765 21.6226 34.5215 21.6517 34.3713 21.7147L32.3515 22.5284C31.9979 22.2862 31.654 22.0828 31.31 21.9181L31.0097 19.7723L31.0049 19.753C30.9032 19.1426 30.3752 18.697 29.7552 18.697H25.8705C25.2505 18.697 24.7225 19.1426 24.6208 19.753V19.7626L24.3205 21.9181C23.9766 22.0828 23.6375 22.2814 23.2791 22.5284L21.2593 21.7147C21.114 21.6565 20.9541 21.6226 20.7943 21.6226C20.339 21.6226 19.9224 21.8697 19.6996 22.262L17.7621 25.6139C17.4472 26.1515 17.578 26.849 18.0672 27.2317L19.7819 28.554C19.7674 28.7526 19.7529 28.9609 19.7529 29.174C19.7529 29.3823 19.7625 29.5857 19.7819 29.7698L18.0672 31.1164C17.578 31.5039 17.4472 32.1965 17.7621 32.7342L19.6996 36.086C19.9175 36.4784 20.339 36.7206 20.7991 36.7206C20.9493 36.7206 21.0946 36.6963 21.235 36.6431L21.2496 36.6382L23.2791 35.8148C23.6327 36.0618 23.9718 36.2653 24.3205 36.4299L24.6208 38.5757L24.6257 38.5951C24.7274 39.2054 25.2554 39.651 25.8754 39.651H27.1493C27.2171 39.8157 27.3188 39.9707 27.4544 40.1063L28.3602 41.0121C28.6266 41.2785 28.9802 41.4238 29.358 41.4238C29.7358 41.4238 30.0894 41.2785 30.3558 41.0121L34.1969 37.1807L38.038 41.0121C38.3044 41.2785 38.658 41.4238 39.0358 41.4238C39.4136 41.4238 39.7672 41.2785 40.0336 41.0121L40.9297 40.1063C41.4771 39.559 41.4771 38.6629 40.9297 38.1156L36.8271 34.0081Z" stroke="white" stroke-miterlimit="10"/>
<path d="M40.3775 39.5639L39.4717 40.4697C39.2247 40.7167 38.8226 40.7167 38.5708 40.4697L31 32.9086C30.7917 32.9667 30.5786 33.0006 30.3607 33.0055C28.9511 33.0055 27.8129 31.8623 27.8129 30.4528C27.8129 30.1719 27.8613 29.8909 27.9533 29.6245L29.5711 31.2423L29.9102 30.9033L30.816 29.9975L31.155 29.6584L29.5372 28.0406C30.8692 27.5853 32.3175 28.2925 32.7777 29.6245C32.8697 29.8909 32.9181 30.1719 32.9181 30.4528C32.9133 30.6708 32.8842 30.8839 32.8213 31.0922L40.3823 38.6678C40.6245 38.91 40.6245 39.312 40.3775 39.5639ZM27.9969 38.663C27.7499 38.91 27.7499 39.312 27.9969 39.5639L28.9027 40.4697C29.1497 40.7167 29.5518 40.7167 29.8036 40.4697L33.2911 36.987L31.4844 35.1803L27.9969 38.663ZM39.2876 27.9001L36.7398 29.1741V30.448L35.3545 31.8333L36.6284 33.1072L38.0137 31.7219H39.2876L40.5615 29.1741L39.2876 27.9001Z" fill="white"/>
</svg>
